TelexDeva HT-Regular.ufo
<glyph name="nine" format="1">
  <advance width="585"/>
  <unicode hex="0039"/>
  <outline>
    <contour>
      <point x="139" y="717"/>
      <point x="39" y="627"/>
      <point x="39" y="495" type="curve" smooth="yes"/>
      <point x="39" y="369"/>
      <point x="134" y="277"/>
      <point x="263" y="277" type="curve" smooth="yes"/>
      <point x="325" y="277"/>
      <point x="383" y="300"/>
      <point x="432" y="342" type="curve"/>
      <point x="400" y="186"/>
      <point x="283" y="93"/>
      <point x="97" y="79" type="curve"/>
      <point x="107" y="0" type="line"/>
      <point x="371" y="14"/>
      <point x="536" y="178"/>
      <point x="536" y="427" type="curve" smooth="yes"/>
      <point x="536" y="611"/>
      <point x="442" y="717"/>
      <point x="284" y="717" type="curve" smooth="yes"/>
    </contour>
    <contour>
      <point x="190" y="360"/>
      <point x="135" y="411"/>
      <point x="135" y="495" type="curve" smooth="yes"/>
      <point x="135" y="573"/>
      <point x="201" y="634"/>
      <point x="286" y="634" type="curve" smooth="yes"/>
      <point x="382" y="634"/>
      <point x="440" y="558"/>
      <point x="440" y="431" type="curve" smooth="yes"/>
      <point x="440" y="424" type="line"/>
      <point x="390" y="383"/>
      <point x="333" y="360"/>
      <point x="280" y="360" type="curve" smooth="yes"/>
    </contour>
  </outline>
</glyph>
<glyph name="E" format="1">
  <advance width="560"/>
  <unicode hex="0045"/>
  <outline>
    <contour>
      <point x="514" y="708" type="line"/>
      <point x="93" y="708" type="line"/>
      <point x="93" y="0" type="line"/>
      <point x="525" y="0" type="line"/>
      <point x="525" y="85" type="line"/>
      <point x="189" y="85" type="line"/>
      <point x="189" y="328" type="line"/>
      <point x="481" y="328" type="line"/>
      <point x="481" y="413" type="line"/>
      <point x="189" y="413" type="line"/>
      <point x="189" y="623" type="line"/>
      <point x="514" y="623" type="line"/>
    </contour>
  </outline>
</glyph>
<glyph name="T" format="1">
  <advance width="542"/>
  <unicode hex="0054"/>
  <outline>
    <contour>
      <point x="10" y="623" type="line"/>
      <point x="229" y="623" type="line"/>
      <point x="229" y="0" type="line"/>
      <point x="325" y="0" type="line"/>
      <point x="325" y="623" type="line"/>
      <point x="532" y="623" type="line"/>
      <point x="532" y="708" type="line"/>
      <point x="10" y="708" type="line"/>
    </contour>
  </outline>
</glyph>
<glyph name="d" format="1">
  <advance width="581"/>
  <unicode hex="0064"/>
  <outline>
    <contour>
      <point x="510" y="750" type="line"/>
      <point x="416" y="750" type="line"/>
      <point x="416" y="509" type="line"/>
      <point x="366" y="520"/>
      <point x="339" y="523"/>
      <point x="307" y="523" type="curve" smooth="yes"/>
      <point x="142" y="523"/>
      <point x="43" y="420"/>
      <point x="43" y="249" type="curve" smooth="yes"/>
      <point x="43" y="85"/>
      <point x="125" y="-8"/>
      <point x="269" y="-8" type="curve" smooth="yes"/>
      <point x="329" y="-8"/>
      <point x="377" y="14"/>
      <point x="422" y="65" type="curve"/>
      <point x="435" y="1" type="line"/>
      <point x="510" y="1" type="line"/>
    </contour>
    <contour>
      <point x="188" y="75"/>
      <point x="139" y="138"/>
      <point x="139" y="249" type="curve" smooth="yes"/>
      <point x="139" y="369"/>
      <point x="202" y="440"/>
      <point x="308" y="440" type="curve" smooth="yes"/>
      <point x="344" y="440"/>
      <point x="361" y="438"/>
      <point x="416" y="425" type="curve"/>
      <point x="416" y="176" type="line"/>
      <point x="392" y="112"/>
      <point x="341" y="75"/>
      <point x="275" y="75" type="curve" smooth="yes"/>
    </contour>
  </outline>
</glyph>
<glyph name="f" format="1">
  <advance width="349"/>
  <unicode hex="0066"/>
  <outline>
    <contour>
      <point x="14" y="433" type="line"/>
      <point x="104" y="433" type="line"/>
      <point x="104" y="-153" type="line"/>
      <point x="166" y="-153" type="line"/>
      <point x="189" y="-89"/>
      <point x="198" y="-36"/>
      <point x="198" y="33" type="curve" smooth="yes"/>
      <point x="198" y="433" type="line"/>
      <point x="344" y="433" type="line"/>
      <point x="344" y="514" type="line"/>
      <point x="198" y="514" type="line"/>
      <point x="198" y="590" type="line" smooth="yes"/>
      <point x="198" y="641"/>
      <point x="226" y="671"/>
      <point x="275" y="671" type="curve" smooth="yes"/>
      <point x="299" y="671"/>
      <point x="323" y="666"/>
      <point x="360" y="654" type="curve"/>
      <point x="394" y="727" type="line"/>
      <point x="340" y="748"/>
      <point x="308" y="755"/>
      <point x="268" y="755" type="curve" smooth="yes"/>
      <point x="164" y="755"/>
      <point x="104" y="692"/>
      <point x="104" y="583" type="curve" smooth="yes"/>
      <point x="104" y="514" type="line"/>
      <point x="14" y="514" type="line"/>
    </contour>
  </outline>
</glyph>
<glyph name="m" format="1">
  <advance width="922"/>
  <unicode hex="006D"/>
  <outline>
    <contour>
      <point x="158" y="514" type="line"/>
      <point x="82" y="514" type="line"/>
      <point x="82" y="0" type="line"/>
      <point x="176" y="0" type="line"/>
      <point x="176" y="364" type="line"/>
      <point x="207" y="411"/>
      <point x="262" y="440"/>
      <point x="321" y="440" type="curve" smooth="yes"/>
      <point x="390" y="440"/>
      <point x="420" y="407"/>
      <point x="420" y="331" type="curve" smooth="yes"/>
      <point x="420" y="0" type="line"/>
      <point x="514" y="0" type="line"/>
      <point x="514" y="334" type="line" smooth="yes"/>
      <point x="514" y="351"/>
      <point x="512" y="363"/>
      <point x="512" y="363" type="curve"/>
      <point x="544" y="412"/>
      <point x="597" y="440"/>
      <point x="658" y="440" type="curve" smooth="yes"/>
      <point x="727" y="440"/>
      <point x="757" y="407"/>
      <point x="757" y="331" type="curve" smooth="yes"/>
      <point x="757" y="0" type="line"/>
      <point x="851" y="0" type="line"/>
      <point x="851" y="338" type="line" smooth="yes"/>
      <point x="851" y="459"/>
      <point x="791" y="523"/>
      <point x="676" y="523" type="curve" smooth="yes"/>
      <point x="603" y="523"/>
      <point x="544" y="493"/>
      <point x="497" y="432" type="curve"/>
      <point x="470" y="492"/>
      <point x="416" y="523"/>
      <point x="339" y="523" type="curve" smooth="yes"/>
      <point x="271" y="523"/>
      <point x="215" y="497"/>
      <point x="169" y="443" type="curve"/>
    </contour>
  </outline>
</glyph>
<glyph name="n" format="1">
  <advance width="590"/>
  <unicode hex="006E"/>
  <outline>
    <contour>
      <point x="158" y="514" type="line"/>
      <point x="82" y="514" type="line"/>
      <point x="82" y="0" type="line"/>
      <point x="176" y="0" type="line"/>
      <point x="176" y="363" type="line"/>
      <point x="208" y="411"/>
      <point x="265" y="440"/>
      <point x="326" y="440" type="curve" smooth="yes"/>
      <point x="395" y="440"/>
      <point x="425" y="407"/>
      <point x="425" y="331" type="curve" smooth="yes"/>
      <point x="425" y="0" type="line"/>
      <point x="519" y="0" type="line"/>
      <point x="519" y="338" type="line" smooth="yes"/>
      <point x="519" y="458"/>
      <point x="460" y="523"/>
      <point x="350" y="523" type="curve" smooth="yes"/>
      <point x="276" y="523"/>
      <point x="218" y="497"/>
      <point x="169" y="442" type="curve"/>
    </contour>
  </outline>
</glyph>
<glyph name="p" format="1">
  <advance width="593"/>
  <unicode hex="0070"/>
  <outline>
    <contour>
      <point x="263" y="522"/>
      <point x="215" y="499"/>
      <point x="171" y="449" type="curve"/>
      <point x="158" y="513" type="line"/>
      <point x="83" y="513" type="line"/>
      <point x="83" y="-236" type="line"/>
      <point x="177" y="-236" type="line"/>
      <point x="177" y="5" type="line"/>
      <point x="226" y="-6"/>
      <point x="253" y="-9"/>
      <point x="286" y="-9" type="curve" smooth="yes"/>
      <point x="451" y="-9"/>
      <point x="550" y="94"/>
      <point x="550" y="265" type="curve" smooth="yes"/>
      <point x="550" y="429"/>
      <point x="468" y="522"/>
      <point x="324" y="522" type="curve" smooth="yes"/>
    </contour>
    <contour>
      <point x="249" y="74"/>
      <point x="234" y="75"/>
      <point x="177" y="89" type="curve"/>
      <point x="177" y="339" type="line"/>
      <point x="200" y="404"/>
      <point x="250" y="439"/>
      <point x="318" y="439" type="curve" smooth="yes"/>
      <point x="405" y="439"/>
      <point x="454" y="376"/>
      <point x="454" y="265" type="curve" smooth="yes"/>
      <point x="454" y="145"/>
      <point x="391" y="74"/>
      <point x="285" y="74" type="curve" smooth="yes"/>
    </contour>
  </outline>
</glyph>
<glyph name="x" format="1">
  <advance width="511"/>
  <unicode hex="0078"/>
  <outline>
    <contour>
      <point x="391" y="-1" type="line"/>
      <point x="501" y="0" type="line"/>
      <point x="314" y="267" type="line"/>
      <point x="486" y="514" type="line"/>
      <point x="376" y="514" type="line"/>
      <point x="256" y="338" type="line"/>
      <point x="135" y="514" type="line"/>
      <point x="25" y="514" type="line"/>
      <point x="197" y="267" type="line"/>
      <point x="10" y="0" type="line"/>
      <point x="120" y="-1" type="line"/>
      <point x="256" y="196" type="line"/>
    </contour>
  </outline>
</glyph>
<glyph name="z" format="1">
  <advance width="453"/>
  <unicode hex="007A"/>
  <outline>
    <contour>
      <point x="294" y="431" type="line"/>
      <point x="30" y="67" type="line"/>
      <point x="30" y="0" type="line"/>
      <point x="425" y="0" type="line"/>
      <point x="425" y="83" type="line"/>
      <point x="148" y="83" type="line"/>
      <point x="414" y="450" type="line"/>
      <point x="414" y="514" type="line"/>
      <point x="44" y="514" type="line"/>
      <point x="44" y="431" type="line"/>
    </contour>
  </outline>
</glyph>
<glyph name="bar" format="1">
  <advance width="250"/>
  <unicode hex="007C"/>
  <outline>
    <contour>
      <point x="167" y="774" type="line"/>
      <point x="83" y="774" type="line"/>
      <point x="83" y="-193" type="line"/>
      <point x="167" y="-193" type="line"/>
    </contour>
  </outline>
</glyph>
<glyph name="exclamdown" format="1">
  <advance width="242"/>
  <unicode hex="00A1"/>
  <outline>
    <contour>
      <point x="85" y="330" type="line"/>
      <point x="73" y="-206" type="line"/>
      <point x="169" y="-206" type="line"/>
      <point x="156" y="330" type="line"/>
    </contour>
    <contour>
      <point x="75" y="514" type="line"/>
      <point x="75" y="422" type="line"/>
      <point x="168" y="422" type="line"/>
      <point x="168" y="514" type="line"/>
    </contour>
  </outline>
</glyph>
<glyph name="currency" format="1">
  <advance width="596"/>
  <unicode hex="00A4"/>
  <outline>
    <contour>
      <point x="479" y="358"/>
      <point x="470" y="392"/>
      <point x="453" y="420" type="curve"/>
      <point x="575" y="542" type="line"/>
      <point x="519" y="598" type="line"/>
      <point x="397" y="476" type="line"/>
      <point x="369" y="492"/>
      <point x="335" y="501"/>
      <point x="298" y="501" type="curve" smooth="yes"/>
      <point x="260" y="501"/>
      <point x="227" y="492"/>
      <point x="199" y="475" type="curve"/>
      <point x="77" y="598" type="line"/>
      <point x="21" y="542" type="line"/>
      <point x="143" y="419" type="line"/>
      <point x="126" y="392"/>
      <point x="117" y="358"/>
      <point x="117" y="320" type="curve" smooth="yes"/>
      <point x="117" y="283"/>
      <point x="126" y="249"/>
      <point x="142" y="221" type="curve"/>
      <point x="21" y="100" type="line"/>
      <point x="77" y="44" type="line"/>
      <point x="198" y="165" type="line"/>
      <point x="226" y="148"/>
      <point x="260" y="139"/>
      <point x="298" y="139" type="curve" smooth="yes"/>
      <point x="336" y="139"/>
      <point x="370" y="148"/>
      <point x="397" y="165" type="curve"/>
      <point x="519" y="44" type="line"/>
      <point x="575" y="100" type="line"/>
      <point x="453" y="221" type="line"/>
      <point x="470" y="249"/>
      <point x="479" y="282"/>
      <point x="479" y="320" type="curve" smooth="yes"/>
    </contour>
    <contour>
      <point x="201" y="382"/>
      <point x="242" y="427"/>
      <point x="298" y="427" type="curve" smooth="yes"/>
      <point x="354" y="427"/>
      <point x="395" y="382"/>
      <point x="395" y="320" type="curve" smooth="yes"/>
      <point x="395" y="258"/>
      <point x="354" y="213"/>
      <point x="298" y="213" type="curve" smooth="yes"/>
      <point x="242" y="213"/>
      <point x="201" y="258"/>
      <point x="201" y="320" type="curve" smooth="yes"/>
    </contour>
  </outline>
</glyph>
<glyph name="twosuperior" format="1">
  <advance width="333"/>
  <unicode hex="00B2"/>
  <outline>
    <contour>
      <point x="102" y="867"/>
      <point x="59" y="858"/>
      <point x="18" y="842" type="curve"/>
      <point x="31" y="774" type="line"/>
      <point x="62" y="789"/>
      <point x="98" y="798"/>
      <point x="128" y="798" type="curve" smooth="yes"/>
      <point x="180" y="798"/>
      <point x="211" y="772"/>
      <point x="211" y="725" type="curve" smooth="yes"/>
      <point x="211" y="674"/>
      <point x="194" y="638"/>
      <point x="113" y="565" type="curve" smooth="yes"/>
      <point x="17" y="477" type="line"/>
      <point x="20" y="420" type="line"/>
      <point x="310" y="420" type="line"/>
      <point x="310" y="494" type="line"/>
      <point x="254" y="489"/>
      <point x="191" y="485"/>
      <point x="131" y="483" type="curve"/>
      <point x="189" y="538" type="line" smooth="yes"/>
      <point x="280" y="624"/>
      <point x="300" y="665"/>
      <point x="300" y="728" type="curve" smooth="yes"/>
      <point x="300" y="814"/>
      <point x="239" y="867"/>
      <point x="142" y="867" type="curve" smooth="yes"/>
    </contour>
  </outline>
</glyph>
<glyph name="ordmasculine" format="1">
  <advance width="369"/>
  <unicode hex="00BA"/>
  <outline>
    <contour>
      <point x="22" y="426"/>
      <point x="82" y="361"/>
      <point x="185" y="361" type="curve" smooth="yes"/>
      <point x="287" y="361"/>
      <point x="347" y="426"/>
      <point x="347" y="538" type="curve" smooth="yes"/>
      <point x="347" y="649"/>
      <point x="288" y="714"/>
      <point x="185" y="714" type="curve" smooth="yes"/>
      <point x="82" y="714"/>
      <point x="22" y="649"/>
      <point x="22" y="538" type="curve" smooth="yes"/>
    </contour>
    <contour>
      <point x="274" y="463"/>
      <point x="242" y="422"/>
      <point x="185" y="422" type="curve" smooth="yes"/>
      <point x="128" y="422"/>
      <point x="96" y="463"/>
      <point x="96" y="538" type="curve" smooth="yes"/>
      <point x="96" y="613"/>
      <point x="127" y="653"/>
      <point x="185" y="653" type="curve" smooth="yes"/>
      <point x="243" y="653"/>
      <point x="274" y="613"/>
      <point x="274" y="538" type="curve" smooth="yes"/>
    </contour>
  </outline>
</glyph>
<glyph name="guillemotright" format="1">
  <advance width="610"/>
  <unicode hex="00BB"/>
  <outline>
    <contour>
      <point x="206" y="261" type="line"/>
      <point x="85" y="77" type="line"/>
      <point x="153" y="24" type="line"/>
      <point x="305" y="261" type="line"/>
      <point x="152" y="499" type="line"/>
      <point x="84" y="448" type="line"/>
    </contour>
    <contour>
      <point x="442" y="261" type="line"/>
      <point x="319" y="77" type="line"/>
      <point x="389" y="24" type="line"/>
      <point x="541" y="261" type="line"/>
      <point x="388" y="499" type="line"/>
      <point x="318" y="448" type="line"/>
    </contour>
  </outline>
</glyph>
<glyph name="onequarter" format="1">
  <advance width="817"/>
  <unicode hex="00BC"/>
  <outline>
    <contour>
      <point x="526" y="738" type="line"/>
      <point x="99" y="-1" type="line"/>
      <point x="166" y="-38" type="line"/>
      <point x="593" y="701" type="line"/>
    </contour>
    <contour>
      <point x="21" y="600" type="line"/>
      <point x="125" y="629" type="line"/>
      <point x="125" y="260" type="line"/>
      <point x="210" y="260" type="line"/>
      <point x="210" y="700" type="line"/>
      <point x="154" y="709" type="line"/>
      <point x="6" y="648" type="line"/>
    </contour>
    <contour>
      <point x="750" y="159" type="line"/>
      <point x="750" y="445" type="line"/>
      <point x="626" y="445" type="line"/>
      <point x="444" y="145" type="line"/>
      <point x="452" y="97" type="line"/>
      <point x="671" y="97" type="line"/>
      <point x="671" y="0" type="line"/>
      <point x="750" y="0" type="line"/>
      <point x="750" y="97" type="line"/>
      <point x="794" y="97" type="line"/>
      <point x="803" y="159" type="line"/>
    </contour>
    <contour>
      <point x="537" y="159" type="line"/>
      <point x="671" y="384" type="line"/>
      <point x="671" y="159" type="line"/>
    </contour>
  </outline>
</glyph>
<glyph name="threequarters" format="1">
  <advance width="891"/>
  <unicode hex="00BE"/>
  <outline>
    <contour>
      <point x="600" y="738" type="line"/>
      <point x="173" y="-1" type="line"/>
      <point x="240" y="-38" type="line"/>
      <point x="667" y="701" type="line"/>
    </contour>
    <contour>
      <point x="18" y="270" type="line"/>
      <point x="52" y="259"/>
      <point x="93" y="253"/>
      <point x="129" y="253" type="curve" smooth="yes"/>
      <point x="242" y="253"/>
      <point x="306" y="300"/>
      <point x="306" y="379" type="curve" smooth="yes"/>
      <point x="306" y="437"/>
      <point x="271" y="476"/>
      <point x="209" y="489" type="curve"/>
      <point x="266" y="501"/>
      <point x="297" y="535"/>
      <point x="297" y="588" type="curve" smooth="yes"/>
      <point x="297" y="662"/>
      <point x="233" y="704"/>
      <point x="143" y="704" type="curve" smooth="yes"/>
      <point x="99" y="704"/>
      <point x="55" y="695"/>
      <point x="15" y="679" type="curve"/>
      <point x="29" y="616" type="line"/>
      <point x="64" y="629"/>
      <point x="102" y="638"/>
      <point x="131" y="638" type="curve" smooth="yes"/>
      <point x="178" y="638"/>
      <point x="208" y="619"/>
      <point x="208" y="582" type="curve" smooth="yes"/>
      <point x="208" y="539"/>
      <point x="174" y="515"/>
      <point x="113" y="515" type="curve" smooth="yes"/>
      <point x="87" y="515" type="line"/>
      <point x="87" y="453" type="line"/>
      <point x="117" y="453" type="line" smooth="yes"/>
      <point x="184" y="453"/>
      <point x="218" y="430"/>
      <point x="218" y="383" type="curve" smooth="yes"/>
      <point x="218" y="342"/>
      <point x="184" y="319"/>
      <point x="123" y="319" type="curve" smooth="yes"/>
      <point x="96" y="319"/>
      <point x="59" y="324"/>
      <point x="29" y="333" type="curve"/>
    </contour>
    <contour>
      <point x="824" y="159" type="line"/>
      <point x="824" y="445" type="line"/>
      <point x="700" y="445" type="line"/>
      <point x="518" y="145" type="line"/>
      <point x="526" y="97" type="line"/>
      <point x="745" y="97" type="line"/>
      <point x="745" y="0" type="line"/>
      <point x="824" y="0" type="line"/>
      <point x="824" y="97" type="line"/>
      <point x="868" y="97" type="line"/>
      <point x="877" y="159" type="line"/>
    </contour>
    <contour>
      <point x="611" y="159" type="line"/>
      <point x="745" y="384" type="line"/>
      <point x="745" y="159" type="line"/>
    </contour>
  </outline>
</glyph>
<glyph name="Iacute" format="1">
  <advance width="282"/>
  <unicode hex="00CD"/>
  <outline>
    <contour>
      <point x="228" y="959" type="line"/>
      <point x="95" y="795" type="line"/>
      <point x="132" y="761" type="line"/>
      <point x="288" y="897" type="line"/>
    </contour>
    <contour>
      <point x="189" y="708" type="line"/>
      <point x="93" y="708" type="line"/>
      <point x="93" y="0" type="line"/>
      <point x="189" y="0" type="line"/>
    </contour>
  </outline>
</glyph>
<glyph name="germandbls" format="1">
  <advance width="567"/>
  <unicode hex="00DF"/>
  <outline>
    <contour>
      <point x="83" y="0" type="line"/>
      <point x="177" y="0" type="line"/>
      <point x="177" y="557" type="line" smooth="yes"/>
      <point x="177" y="614"/>
      <point x="215" y="647"/>
      <point x="283" y="647" type="curve" smooth="yes"/>
      <point x="344" y="647"/>
      <point x="375" y="621"/>
      <point x="375" y="569" type="curve" smooth="yes"/>
      <point x="375" y="490"/>
      <point x="268" y="471"/>
      <point x="268" y="376" type="curve" smooth="yes"/>
      <point x="268" y="239"/>
      <point x="448" y="275"/>
      <point x="448" y="169" type="curve" smooth="yes"/>
      <point x="448" y="109"/>
      <point x="410" y="80"/>
      <point x="334" y="80" type="curve" smooth="yes"/>
      <point x="248" y="80" type="line"/>
      <point x="248" y="0" type="line"/>
      <point x="340" y="0" type="line" smooth="yes"/>
      <point x="469" y="0"/>
      <point x="544" y="62"/>
      <point x="544" y="168" type="curve" smooth="yes"/>
      <point x="544" y="319"/>
      <point x="368" y="322"/>
      <point x="368" y="382" type="curve" smooth="yes"/>
      <point x="368" y="442"/>
      <point x="471" y="467"/>
      <point x="471" y="575" type="curve" smooth="yes"/>
      <point x="471" y="669"/>
      <point x="398" y="730"/>
      <point x="288" y="730" type="curve" smooth="yes"/>
      <point x="155" y="730"/>
      <point x="83" y="667"/>
      <point x="83" y="553" type="curve" smooth="yes"/>
    </contour>
  </outline>
</glyph>
<glyph name="Abreve" format="1">
  <advance width="644"/>
  <unicode hex="0102"/>
  <outline>
    <contour>
      <point x="401" y="901" type="line"/>
      <point x="401" y="861"/>
      <point x="368" y="832"/>
      <point x="321" y="832" type="curve" smooth="yes"/>
      <point x="273" y="832"/>
      <point x="242" y="859"/>
      <point x="242" y="901" type="curve"/>
      <point x="178" y="901" type="line"/>
      <point x="178" y="821"/>
      <point x="235" y="767"/>
      <point x="321" y="767" type="curve" smooth="yes"/>
      <point x="407" y="767"/>
      <point x="465" y="821"/>
      <point x="465" y="901" type="curve"/>
    </contour>
    <contour>
      <point x="631" y="0" type="line"/>
      <point x="378" y="708" type="line"/>
      <point x="258" y="708" type="line"/>
      <point x="14" y="0" type="line"/>
      <point x="111" y="0" type="line"/>
      <point x="181" y="205" type="line"/>
      <point x="464" y="205" type="line"/>
      <point x="537" y="0" type="line"/>
    </contour>
    <contour>
      <point x="210" y="290" type="line"/>
      <point x="317" y="609" type="line"/>
      <point x="323" y="609" type="line"/>
      <point x="434" y="290" type="line"/>
    </contour>
  </outline>
</glyph>
<glyph name="Aogonek" format="1">
  <advance width="644"/>
  <unicode hex="0104"/>
  <outline>
    <contour>
      <point x="438" y="-198"/>
      <point x="487" y="-225"/>
      <point x="534" y="-225" type="curve" smooth="yes"/>
      <point x="572" y="-225"/>
      <point x="599" y="-215"/>
      <point x="629" y="-199" type="curve"/>
      <point x="615" y="-159" type="line"/>
      <point x="600" y="-165"/>
      <point x="583" y="-169"/>
      <point x="567" y="-169" type="curve" smooth="yes"/>
      <point x="543" y="-169"/>
      <point x="521" y="-154"/>
      <point x="521" y="-121" type="curve" smooth="yes"/>
      <point x="521" y="-67"/>
      <point x="566" y="-35"/>
      <point x="626" y="0" type="curve"/>
      <point x="631" y="0" type="line"/>
      <point x="378" y="708" type="line"/>
      <point x="258" y="708" type="line"/>
      <point x="14" y="0" type="line"/>
      <point x="111" y="0" type="line"/>
      <point x="181" y="205" type="line"/>
      <point x="464" y="205" type="line"/>
      <point x="537" y="0" type="line"/>
      <point x="484" y="-21"/>
      <point x="438" y="-77"/>
      <point x="438" y="-132" type="curve" smooth="yes"/>
    </contour>
    <contour>
      <point x="320" y="609" type="line"/>
      <point x="433" y="290" type="line"/>
      <point x="210" y="290" type="line"/>
    </contour>
  </outline>
</glyph>
<glyph name="aogonek" format="1">
  <advance width="525"/>
  <unicode hex="0105"/>
  <outline>
    <contour>
      <point x="263" y="-198"/>
      <point x="312" y="-225"/>
      <point x="359" y="-225" type="curve" smooth="yes"/>
      <point x="397" y="-225"/>
      <point x="424" y="-215"/>
      <point x="454" y="-199" type="curve"/>
      <point x="440" y="-159" type="line"/>
      <point x="425" y="-165"/>
      <point x="408" y="-169"/>
      <point x="392" y="-169" type="curve" smooth="yes"/>
      <point x="368" y="-169"/>
      <point x="346" y="-154"/>
      <point x="346" y="-121" type="curve" smooth="yes"/>
      <point x="346" y="-67"/>
      <point x="393" y="-35"/>
      <point x="456" y="0" type="curve"/>
      <point x="456" y="327" type="line" smooth="yes"/>
      <point x="456" y="452"/>
      <point x="384" y="522"/>
      <point x="257" y="522" type="curve" smooth="yes"/>
      <point x="195" y="522"/>
      <point x="125" y="506"/>
      <point x="65" y="478" type="curve"/>
      <point x="91" y="402" type="line"/>
      <point x="146" y="426"/>
      <point x="204" y="439"/>
      <point x="249" y="439" type="curve" smooth="yes"/>
      <point x="321" y="439"/>
      <point x="359" y="403"/>
      <point x="362" y="329" type="curve"/>
      <point x="362" y="315" type="line"/>
      <point x="286" y="315" type="line" smooth="yes"/>
      <point x="126" y="315"/>
      <point x="33" y="251"/>
      <point x="33" y="141" type="curve" smooth="yes"/>
      <point x="33" y="48"/>
      <point x="99" y="-12"/>
      <point x="202" y="-12" type="curve" smooth="yes"/>
      <point x="265" y="-12"/>
      <point x="321" y="12"/>
      <point x="370" y="60" type="curve"/>
      <point x="374" y="53"/>
      <point x="377" y="44"/>
      <point x="377" y="35" type="curve" smooth="yes"/>
      <point x="377" y="11"/>
      <point x="346" y="-13"/>
      <point x="324" y="-30" type="curve" smooth="yes"/>
      <point x="287" y="-58"/>
      <point x="263" y="-95"/>
      <point x="263" y="-132" type="curve" smooth="yes"/>
    </contour>
    <contour>
      <point x="362" y="137" type="line"/>
      <point x="329" y="97"/>
      <point x="273" y="71"/>
      <point x="220" y="71" type="curve" smooth="yes"/>
      <point x="160" y="71"/>
      <point x="127" y="97"/>
      <point x="127" y="143" type="curve" smooth="yes"/>
      <point x="127" y="207"/>
      <point x="187" y="243"/>
      <point x="292" y="243" type="curve" smooth="yes"/>
      <point x="362" y="243" type="line"/>
    </contour>
  </outline>
</glyph>
<glyph name="Dcroat" format="1">
  <advance width="710"/>
  <unicode hex="0110"/>
  <outline>
    <contour>
      <point x="93" y="708" type="line"/>
      <point x="93" y="398" type="line"/>
      <point x="9" y="398" type="line"/>
      <point x="9" y="313" type="line"/>
      <point x="93" y="313" type="line"/>
      <point x="93" y="0" type="line"/>
      <point x="322" y="0" type="line" smooth="yes"/>
      <point x="540" y="0"/>
      <point x="662" y="128"/>
      <point x="662" y="356" type="curve" smooth="yes"/>
      <point x="662" y="584"/>
      <point x="542" y="708"/>
      <point x="322" y="708" type="curve" smooth="yes"/>
    </contour>
    <contour>
      <point x="189" y="85" type="line"/>
      <point x="189" y="313" type="line"/>
      <point x="333" y="313" type="line"/>
      <point x="333" y="398" type="line"/>
      <point x="189" y="398" type="line"/>
      <point x="189" y="623" type="line"/>
      <point x="322" y="623" type="line" smooth="yes"/>
      <point x="479" y="623"/>
      <point x="562" y="531"/>
      <point x="562" y="356" type="curve" smooth="yes"/>
      <point x="562" y="179"/>
      <point x="478" y="85"/>
      <point x="322" y="85" type="curve" smooth="yes"/>
    </contour>
  </outline>
</glyph>
<glyph name="ebreve" format="1">
  <advance width="536"/>
  <unicode hex="0115"/>
  <outline>
    <contour>
      <point x="369" y="573"/>
      <point x="427" y="627"/>
      <point x="427" y="707" type="curve"/>
      <point x="363" y="707" type="line"/>
      <point x="363" y="667"/>
      <point x="330" y="638"/>
      <point x="283" y="638" type="curve" smooth="yes"/>
      <point x="235" y="638"/>
      <point x="204" y="665"/>
      <point x="204" y="707" type="curve"/>
      <point x="140" y="707" type="line"/>
      <point x="140" y="627"/>
      <point x="197" y="573"/>
      <point x="283" y="573" type="curve" smooth="yes"/>
    </contour>
    <contour>
      <point x="498" y="240" type="line"/>
      <point x="498" y="261" type="line" smooth="yes"/>
      <point x="498" y="437"/>
      <point x="428" y="523"/>
      <point x="284" y="523" type="curve" smooth="yes"/>
      <point x="131" y="523"/>
      <point x="43" y="426"/>
      <point x="43" y="258" type="curve" smooth="yes"/>
      <point x="43" y="90"/>
      <point x="133" y="-8"/>
      <point x="287" y="-8" type="curve" smooth="yes"/>
      <point x="350" y="-8"/>
      <point x="410" y="8"/>
      <point x="480" y="42" type="curve"/>
      <point x="450" y="112" type="line"/>
      <point x="389" y="86"/>
      <point x="344" y="75"/>
      <point x="292" y="75" type="curve" smooth="yes"/>
      <point x="198" y="75"/>
      <point x="144" y="133"/>
      <point x="139" y="240" type="curve"/>
    </contour>
    <contour>
      <point x="144" y="319" type="line"/>
      <point x="159" y="399"/>
      <point x="206" y="440"/>
      <point x="284" y="440" type="curve" smooth="yes"/>
      <point x="355" y="440"/>
      <point x="395" y="399"/>
      <point x="401" y="319" type="curve"/>
    </contour>
  </outline>
</glyph>
<glyph name="Eogonek" format="1">
  <advance width="560"/>
  <unicode hex="0118"/>
  <outline>
    <contour>
      <point x="312" y="-198"/>
      <point x="361" y="-225"/>
      <point x="408" y="-225" type="curve" smooth="yes"/>
      <point x="446" y="-225"/>
      <point x="473" y="-215"/>
      <point x="503" y="-199" type="curve"/>
      <point x="489" y="-159" type="line"/>
      <point x="474" y="-165"/>
      <point x="457" y="-169"/>
      <point x="441" y="-169" type="curve" smooth="yes"/>
      <point x="417" y="-169"/>
      <point x="395" y="-154"/>
      <point x="395" y="-121" type="curve" smooth="yes"/>
      <point x="395" y="-67"/>
      <point x="442" y="-35"/>
      <point x="505" y="0" type="curve"/>
      <point x="525" y="0" type="line"/>
      <point x="525" y="85" type="line"/>
      <point x="189" y="85" type="line"/>
      <point x="189" y="328" type="line"/>
      <point x="481" y="328" type="line"/>
      <point x="481" y="413" type="line"/>
      <point x="189" y="413" type="line"/>
      <point x="189" y="623" type="line"/>
      <point x="514" y="623" type="line"/>
      <point x="514" y="708" type="line"/>
      <point x="93" y="708" type="line"/>
      <point x="93" y="0" type="line"/>
      <point x="411" y="0" type="line"/>
      <point x="358" y="-21"/>
      <point x="312" y="-77"/>
      <point x="312" y="-132" type="curve" smooth="yes"/>
    </contour>
  </outline>
</glyph>
<glyph name="Gcircumflex" format="1">
  <advance width="662"/>
  <unicode hex="011C"/>
  <outline>
    <contour>
      <point x="243" y="761" type="line"/>
      <point x="357" y="849" type="line"/>
      <point x="472" y="761" type="line"/>
      <point x="509" y="795" type="line"/>
      <point x="376" y="929" type="line"/>
      <point x="339" y="929" type="line"/>
      <point x="206" y="795" type="line"/>
    </contour>
    <contour>
      <point x="607" y="352" type="line"/>
      <point x="511" y="352" type="line"/>
      <point x="511" y="103" type="line"/>
      <point x="468" y="90"/>
      <point x="423" y="83"/>
      <point x="381" y="83" type="curve" smooth="yes"/>
      <point x="232" y="83"/>
      <point x="148" y="181"/>
      <point x="148" y="356" type="curve" smooth="yes"/>
      <point x="148" y="529"/>
      <point x="233" y="626"/>
      <point x="384" y="626" type="curve" smooth="yes"/>
      <point x="443" y="626"/>
      <point x="498" y="611"/>
      <point x="562" y="579" type="curve"/>
      <point x="602" y="657" type="line"/>
      <point x="535" y="695"/>
      <point x="458" y="716"/>
      <point x="384" y="716" type="curve" smooth="yes"/>
      <point x="173" y="716"/>
      <point x="48" y="582"/>
      <point x="48" y="356" type="curve" smooth="yes"/>
      <point x="48" y="121"/>
      <point x="164" y="-7"/>
      <point x="377" y="-7" type="curve" smooth="yes"/>
      <point x="453" y="-7"/>
      <point x="541" y="12"/>
      <point x="607" y="43" type="curve"/>
    </contour>
  </outline>
</glyph>
<glyph name="gcircumflex" format="1">
  <advance width="521"/>
  <unicode hex="011D"/>
  <outline>
    <contour>
      <point x="148" y="567" type="line"/>
      <point x="262" y="655" type="line"/>
      <point x="377" y="567" type="line"/>
      <point x="414" y="601" type="line"/>
      <point x="281" y="735" type="line"/>
      <point x="244" y="735" type="line"/>
      <point x="111" y="601" type="line"/>
    </contour>
    <contour>
      <point x="229" y="89" type="line" smooth="yes"/>
      <point x="194" y="89"/>
      <point x="175" y="100"/>
      <point x="175" y="125" type="curve" smooth="yes"/>
      <point x="175" y="142"/>
      <point x="191" y="158"/>
      <point x="219" y="174" type="curve"/>
      <point x="231" y="173"/>
      <point x="243" y="172"/>
      <point x="255" y="172" type="curve" smooth="yes"/>
      <point x="384" y="172"/>
      <point x="462" y="234"/>
      <point x="462" y="348" type="curve" smooth="yes"/>
      <point x="462" y="391"/>
      <point x="450" y="427"/>
      <point x="427" y="456" type="curve"/>
      <point x="494" y="542" type="line"/>
      <point x="454" y="582" type="line"/>
      <point x="356" y="506" type="line"/>
      <point x="328" y="517"/>
      <point x="294" y="523"/>
      <point x="255" y="523" type="curve" smooth="yes"/>
      <point x="126" y="523"/>
      <point x="48" y="456"/>
      <point x="48" y="348" type="curve" smooth="yes"/>
      <point x="48" y="272"/>
      <point x="83" y="219"/>
      <point x="144" y="192" type="curve"/>
      <point x="106" y="166"/>
      <point x="82" y="128"/>
      <point x="82" y="91" type="curve" smooth="yes"/>
      <point x="82" y="38"/>
      <point x="123" y="6"/>
      <point x="188" y="6" type="curve" smooth="yes"/>
      <point x="289" y="6" type="line" smooth="yes"/>
      <point x="364" y="6"/>
      <point x="397" y="-18"/>
      <point x="397" y="-73" type="curve" smooth="yes"/>
      <point x="397" y="-131"/>
      <point x="351" y="-154"/>
      <point x="255" y="-154" type="curve" smooth="yes"/>
      <point x="162" y="-154"/>
      <point x="131" y="-125"/>
      <point x="131" y="-74" type="curve" smooth="yes"/>
      <point x="131" y="-57"/>
      <point x="134" y="-41"/>
      <point x="139" y="-26" type="curve"/>
      <point x="105" y="-21"/>
      <point x="75" y="-13"/>
      <point x="52" y="-2" type="curve"/>
      <point x="42" y="-30"/>
      <point x="36" y="-60"/>
      <point x="36" y="-88" type="curve" smooth="yes"/>
      <point x="36" y="-179"/>
      <point x="107" y="-237"/>
      <point x="255" y="-237" type="curve" smooth="yes"/>
      <point x="402" y="-237"/>
      <point x="493" y="-178"/>
      <point x="493" y="-73" type="curve" smooth="yes"/>
      <point x="493" y="31"/>
      <point x="424" y="89"/>
      <point x="300" y="89" type="curve" smooth="yes"/>
    </contour>
    <contour>
      <point x="324" y="440"/>
      <point x="366" y="404"/>
      <point x="366" y="348" type="curve" smooth="yes"/>
      <point x="366" y="286"/>
      <point x="324" y="255"/>
      <point x="255" y="255" type="curve" smooth="yes"/>
      <point x="186" y="255"/>
      <point x="144" y="286"/>
      <point x="144" y="348" type="curve" smooth="yes"/>
      <point x="144" y="404"/>
      <point x="186" y="440"/>
      <point x="255" y="440" type="curve" smooth="yes"/>
    </contour>
  </outline>
</glyph>
<glyph name="hbar" format="1">
  <advance width="591"/>
  <unicode hex="0127"/>
  <outline>
    <contour>
      <point x="177" y="672" type="line"/>
      <point x="177" y="754" type="line"/>
      <point x="83" y="754" type="line"/>
      <point x="83" y="672" type="line"/>
      <point x="17" y="672" type="line"/>
      <point x="17" y="592" type="line"/>
      <point x="83" y="592" type="line"/>
      <point x="83" y="0" type="line"/>
      <point x="177" y="0" type="line"/>
      <point x="177" y="363" type="line"/>
      <point x="209" y="411"/>
      <point x="266" y="440"/>
      <point x="327" y="440" type="curve" smooth="yes"/>
      <point x="396" y="440"/>
      <point x="426" y="407"/>
      <point x="426" y="331" type="curve" smooth="yes"/>
      <point x="426" y="0" type="line"/>
      <point x="520" y="0" type="line"/>
      <point x="520" y="338" type="line" smooth="yes"/>
      <point x="520" y="458"/>
      <point x="461" y="523"/>
      <point x="351" y="523" type="curve" smooth="yes"/>
      <point x="282" y="523"/>
      <point x="224" y="498"/>
      <point x="177" y="448" type="curve"/>
      <point x="177" y="592" type="line"/>
      <point x="321" y="592" type="line"/>
      <point x="321" y="672" type="line"/>
    </contour>
  </outline>
</glyph>
<glyph name="Idotaccent" format="1">
  <advance width="282"/>
  <unicode hex="0130"/>
  <outline>
    <contour>
      <point x="190" y="890" type="line"/>
      <point x="97" y="890" type="line"/>
      <point x="97" y="797" type="line"/>
      <point x="190" y="797" type="line"/>
    </contour>
    <contour>
      <point x="189" y="708" type="line"/>
      <point x="93" y="708" type="line"/>
      <point x="93" y="0" type="line"/>
      <point x="189" y="0" type="line"/>
    </contour>
  </outline>
</glyph>
<glyph name="uni0137" format="1">
  <advance width="528"/>
  <unicode hex="0137"/>
  <outline>
    <contour>
      <point x="177" y="755" type="line"/>
      <point x="83" y="755" type="line"/>
      <point x="83" y="0" type="line"/>
      <point x="177" y="0" type="line"/>
    </contour>
    <contour>
      <point x="380" y="514" type="line"/>
      <point x="190" y="291" type="line"/>
      <point x="412" y="0" type="line"/>
      <point x="527" y="0" type="line"/>
      <point x="304" y="296" type="line"/>
      <point x="491" y="514" type="line"/>
    </contour>
    <contour>
      <point x="244" y="-47" type="line"/>
      <point x="240" y="-107"/>
      <point x="232" y="-152"/>
      <point x="214" y="-215" type="curve"/>
      <point x="274" y="-215" type="line"/>
      <point x="316" y="-139"/>
      <point x="328" y="-105"/>
      <point x="338" y="-47" type="curve"/>
    </contour>
  </outline>
</glyph>
<glyph name="Ldot" format="1">
  <advance width="530"/>
  <unicode hex="013F"/>
  <outline>
    <contour>
      <point x="189" y="708" type="line"/>
      <point x="93" y="708" type="line"/>
      <point x="93" y="0" type="line"/>
      <point x="512" y="0" type="line"/>
      <point x="512" y="85" type="line"/>
      <point x="189" y="85" type="line"/>
    </contour>
    <contour>
      <point x="494" y="438" type="line"/>
      <point x="401" y="438" type="line"/>
      <point x="401" y="345" type="line"/>
      <point x="494" y="345" type="line"/>
    </contour>
  </outline>
</glyph>
<glyph name="eng" format="1">
  <advance width="590"/>
  <unicode hex="014B"/>
  <outline>
    <contour>
      <point x="276" y="523"/>
      <point x="218" y="497"/>
      <point x="169" y="442" type="curve"/>
      <point x="158" y="514" type="line"/>
      <point x="82" y="514" type="line"/>
      <point x="82" y="0" type="line"/>
      <point x="176" y="0" type="line"/>
      <point x="176" y="363" type="line"/>
      <point x="208" y="411"/>
      <point x="265" y="440"/>
      <point x="326" y="440" type="curve" smooth="yes"/>
      <point x="395" y="440"/>
      <point x="425" y="407"/>
      <point x="425" y="331" type="curve" smooth="yes"/>
      <point x="425" y="88" type="line" smooth="yes"/>
      <point x="425" y="20"/>
      <point x="394" y="-46"/>
      <point x="320" y="-138" type="curve"/>
      <point x="374" y="-182" type="line"/>
      <point x="475" y="-90"/>
      <point x="519" y="-9"/>
      <point x="519" y="88" type="curve" smooth="yes"/>
      <point x="519" y="338" type="line" smooth="yes"/>
      <point x="519" y="458"/>
      <point x="460" y="523"/>
      <point x="350" y="523" type="curve" smooth="yes"/>
    </contour>
  </outline>
</glyph>
<glyph name="uni0157" format="1">
  <advance width="381"/>
  <unicode hex="0157"/>
  <outline>
    <contour>
      <point x="157" y="514" type="line"/>
      <point x="82" y="514" type="line"/>
      <point x="82" y="0" type="line"/>
      <point x="176" y="0" type="line"/>
      <point x="176" y="362" type="line"/>
      <point x="203" y="410"/>
      <point x="238" y="430"/>
      <point x="295" y="430" type="curve" smooth="yes"/>
      <point x="311" y="430"/>
      <point x="327" y="427"/>
      <point x="361" y="420" type="curve"/>
      <point x="378" y="512" type="line"/>
      <point x="354" y="519"/>
      <point x="330" y="523"/>
      <point x="311" y="523" type="curve" smooth="yes"/>
      <point x="254" y="523"/>
      <point x="205" y="495"/>
      <point x="169" y="442" type="curve"/>
    </contour>
    <contour>
      <point x="165" y="-47" type="line"/>
      <point x="161" y="-107"/>
      <point x="153" y="-152"/>
      <point x="135" y="-215" type="curve"/>
      <point x="195" y="-215" type="line"/>
      <point x="237" y="-139"/>
      <point x="249" y="-105"/>
      <point x="259" y="-47" type="curve"/>
    </contour>
  </outline>
</glyph>
<glyph name="Tcaron" format="1">
  <advance width="542"/>
  <unicode hex="0164"/>
  <outline>
    <contour>
      <point x="430" y="905" type="line"/>
      <point x="393" y="939" type="line"/>
      <point x="278" y="851" type="line"/>
      <point x="164" y="939" type="line"/>
      <point x="127" y="905" type="line"/>
      <point x="260" y="771" type="line"/>
      <point x="297" y="771" type="line"/>
    </contour>
    <contour>
      <point x="10" y="623" type="line"/>
      <point x="229" y="623" type="line"/>
      <point x="229" y="0" type="line"/>
      <point x="325" y="0" type="line"/>
      <point x="325" y="623" type="line"/>
      <point x="532" y="623" type="line"/>
      <point x="532" y="708" type="line"/>
      <point x="10" y="708" type="line"/>
    </contour>
  </outline>
</glyph>
<glyph name="Ubreve" format="1">
  <advance width="709"/>
  <unicode hex="016C"/>
  <outline>
    <contour>
      <point x="436" y="901" type="line"/>
      <point x="436" y="861"/>
      <point x="403" y="832"/>
      <point x="356" y="832" type="curve" smooth="yes"/>
      <point x="308" y="832"/>
      <point x="277" y="859"/>
      <point x="277" y="901" type="curve"/>
      <point x="213" y="901" type="line"/>
      <point x="213" y="821"/>
      <point x="270" y="767"/>
      <point x="356" y="767" type="curve" smooth="yes"/>
      <point x="442" y="767"/>
      <point x="500" y="821"/>
      <point x="500" y="901" type="curve"/>
    </contour>
    <contour>
      <point x="631" y="708" type="line"/>
      <point x="535" y="708" type="line"/>
      <point x="535" y="238" type="line" smooth="yes"/>
      <point x="535" y="132"/>
      <point x="475" y="80"/>
      <point x="354" y="80" type="curve" smooth="yes"/>
      <point x="233" y="80"/>
      <point x="174" y="132"/>
      <point x="174" y="238" type="curve" smooth="yes"/>
      <point x="174" y="708" type="line"/>
      <point x="78" y="708" type="line"/>
      <point x="78" y="238" type="line" smooth="yes"/>
      <point x="78" y="81"/>
      <point x="178" y="-9"/>
      <point x="354" y="-9" type="curve" smooth="yes"/>
      <point x="529" y="-9"/>
      <point x="631" y="82"/>
      <point x="631" y="238" type="curve" smooth="yes"/>
    </contour>
  </outline>
</glyph>
<glyph name="Zcaron" format="1">
  <advance width="538"/>
  <unicode hex="017D"/>
  <outline>
    <contour>
      <point x="441" y="905" type="line"/>
      <point x="404" y="939" type="line"/>
      <point x="289" y="851" type="line"/>
      <point x="175" y="939" type="line"/>
      <point x="138" y="905" type="line"/>
      <point x="271" y="771" type="line"/>
      <point x="308" y="771" type="line"/>
    </contour>
    <contour>
      <point x="387" y="627" type="line"/>
      <point x="30" y="75" type="line"/>
      <point x="30" y="0" type="line"/>
      <point x="502" y="0" type="line"/>
      <point x="502" y="83" type="line"/>
      <point x="148" y="83" type="line"/>
      <point x="507" y="637" type="line"/>
      <point x="507" y="708" type="line"/>
      <point x="42" y="708" type="line"/>
      <point x="42" y="627" type="line"/>
    </contour>
  </outline>
</glyph>
<glyph name="zcaron" format="1">
  <advance width="453"/>
  <unicode hex="017E"/>
  <outline>
    <contour>
      <point x="394" y="711" type="line"/>
      <point x="357" y="745" type="line"/>
      <point x="242" y="657" type="line"/>
      <point x="128" y="745" type="line"/>
      <point x="91" y="711" type="line"/>
      <point x="224" y="577" type="line"/>
      <point x="261" y="577" type="line"/>
    </contour>
    <contour>
      <point x="294" y="431" type="line"/>
      <point x="30" y="67" type="line"/>
      <point x="30" y="0" type="line"/>
      <point x="425" y="0" type="line"/>
      <point x="425" y="83" type="line"/>
      <point x="148" y="83" type="line"/>
      <point x="414" y="450" type="line"/>
      <point x="414" y="514" type="line"/>
      <point x="44" y="514" type="line"/>
      <point x="44" y="431" type="line"/>
    </contour>
  </outline>
</glyph>
<glyph name="uni0326" format="1">
  <advance width="0"/>
  <unicode hex="0326"/>
  <outline>
    <contour>
      <point x="80" y="-47" type="line"/>
      <point x="76" y="-107"/>
      <point x="68" y="-152"/>
      <point x="50" y="-215" type="curve"/>
      <point x="110" y="-215" type="line"/>
      <point x="152" y="-139"/>
      <point x="164" y="-105"/>
      <point x="174" y="-47" type="curve"/>
    </contour>
    <contour>
      <point x="125" y="0" type="move" name="_class0"/>
    </contour>
    <contour>
      <point x="96" y="0" type="move" name="_class1"/>
    </contour>
  </outline>
</glyph>
<glyph name="candraBindu-deva" format="1">
  <advance width="422"/>
  <unicode hex="0901"/>
  <outline>
    <component base="eCandraMatra-deva"/>
    <component base="nukta-deva" xOffset="143" yOffset="1025"/>
    <contour>
      <point x="213" y="975" type="move" name="top"/>
    </contour>
    <contour>
      <point x="211" y="658" type="move" name="_top"/>
    </contour>
  </outline>
</glyph>
<glyph name="candrabindudeva" format="1">
  <advance width="422"/>
  <unicode hex="0901"/>
  <outline>
    <component base="ecandravowelsigndeva"/>
    <component base="nuktadeva" xOffset="143" yOffset="1025"/>
    <contour>
      <point x="213" y="975" type="move" name="top"/>
    </contour>
    <contour>
      <point x="211" y="658" type="move" name="_top"/>
    </contour>
  </outline>
</glyph>
<glyph name="a-deva" format="1">
  <advance width="788"/>
  <unicode hex="0905"/>
  <outline>
    <contour>
      <point x="248" y="344" type="line"/>
      <point x="313" y="312"/>
      <point x="353" y="270"/>
      <point x="353" y="213" type="curve" smooth="yes"/>
      <point x="353" y="155"/>
      <point x="316" y="106"/>
      <point x="238" y="106" type="curve" smooth="yes"/>
      <point x="179" y="106"/>
      <point x="113" y="148"/>
      <point x="77" y="216" type="curve"/>
      <point x="16" y="182" type="line"/>
      <point x="65" y="85"/>
      <point x="149" y="32"/>
      <point x="238" y="32" type="curve" smooth="yes"/>
      <point x="350" y="32"/>
      <point x="437" y="101"/>
      <point x="437" y="213" type="curve" smooth="yes"/>
      <point x="437" y="299"/>
      <point x="380" y="363"/>
      <point x="286" y="404" type="curve"/>
    </contour>
    <contour>
      <point x="197" y="659"/>
      <point x="142" y="645"/>
      <point x="88" y="625" type="curve" smooth="yes"/>
      <point x="112" y="554" type="line"/>
      <point x="155" y="571"/>
      <point x="201" y="583"/>
      <point x="239" y="583" type="curve" smooth="yes"/>
      <point x="289" y="583"/>
      <point x="326" y="563"/>
      <point x="326" y="508" type="curve"/>
      <point x="326" y="446"/>
      <point x="301" y="412"/>
      <point x="154" y="380" type="curve"/>
      <point x="174" y="309" type="line"/>
      <point x="377" y="354"/>
      <point x="410" y="429"/>
      <point x="410" y="510" type="curve"/>
      <point x="410" y="603"/>
      <point x="341" y="659"/>
      <point x="247" y="659" type="curve" smooth="yes"/>
    </contour>
    <contour>
      <point x="298" y="366" type="line"/>
      <point x="347" y="328"/>
      <point x="421" y="305"/>
      <point x="494" y="305" type="curve"/>
      <point x="555" y="305"/>
      <point x="620" y="316"/>
      <point x="666" y="336" type="curve"/>
      <point x="642" y="410" type="line"/>
      <point x="603" y="389"/>
      <point x="555" y="379"/>
      <point x="494" y="379" type="curve"/>
      <point x="430" y="379"/>
      <point x="371" y="392"/>
      <point x="326" y="416" type="curve"/>
    </contour>
    <contour>
      <point x="592" y="606" type="line"/>
      <point x="592" y="0" type="line"/>
      <point x="677" y="0" type="line"/>
      <point x="677" y="606" type="line"/>
    </contour>
    <contour>
      <point x="464" y="658" type="line"/>
      <point x="464" y="583" type="line"/>
      <point x="806" y="583" type="line"/>
      <point x="806" y="658" type="line"/>
    </contour>
    <contour>
      <point x="635" y="0" type="move" name="bottom"/>
    </contour>
    <contour>
      <point x="635" y="658" type="move" name="top"/>
    </contour>
  </outline>
</glyph>
<glyph name="aadeva" format="1">
  <advance width="1065"/>
  <unicode hex="0906"/>
  <outline>
    <contour>
      <point x="249" y="344" type="line"/>
      <point x="314" y="312"/>
      <point x="354" y="270"/>
      <point x="354" y="213" type="curve" smooth="yes"/>
      <point x="354" y="155"/>
      <point x="317" y="106"/>
      <point x="239" y="106" type="curve"/>
      <point x="180" y="106"/>
      <point x="114" y="148"/>
      <point x="78" y="216" type="curve"/>
      <point x="17" y="182" type="line"/>
      <point x="66" y="85"/>
      <point x="150" y="32"/>
      <point x="239" y="32" type="curve"/>
      <point x="351" y="32"/>
      <point x="438" y="101"/>
      <point x="438" y="213" type="curve" smooth="yes"/>
      <point x="438" y="299"/>
      <point x="381" y="369"/>
      <point x="287" y="410" type="curve"/>
    </contour>
    <contour>
      <point x="168" y="659"/>
      <point x="113" y="645"/>
      <point x="59" y="625" type="curve" smooth="yes"/>
      <point x="83" y="554" type="line"/>
      <point x="126" y="571"/>
      <point x="172" y="583"/>
      <point x="210" y="583" type="curve" smooth="yes"/>
      <point x="260" y="583"/>
      <point x="297" y="563"/>
      <point x="297" y="508" type="curve"/>
      <point x="297" y="446"/>
      <point x="272" y="412"/>
      <point x="125" y="380" type="curve"/>
      <point x="145" y="309" type="line"/>
      <point x="348" y="354"/>
      <point x="381" y="429"/>
      <point x="381" y="510" type="curve"/>
      <point x="381" y="603"/>
      <point x="312" y="659"/>
      <point x="218" y="659" type="curve" smooth="yes"/>
    </contour>
    <contour>
      <point x="269" y="366" type="line"/>
      <point x="318" y="328"/>
      <point x="392" y="305"/>
      <point x="465" y="305" type="curve"/>
      <point x="526" y="305"/>
      <point x="591" y="316"/>
      <point x="637" y="336" type="curve"/>
      <point x="613" y="410" type="line"/>
      <point x="574" y="389"/>
      <point x="526" y="379"/>
      <point x="465" y="379" type="curve"/>
      <point x="401" y="379"/>
      <point x="342" y="392"/>
      <point x="297" y="416" type="curve"/>
    </contour>
    <contour>
      <point x="563" y="606" type="line"/>
      <point x="563" y="0" type="line"/>
      <point x="648" y="0" type="line"/>
      <point x="648" y="606" type="line"/>
    </contour>
    <contour>
      <point x="435" y="658" type="line"/>
      <point x="435" y="583" type="line"/>
      <point x="777" y="583" type="line"/>
      <point x="777" y="658" type="line"/>
    </contour>
    <contour>
      <point x="869" y="606" type="line"/>
      <point x="869" y="0" type="line"/>
      <point x="954" y="0" type="line"/>
      <point x="954" y="606" type="line"/>
    </contour>
    <contour>
      <point x="741" y="658" type="line"/>
      <point x="741" y="583" type="line"/>
      <point x="1083" y="583" type="line"/>
      <point x="1083" y="658" type="line"/>
    </contour>
    <contour>
      <point x="952" y="658" type="move" name="imatra"/>
    </contour>
    <contour>
      <point x="912" y="0" type="move" name="bottom"/>
    </contour>
    <contour>
      <point x="913" y="658" type="move" name="top"/>
    </contour>
  </outline>
</glyph>
<glyph name="iideva" format="1">
  <advance width="513"/>
  <unicode hex="0908"/>
  <outline>
    <component base="ideva"/>
    <component base="uni0930094D" xOffset="172"/>
    <contour>
      <point x="357" y="909" type="move" name="top"/>
    </contour>
    <contour>
      <point x="257" y="-132" type="move" name="bottom"/>
    </contour>
  </outline>
</glyph>
<glyph name="uu-deva" format="1">
  <advance width="752"/>
  <unicode hex="090A"/>
  <outline>
    <contour>
      <point x="484" y="450"/>
      <point x="432" y="413"/>
      <point x="388" y="355" type="curve"/>
      <point x="434" y="294" type="line"/>
      <point x="452" y="332"/>
      <point x="505" y="380"/>
      <point x="558" y="380" type="curve" smooth="yes"/>
      <point x="599" y="380"/>
      <point x="629" y="354"/>
      <point x="629" y="313" type="curve" smooth="yes"/>
      <point x="629" y="272"/>
      <point x="594" y="246"/>
      <point x="553" y="246" type="curve" smooth="yes"/>
      <point x="537" y="246"/>
      <point x="527" y="247"/>
      <point x="517" y="248" type="curve"/>
      <point x="527" y="177" type="line"/>
      <point x="538" y="176"/>
      <point x="544" y="176"/>
      <point x="549" y="176" type="curve" smooth="yes"/>
      <point x="641" y="176"/>
      <point x="709" y="221"/>
      <point x="709" y="313" type="curve" smooth="yes"/>
      <point x="709" y="394"/>
      <point x="647" y="450"/>
      <point x="559" y="450" type="curve" smooth="yes"/>
    </contour>
    <contour>
      <point x="394" y="658" type="line"/>
      <point x="394" y="583" type="line"/>
      <point x="772" y="583" type="line"/>
      <point x="772" y="658" type="line"/>
    </contour>
    <component base="u-deva" xOffset="10"/>
    <contour>
      <point x="327" y="658" type="move" name="top"/>
    </contour>
    <contour>
      <point x="409" y="0" type="move" name="bottom"/>
    </contour>
  </outline>
</glyph>
<glyph name="ocandradeva" format="1">
  <advance width="1065"/>
  <unicode hex="0911"/>
  <outline>
    <component base="aadeva"/>
    <component base="ecandravowelsigndeva" xOffset="702"/>
    <contour>
      <point x="918" y="851" type="move" name="top"/>
    </contour>
    <contour>
      <point x="922" y="0" type="move" name="bottom"/>
    </contour>
  </outline>
</glyph>
<glyph name="oshortdeva" format="1">
  <advance width="1065"/>
  <unicode hex="0912"/>
  <outline>
    <component base="aadeva"/>
    <component base="eshortvowelsigndeva" xOffset="521"/>
    <contour>
      <point x="890" y="819" type="move" name="top"/>
    </contour>
    <contour>
      <point x="890" y="0" type="move" name="bottom"/>
    </contour>
  </outline>
</glyph>
<glyph name="odeva" format="1">
  <advance width="1065"/>
  <unicode hex="0913"/>
  <outline>
    <component base="aadeva"/>
    <component base="evowelsigndeva" xOffset="636"/>
    <contour>
      <point x="950" y="755" type="move" name="top"/>
    </contour>
    <contour>
      <point x="919" y="0" type="move" name="bottom"/>
    </contour>
  </outline>
</glyph>
<glyph name="ka-deva" format="1">
  <advance width="845"/>
  <unicode hex="0915"/>
  <outline>
    <contour>
      <point x="523" y="479"/>
      <point x="462" y="439"/>
      <point x="403" y="339" type="curve"/>
      <point x="461" y="301" type="line"/>
      <point x="504" y="376"/>
      <point x="543" y="404"/>
      <point x="605" y="404" type="curve" smooth="yes"/>
      <point x="668" y="404"/>
      <point x="710" y="362"/>
      <point x="710" y="299" type="curve" smooth="yes"/>
      <point x="710" y="223"/>
      <point x="658" y="188"/>
      <point x="582" y="188" type="curve" smooth="yes"/>
      <point x="557" y="188"/>
      <point x="533" y="193"/>
      <point x="516" y="201" type="curve"/>
      <point x="528" y="126" type="line"/>
      <point x="546" y="118"/>
      <point x="569" y="113"/>
      <point x="595" y="113" type="curve" smooth="yes"/>
      <point x="708" y="113"/>
      <point x="794" y="182"/>
      <point x="794" y="299" type="curve" smooth="yes"/>
      <point x="794" y="403"/>
      <point x="719" y="479"/>
      <point x="615" y="479" type="curve" smooth="yes"/>
    </contour>
    <contour>
      <point x="136" y="479"/>
      <point x="50" y="410"/>
      <point x="50" y="293" type="curve" smooth="yes"/>
      <point x="50" y="189"/>
      <point x="125" y="113"/>
      <point x="229" y="113" type="curve" smooth="yes"/>
      <point x="321" y="113"/>
      <point x="382" y="153"/>
      <point x="441" y="253" type="curve"/>
      <point x="383" y="291" type="line"/>
      <point x="340" y="216"/>
      <point x="301" y="188"/>
      <point x="239" y="188" type="curve" smooth="yes"/>
      <point x="176" y="188"/>
      <point x="134" y="230"/>
      <point x="134" y="293" type="curve" smooth="yes"/>
      <point x="134" y="369"/>
      <point x="186" y="404"/>
      <point x="262" y="404" type="curve" smooth="yes"/>
      <point x="287" y="404"/>
      <point x="311" y="399"/>
      <point x="328" y="391" type="curve"/>
      <point x="316" y="466" type="line"/>
      <point x="298" y="474"/>
      <point x="275" y="479"/>
      <point x="249" y="479" type="curve" smooth="yes"/>
    </contour>
    <contour>
      <point x="380" y="609" type="line"/>
      <point x="380" y="0" type="line"/>
      <point x="465" y="0" type="line"/>
      <point x="465" y="609" type="line"/>
    </contour>
    <contour>
      <point x="-20" y="658" type="line"/>
      <point x="-20" y="583" type="line"/>
      <point x="865" y="583" type="line"/>
      <point x="865" y="658" type="line"/>
    </contour>
    <contour>
      <point x="229" y="0" type="move" name="nukta"/>
    </contour>
    <contour>
      <point x="422" y="0" type="move" name="bottom"/>
    </contour>
    <contour>
      <point x="423" y="658" type="move" name="top"/>
    </contour>
  </outline>
</glyph>
<glyph name="khadeva" format="1">
  <advance width="908"/>
  <unicode hex="0916"/>
  <outline>
    <component base="uni0916094D"/>
    <component base="uni093E" xOffset="602"/>
    <contour>
      <point x="177" y="-50" type="move" name="nukta"/>
    </contour>
    <contour>
      <point x="755" y="0" type="move" name="bottom"/>
    </contour>
    <contour>
      <point x="755" y="658" type="move" name="top"/>
    </contour>
  </outline>
</glyph>
<glyph name="gha-deva" format="1">
  <advance width="654"/>
  <unicode hex="0918"/>
  <outline>
    <component base="gh-deva"/>
    <component base="aaMatra-deva" xOffset="348"/>
    <contour>
      <point x="501" y="658" type="move" name="top"/>
    </contour>
    <contour>
      <point x="501" y="0" type="move" name="bottom"/>
    </contour>
  </outline>
</glyph>
<glyph name="nga-deva" format="1">
  <advance width="631"/>
  <unicode hex="0919"/>
  <outline>
    <contour>
      <point x="509" y="583" type="line"/>
      <point x="651" y="583" type="line"/>
      <point x="651" y="658" type="line"/>
      <point x="509" y="658" type="line"/>
    </contour>
    <component base="dda-deva"/>
    <component base="nukta-deva" xOffset="480" yOffset="490"/>
    <contour>
      <point x="403" y="658" type="move" name="top"/>
    </contour>
    <contour>
      <point x="322" y="0" type="move" name="bottom"/>
    </contour>
  </outline>
</glyph>
<glyph name="ngadeva" format="1">
  <advance width="631"/>
  <unicode hex="0919"/>
  <outline>
    <contour>
      <point x="509" y="583" type="line"/>
      <point x="651" y="583" type="line"/>
      <point x="651" y="658" type="line"/>
      <point x="509" y="658" type="line"/>
    </contour>
    <component base="ddadeva"/>
    <component base="nuktadeva" xOffset="480" yOffset="490"/>
    <contour>
      <point x="403" y="658" type="move" name="top"/>
    </contour>
    <contour>
      <point x="322" y="0" type="move" name="bottom"/>
    </contour>
  </outline>
</glyph>
<glyph name="ca-deva" format="1">
  <advance width="655"/>
  <unicode hex="091A"/>
  <outline>
    <component base="c-deva"/>
    <component base="aaMatra-deva" xOffset="349"/>
    <contour>
      <point x="502" y="658" type="move" name="top"/>
    </contour>
    <contour>
      <point x="502" y="0" type="move" name="bottom"/>
    </contour>
  </outline>
</glyph>
<glyph name="cha-deva" format="1">
  <advance width="743"/>
  <unicode hex="091B"/>
  <outline>
    <contour>
      <point x="495" y="606" type="line"/>
      <point x="495" y="484" type="line"/>
      <point x="580" y="484" type="line"/>
      <point x="580" y="606" type="line"/>
    </contour>
    <component base="ch-deva"/>
    <contour>
      <point x="539" y="658" type="move" name="top"/>
    </contour>
    <contour>
      <point x="380" y="0" type="move" name="bottom"/>
    </contour>
  </outline>
</glyph>
<glyph name="ttha-deva" format="1">
  <advance width="578"/>
  <unicode hex="0920"/>
  <outline>
    <contour>
      <point x="339" y="594" type="line"/>
      <point x="339" y="478" type="line"/>
      <point x="137" y="478"/>
      <point x="45" y="409"/>
      <point x="45" y="259" type="curve" smooth="yes"/>
      <point x="45" y="130"/>
      <point x="147" y="38"/>
      <point x="289" y="38" type="curve" smooth="yes"/>
      <point x="436" y="38"/>
      <point x="533" y="126"/>
      <point x="533" y="259" type="curve" smooth="yes"/>
      <point x="533" y="354"/>
      <point x="475" y="429"/>
      <point x="399" y="479" type="curve"/>
      <point x="365" y="411" type="line"/>
      <point x="438" y="363"/>
      <point x="449" y="319"/>
      <point x="449" y="259" type="curve" smooth="yes"/>
      <point x="449" y="170"/>
      <point x="387" y="113"/>
      <point x="289" y="113" type="curve" smooth="yes"/>
      <point x="195" y="113"/>
      <point x="129" y="174"/>
      <point x="129" y="259" type="curve" smooth="yes"/>
      <point x="129" y="358"/>
      <point x="196" y="403"/>
      <point x="341" y="403" type="curve" smooth="yes"/>
      <point x="423" y="403" type="line"/>
      <point x="423" y="594" type="line"/>
    </contour>
    <contour>
      <point x="-30" y="658" type="line"/>
      <point x="-30" y="583" type="line"/>
      <point x="608" y="583" type="line"/>
      <point x="608" y="658" type="line"/>
    </contour>
    <contour>
      <point x="380" y="658" type="move" name="top"/>
    </contour>
    <contour>
      <point x="289" y="0" type="move" name="bottom"/>
    </contour>
  </outline>
</glyph>
<glyph name="dda-deva" format="1">
  <advance width="562"/>
  <unicode hex="0921"/>
  <outline>
    <contour>
      <point x="205" y="498" type="line" smooth="yes"/>
      <point x="138" y="498"/>
      <point x="99" y="464"/>
      <point x="99" y="406" type="curve" smooth="yes"/>
      <point x="99" y="317"/>
      <point x="152" y="248"/>
      <point x="230" y="248" type="curve" smooth="yes"/>
      <point x="262" y="248"/>
      <point x="345" y="269"/>
      <point x="366" y="269" type="curve" smooth="yes"/>
      <point x="399" y="269"/>
      <point x="419" y="244"/>
      <point x="419" y="202" type="curve" smooth="yes"/>
      <point x="419" y="143"/>
      <point x="355" y="113"/>
      <point x="289" y="113" type="curve" smooth="yes"/>
      <point x="206" y="113"/>
      <point x="158" y="141"/>
      <point x="92" y="225" type="curve"/>
      <point x="33" y="191" type="line"/>
      <point x="96" y="87"/>
      <point x="183" y="38"/>
      <point x="299" y="38" type="curve" smooth="yes"/>
      <point x="415" y="38"/>
      <point x="503" y="115"/>
      <point x="503" y="214" type="curve" smooth="yes"/>
      <point x="503" y="296"/>
      <point x="463" y="344"/>
      <point x="395" y="344" type="curve" smooth="yes"/>
      <point x="375" y="344"/>
      <point x="265" y="323"/>
      <point x="244" y="323" type="curve" smooth="yes"/>
      <point x="207" y="323"/>
      <point x="183" y="347"/>
      <point x="183" y="389" type="curve" smooth="yes"/>
      <point x="183" y="411"/>
      <point x="195" y="423"/>
      <point x="220" y="423" type="curve" smooth="yes"/>
      <point x="443" y="423" type="line"/>
      <point x="368" y="498" type="line"/>
    </contour>
    <contour>
      <point x="-20" y="658" type="line"/>
      <point x="-20" y="583" type="line"/>
      <point x="582" y="583" type="line"/>
      <point x="582" y="658" type="line"/>
    </contour>
    <contour>
      <point x="359" y="599" type="line"/>
      <point x="359" y="455" type="line"/>
      <point x="443" y="423" type="line"/>
      <point x="443" y="599" type="line"/>
    </contour>
    <contour>
      <point x="550" y="387" type="move" name="nukta"/>
    </contour>
    <contour>
      <point x="299" y="0" type="move" name="bottom"/>
    </contour>
    <contour>
      <point x="404" y="658" type="move" name="top"/>
    </contour>
  </outline>
</glyph>
<glyph name="ta-deva" format="1">
  <advance width="605"/>
  <unicode hex="0924"/>
  <outline>
    <component base="t-deva"/>
    <component base="aaMatra-deva" xOffset="299"/>
    <contour>
      <point x="452" y="658" type="move" name="top"/>
    </contour>
    <contour>
      <point x="452" y="0" type="move" name="bottom"/>
    </contour>
  </outline>
</glyph>
<glyph name="tha-deva" format="1">
  <advance width="695"/>
  <unicode hex="0925"/>
  <outline>
    <component base="th-deva"/>
    <component base="aaMatra-deva" xOffset="389"/>
    <contour>
      <point x="542" y="658" type="move" name="top"/>
    </contour>
    <contour>
      <point x="542" y="0" type="move" name="bottom"/>
    </contour>
  </outline>
</glyph>
<glyph name="da-deva" format="1">
  <advance width="520"/>
  <unicode hex="0926"/>
  <outline>
    <contour>
      <point x="327" y="594" type="line"/>
      <point x="327" y="475" type="line"/>
      <point x="251" y="475" type="line" smooth="yes"/>
      <point x="124" y="475"/>
      <point x="43" y="417"/>
      <point x="43" y="290" type="curve" smooth="yes"/>
      <point x="43" y="160"/>
      <point x="147" y="78"/>
      <point x="277" y="78" type="curve" smooth="yes"/>
      <point x="378" y="78"/>
      <point x="460" y="105"/>
      <point x="460" y="159" type="curve" smooth="yes"/>
      <point x="460" y="203"/>
      <point x="410" y="249"/>
      <point x="350" y="249" type="curve" smooth="yes"/>
      <point x="309" y="249"/>
      <point x="294" y="222"/>
      <point x="294" y="197" type="curve" smooth="yes"/>
      <point x="294" y="144"/>
      <point x="317" y="113"/>
      <point x="326" y="96" type="curve"/>
      <point x="452" y="-92" type="line"/>
      <point x="522" y="-48" type="line"/>
      <point x="381" y="153" type="line"/>
      <point x="397" y="181" type="line"/>
      <point x="359" y="160"/>
      <point x="343" y="152"/>
      <point x="287" y="152" type="curve" smooth="yes"/>
      <point x="197" y="152"/>
      <point x="127" y="199"/>
      <point x="127" y="289" type="curve" smooth="yes"/>
      <point x="127" y="361"/>
      <point x="177" y="401"/>
      <point x="249" y="401" type="curve" smooth="yes"/>
      <point x="411" y="401" type="line"/>
      <point x="411" y="594" type="line"/>
    </contour>
    <contour>
      <point x="-30" y="658" type="line"/>
      <point x="-30" y="583" type="line"/>
      <point x="550" y="583" type="line"/>
      <point x="550" y="658" type="line"/>
    </contour>
    <contour>
      <point x="374" y="658" type="move" name="top"/>
    </contour>
    <contour>
      <point x="282" y="0" type="move" name="bottom"/>
    </contour>
  </outline>
</glyph>
<glyph name="dha-deva" format="1">
  <advance width="726"/>
  <unicode hex="0927"/>
  <outline>
    <component base="dh-deva"/>
    <component base="aaMatra-deva" xOffset="420"/>
    <contour>
      <point x="497" y="658" type="move" name="top"/>
    </contour>
    <contour>
      <point x="497" y="0" type="move" name="bottom"/>
    </contour>
  </outline>
</glyph>
<glyph name="nadeva" format="1">
  <advance width="595"/>
  <unicode hex="0928"/>
  <outline>
    <component base="uni0928094D"/>
    <component base="uni093E" xOffset="289"/>
    <contour>
      <point x="442" y="658" type="move" name="top"/>
    </contour>
    <contour>
      <point x="442" y="0" type="move" name="bottom"/>
    </contour>
  </outline>
</glyph>
<glyph name="nnnadeva" format="1">
  <advance width="595"/>
  <unicode hex="0929"/>
  <outline>
    <component base="uni0929094D"/>
    <component base="uni093E" xOffset="289"/>
    <contour>
      <point x="453" y="657" type="move" name="top"/>
    </contour>
    <contour>
      <point x="451" y="0" type="move" name="bottom"/>
    </contour>
  </outline>
</glyph>
<glyph name="ma-deva" format="1">
  <advance width="606"/>
  <unicode hex="092E"/>
  <outline>
    <component base="m-deva"/>
    <component base="aaMatra-deva" xOffset="300"/>
    <contour>
      <point x="453" y="658" type="move" name="top"/>
    </contour>
    <contour>
      <point x="453" y="0" type="move" name="bottom"/>
    </contour>
  </outline>
</glyph>
<glyph name="madeva" format="1">
  <advance width="606"/>
  <unicode hex="092E"/>
  <outline>
    <component base="uni092E094D"/>
    <component base="uni093E" xOffset="300"/>
    <contour>
      <point x="453" y="658" type="move" name="top"/>
    </contour>
    <contour>
      <point x="453" y="0" type="move" name="bottom"/>
    </contour>
  </outline>
</glyph>
<glyph name="ya-deva" format="1">
  <advance width="606"/>
  <unicode hex="092F"/>
  <outline>
    <component base="y-deva"/>
    <component base="aaMatra-deva" xOffset="300"/>
    <contour>
      <point x="125" y="23" type="move" name="nukta"/>
    </contour>
    <contour>
      <point x="453" y="0" type="move" name="bottom"/>
    </contour>
    <contour>
      <point x="453" y="658" type="move" name="top"/>
    </contour>
  </outline>
</glyph>
<glyph name="rradeva" format="1">
  <advance width="396"/>
  <unicode hex="0931"/>
  <outline>
    <component base="radeva"/>
    <component base="nuktadeva" xOffset="8" yOffset="103"/>
    <contour>
      <point x="198" y="658" type="move" name="top"/>
    </contour>
    <contour>
      <point x="198" y="0" type="move" name="bottom"/>
    </contour>
  </outline>
</glyph>
<glyph name="lladeva" format="1">
  <advance width="823"/>
  <unicode hex="0933"/>
  <outline>
    <contour>
      <point x="533" y="609" type="line"/>
      <point x="533" y="450" type="line"/>
      <point x="618" y="450" type="line"/>
      <point x="618" y="609" type="line"/>
    </contour>
    <component base="uni0933094D"/>
    <contour>
      <point x="404" y="0" type="move" name="nukta"/>
    </contour>
    <contour>
      <point x="412" y="30" type="move" name="bottom"/>
    </contour>
    <contour>
      <point x="576" y="658" type="move" name="top"/>
    </contour>
  </outline>
</glyph>
<glyph name="llla-deva" format="1">
  <advance width="823"/>
  <unicode hex="0934"/>
  <outline>
    <component base="lla-deva"/>
    <component base="nukta-deva" xOffset="334" yOffset="103"/>
    <contour>
      <point x="580" y="658" type="move" name="top"/>
    </contour>
    <contour>
      <point x="412" y="0" type="move" name="bottom"/>
    </contour>
  </outline>
</glyph>
<glyph name="va-deva" format="1">
  <advance width="577"/>
  <unicode hex="0935"/>
  <outline>
    <component base="v-deva"/>
    <component base="aaMatra-deva" xOffset="271"/>
    <contour>
      <point x="424" y="658" type="move" name="top"/>
    </contour>
    <contour>
      <point x="424" y="0" type="move" name="bottom"/>
    </contour>
  </outline>
</glyph>
<glyph name="ooeMatra-deva" format="1">
  <advance width="305"/>
  <unicode hex="093B"/>
  <outline>
    <contour>
      <point x="110" y="805" type="line"/>
      <point x="110" y="0" type="line"/>
      <point x="195" y="0" type="line"/>
      <point x="195" y="805" type="line"/>
    </contour>
    <contour>
      <point x="-3" y="658" type="line"/>
      <point x="-3" y="583" type="line"/>
      <point x="310" y="583" type="line"/>
      <point x="310" y="658" type="line"/>
    </contour>
  </outline>
</glyph>
<glyph name="avagrahadeva" format="1">
  <advance width="500"/>
  <unicode hex="093D"/>
  <outline>
    <contour>
      <point x="408" y="357"/>
      <point x="304" y="400" type="curve" smooth="yes"/>
      <point x="224" y="433"/>
      <point x="198" y="460"/>
      <point x="198" y="516" type="curve" smooth="yes"/>
      <point x="198" y="561"/>
      <point x="230" y="584"/>
      <point x="293" y="584" type="curve" smooth="yes"/>
      <point x="437" y="584" type="line"/>
      <point x="437" y="658" type="line"/>
      <point x="293" y="658" type="line" smooth="yes"/>
      <point x="184" y="658"/>
      <point x="113" y="603"/>
      <point x="113" y="516" type="curve" smooth="yes"/>
      <point x="113" y="435"/>
      <point x="156" y="380"/>
      <point x="248" y="341" type="curve" smooth="yes"/>
      <point x="329" y="307"/>
      <point x="364" y="265"/>
      <point x="364" y="203" type="curve" smooth="yes"/>
      <point x="364" y="143"/>
      <point x="320" y="106"/>
      <point x="249" y="106" type="curve" smooth="yes"/>
      <point x="187" y="106"/>
      <point x="121" y="146"/>
      <point x="87" y="205" type="curve"/>
      <point x="27" y="166" type="line"/>
      <point x="76" y="82"/>
      <point x="158" y="32"/>
      <point x="249" y="32" type="curve" smooth="yes"/>
      <point x="371" y="32"/>
      <point x="449" y="98"/>
      <point x="449" y="203" type="curve" smooth="yes"/>
      <point x="449" y="300"/>
    </contour>
  </outline>
</glyph>
<glyph name="uMatra-deva" format="1">
  <advance width="375"/>
  <unicode hex="0941"/>
  <outline>
    <contour>
      <point x="199" y="21"/>
      <point x="159" y="9"/>
      <point x="134" y="-10" type="curve"/>
      <point x="186" y="-70" type="line"/>
      <point x="203" y="-56"/>
      <point x="225" y="-48"/>
      <point x="246" y="-48" type="curve" smooth="yes"/>
      <point x="275" y="-48"/>
      <point x="287" y="-60"/>
      <point x="287" y="-84" type="curve" smooth="yes"/>
      <point x="287" y="-117"/>
      <point x="255" y="-145"/>
      <point x="210" y="-144" type="curve" smooth="yes"/>
      <point x="163" y="-145"/>
      <point x="124" y="-127"/>
      <point x="97" y="-94" type="curve"/>
      <point x="50" y="-137" type="line"/>
      <point x="96" y="-189"/>
      <point x="147" y="-212"/>
      <point x="219" y="-212" type="curve" smooth="yes"/>
      <point x="310" y="-213"/>
      <point x="364" y="-165"/>
      <point x="364" y="-90" type="curve" smooth="yes"/>
      <point x="364" y="-26"/>
      <point x="311" y="21"/>
      <point x="238" y="21" type="curve" smooth="yes"/>
    </contour>
    <contour>
      <point x="238" y="0" type="move" name="_bottom"/>
    </contour>
  </outline>
</glyph>
<glyph name="uuMatra-deva" format="1">
  <advance width="484"/>
  <unicode hex="0942"/>
  <outline>
    <component base="uMatra-deva" xOffset="484" yOffset="-223" xScale="-1" yScale="-1"/>
    <contour>
      <point x="192" y="0" type="move" name="_bottom"/>
    </contour>
  </outline>
</glyph>
<glyph name="rVocalicMatra-deva" format="1">
  <advance width="299"/>
  <unicode hex="0943"/>
  <outline>
    <contour>
      <point x="229" y="-169"/>
      <point x="198" y="-169" type="curve" smooth="yes"/>
      <point x="160" y="-169"/>
      <point x="142" y="-150"/>
      <point x="142" y="-117" type="curve" smooth="yes"/>
      <point x="142" y="-61"/>
      <point x="218" y="-51"/>
      <point x="270" y="-51" type="curve"/>
      <point x="254" y="21" type="line"/>
      <point x="167" y="21"/>
      <point x="58" y="-16"/>
      <point x="58" y="-118" type="curve" smooth="yes"/>
      <point x="58" y="-181"/>
      <point x="96" y="-245"/>
      <point x="190" y="-245" type="curve" smooth="yes"/>
      <point x="234" y="-245"/>
      <point x="293" y="-227"/>
      <point x="336" y="-191" type="curve"/>
      <point x="302" y="-128" type="line"/>
      <point x="264" y="-152"/>
    </contour>
    <contour>
      <point x="212" y="0" type="move" name="_bottom"/>
    </contour>
  </outline>
</glyph>
<glyph name="ecandravowelsigndeva" format="1">
  <advance width="422"/>
  <unicode hex="0945"/>
  <outline>
    <contour>
      <point x="306" y="885" type="line"/>
      <point x="286" y="826"/>
      <point x="258" y="801"/>
      <point x="211" y="801" type="curve" smooth="yes"/>
      <point x="164" y="801"/>
      <point x="136" y="826"/>
      <point x="116" y="885" type="curve"/>
      <point x="50" y="865" type="line"/>
      <point x="76" y="775"/>
      <point x="129" y="731"/>
      <point x="211" y="731" type="curve" smooth="yes"/>
      <point x="293" y="731"/>
      <point x="346" y="775"/>
      <point x="372" y="865" type="curve"/>
    </contour>
    <contour>
      <point x="211" y="871" type="move" name="top"/>
    </contour>
    <contour>
      <point x="211" y="658" type="move" name="_top"/>
    </contour>
  </outline>
</glyph>
<glyph name="awMatra-deva" format="1">
  <advance width="305"/>
  <unicode hex="094F"/>
  <outline>
    <contour>
      <point x="-230" y="935" type="line"/>
      <point x="-185" y="842"/>
      <point x="-135" y="820"/>
      <point x="-41" y="804" type="curve" smooth="yes"/>
      <point x="44" y="788"/>
      <point x="89" y="775"/>
      <point x="112" y="692" type="curve"/>
      <point x="126" y="639" type="line"/>
      <point x="191" y="643" type="line"/>
      <point x="191" y="772"/>
      <point x="133" y="843"/>
      <point x="-17" y="870" type="curve" smooth="yes"/>
      <point x="-93" y="882"/>
      <point x="-120" y="894"/>
      <point x="-156" y="967" type="curve"/>
    </contour>
    <contour>
      <point x="-273" y="771" type="line"/>
      <point x="-219" y="714"/>
      <point x="-175" y="696"/>
      <point x="-115" y="696" type="curve" smooth="yes"/>
      <point x="-87" y="696"/>
      <point x="-17" y="706"/>
      <point x="10" y="706" type="curve" smooth="yes"/>
      <point x="59" y="706"/>
      <point x="92" y="692"/>
      <point x="126" y="639" type="curve"/>
      <point x="191" y="643" type="line"/>
      <point x="118" y="767" type="line"/>
      <point x="-107" y="767" type="line"/>
      <point x="-145" y="768"/>
      <point x="-171" y="782"/>
      <point x="-211" y="824" type="curve"/>
    </contour>
    <component base="aaMatra-deva"/>
    <contour>
      <point x="147" y="842" type="move" name="top"/>
    </contour>
  </outline>
</glyph>
<glyph name="grave-deva" format="1">
  <advance width="273"/>
  <unicode hex="0953"/>
  <outline>
    <contour>
      <point x="253" y="734" type="line"/>
      <point x="82" y="948" type="line"/>
      <point x="20" y="904" type="line"/>
      <point x="198" y="698" type="line"/>
    </contour>
  </outline>
</glyph>
<glyph name="qa-deva" format="1">
  <advance width="845"/>
  <unicode hex="0958"/>
  <outline>
    <component base="ka-deva"/>
    <component base="nukta-deva" xOffset="159" yOffset="103"/>
    <contour>
      <point x="428" y="658" type="move" name="top"/>
    </contour>
    <contour>
      <point x="424" y="0" type="move" name="bottom"/>
    </contour>
  </outline>
</glyph>
<glyph name="dddha-deva" format="1">
  <advance width="562"/>
  <unicode hex="095C"/>
  <outline>
    <component base="dda-deva"/>
    <component base="nukta-deva" xOffset="480" yOffset="490"/>
    <contour>
      <point x="402" y="658" type="move" name="top"/>
    </contour>
    <contour>
      <point x="281" y="0" type="move" name="bottom"/>
    </contour>
  </outline>
</glyph>
<glyph name="rhadeva" format="1">
  <advance width="568"/>
  <unicode hex="095D"/>
  <outline>
    <component base="ddhadeva"/>
    <component base="nuktadeva" xOffset="239"/>
    <contour>
      <point x="403" y="658" type="move" name="top"/>
    </contour>
    <contour>
      <point x="284" y="0" type="move" name="bottom"/>
    </contour>
  </outline>
</glyph>
<glyph name="fadeva" format="1">
  <advance width="822"/>
  <unicode hex="095E"/>
  <outline>
    <component base="uni092B"/>
    <component base="nuktadeva" xOffset="145" yOffset="176"/>
    <contour>
      <point x="411" y="658" type="move" name="top"/>
    </contour>
    <contour>
      <point x="411" y="0" type="move" name="bottom"/>
    </contour>
  </outline>
</glyph>
<glyph name="lvocalicvowelsigndeva" format="1">
  <advance width="497"/>
  <unicode hex="0962"/>
  <outline>
    <contour>
      <point x="257" y="62"/>
      <point x="207" y="10"/>
      <point x="207" y="-82" type="curve"/>
      <point x="274" y="-82" type="line"/>
      <point x="274" y="-32"/>
      <point x="298" y="-1"/>
      <point x="335" y="-1" type="curve" smooth="yes"/>
      <point x="360" y="-1"/>
      <point x="375" y="-13"/>
      <point x="375" y="-35" type="curve" smooth="yes"/>
      <point x="375" y="-98"/>
      <point x="296" y="-90"/>
      <point x="296" y="-180" type="curve" smooth="yes"/>
      <point x="296" y="-237"/>
      <point x="341" y="-269"/>
      <point x="403" y="-269" type="curve" smooth="yes"/>
      <point x="427" y="-269"/>
      <point x="453" y="-264"/>
      <point x="477" y="-254" type="curve"/>
      <point x="462" y="-197" type="line"/>
      <point x="443" y="-204"/>
      <point x="426" y="-207"/>
      <point x="413" y="-207" type="curve" smooth="yes"/>
      <point x="387" y="-207"/>
      <point x="366" y="-195"/>
      <point x="366" y="-176" type="curve" smooth="yes"/>
      <point x="366" y="-128"/>
      <point x="452" y="-131"/>
      <point x="452" y="-38" type="curve" smooth="yes"/>
      <point x="452" y="21"/>
      <point x="408" y="62"/>
      <point x="341" y="62" type="curve" smooth="yes"/>
    </contour>
    <contour>
      <point x="64" y="63"/>
      <point x="20" y="22"/>
      <point x="20" y="-51" type="curve" smooth="yes"/>
      <point x="20" y="-101"/>
      <point x="40" y="-167"/>
      <point x="79" y="-245" type="curve"/>
      <point x="148" y="-213" type="line"/>
      <point x="115" y="-156"/>
      <point x="97" y="-102"/>
      <point x="97" y="-57" type="curve" smooth="yes"/>
      <point x="97" y="-20"/>
      <point x="115" y="-1"/>
      <point x="146" y="-1" type="curve" smooth="yes"/>
      <point x="176" y="-1"/>
      <point x="195" y="-33"/>
      <point x="195" y="-82" type="curve"/>
      <point x="257" y="-82" type="line"/>
      <point x="257" y="8"/>
      <point x="213" y="63"/>
      <point x="144" y="63" type="curve" smooth="yes"/>
    </contour>
    <contour>
      <point x="233" y="0" type="move" name="_bottom"/>
    </contour>
    <contour>
      <point x="238" y="658" type="move" name="top"/>
    </contour>
  </outline>
</glyph>
<glyph name="danda-deva" format="1">
  <advance width="305"/>
  <unicode hex="0964"/>
  <outline>
    <contour>
      <point x="110" y="688" type="line"/>
      <point x="110" y="-48" type="line"/>
      <point x="195" y="-48" type="line"/>
      <point x="195" y="688" type="line"/>
    </contour>
  </outline>
</glyph>
<glyph name="onedeva" format="1">
  <advance width="530"/>
  <unicode hex="0967"/>
  <outline>
    <contour>
      <point x="216" y="440" type="line"/>
      <point x="176" y="455"/>
      <point x="157" y="481"/>
      <point x="157" y="516" type="curve" smooth="yes"/>
      <point x="157" y="561"/>
      <point x="191" y="589"/>
      <point x="242" y="589" type="curve" smooth="yes"/>
      <point x="293" y="589"/>
      <point x="327" y="552"/>
      <point x="327" y="506" type="curve" smooth="yes"/>
      <point x="326" y="461"/>
      <point x="296" y="410"/>
      <point x="259" y="375" type="curve" smooth="yes"/>
      <point x="140" y="261" type="line"/>
      <point x="302" y="144" type="line" smooth="yes"/>
      <point x="334" y="121"/>
      <point x="348" y="98"/>
      <point x="348" y="67" type="curve" smooth="yes"/>
      <point x="348" y="51"/>
      <point x="344" y="34"/>
      <point x="339" y="13" type="curve"/>
      <point x="419" y="-15" type="line"/>
      <point x="426" y="18"/>
      <point x="431" y="47"/>
      <point x="431" y="72" type="curve" smooth="yes"/>
      <point x="431" y="119"/>
      <point x="415" y="157"/>
      <point x="364" y="194" type="curve" smooth="yes"/>
      <point x="262" y="267" type="line"/>
      <point x="351" y="340"/>
      <point x="411" y="437"/>
      <point x="411" y="506" type="curve" smooth="yes"/>
      <point x="411" y="596"/>
      <point x="343" y="663"/>
      <point x="247" y="663" type="curve" smooth="yes"/>
      <point x="146" y="663"/>
      <point x="73" y="611"/>
      <point x="73" y="516" type="curve" smooth="yes"/>
      <point x="73" y="454"/>
      <point x="114" y="401"/>
      <point x="172" y="374" type="curve"/>
    </contour>
  </outline>
</glyph>
<glyph name="threedeva" format="1">
  <advance width="530"/>
  <unicode hex="0969"/>
  <outline>
    <contour>
      <point x="187" y="666"/>
      <point x="124" y="654"/>
      <point x="69" y="632" type="curve"/>
      <point x="91" y="560" type="line"/>
      <point x="143" y="580"/>
      <point x="198" y="591"/>
      <point x="243" y="591" type="curve" smooth="yes"/>
      <point x="308" y="591"/>
      <point x="340" y="571"/>
      <point x="340" y="530" type="curve"/>
      <point x="340" y="473"/>
      <point x="295" y="434"/>
      <point x="148" y="419" type="curve"/>
      <point x="169" y="344" type="line"/>
      <point x="336" y="351"/>
      <point x="428" y="417"/>
      <point x="428" y="532" type="curve"/>
      <point x="428" y="618"/>
      <point x="363" y="666"/>
      <point x="245" y="666" type="curve" smooth="yes"/>
    </contour>
    <contour>
      <point x="71" y="257"/>
      <point x="48" y="236"/>
      <point x="48" y="197" type="curve" smooth="yes"/>
      <point x="48" y="142"/>
      <point x="103" y="110"/>
      <point x="198" y="110" type="curve" smooth="yes"/>
      <point x="231" y="110"/>
      <point x="207" y="110"/>
      <point x="239" y="110" type="curve"/>
      <point x="253" y="172" type="line"/>
      <point x="207" y="234"/>
      <point x="169" y="257"/>
      <point x="114" y="257" type="curve" smooth="yes"/>
    </contour>
    <contour>
      <point x="180" y="134" type="line"/>
      <point x="351" y="-59" type="line"/>
      <point x="413" y="-7" type="line"/>
      <point x="253" y="172" type="line"/>
    </contour>
    <contour>
      <point x="270" y="382" type="line"/>
      <point x="334" y="350"/>
      <point x="362" y="316"/>
      <point x="362" y="271" type="curve" smooth="yes"/>
      <point x="362" y="216"/>
      <point x="307" y="181"/>
      <point x="220" y="181" type="curve"/>
      <point x="220" y="106" type="line"/>
      <point x="368" y="106"/>
      <point x="450" y="165"/>
      <point x="450" y="271" type="curve" smooth="yes"/>
      <point x="450" y="344"/>
      <point x="398" y="407"/>
      <point x="305" y="446" type="curve"/>
    </contour>
  </outline>
</glyph>
<glyph name="fourdeva" format="1">
  <advance width="530"/>
  <unicode hex="096A"/>
  <outline>
    <contour>
      <point x="405" y="652" type="line"/>
      <point x="405" y="624" type="line" smooth="yes"/>
      <point x="405" y="572"/>
      <point x="398" y="549"/>
      <point x="369" y="522" type="curve" smooth="yes"/>
      <point x="180" y="346" type="line" smooth="yes"/>
      <point x="115" y="281"/>
      <point x="99" y="253"/>
      <point x="99" y="205" type="curve" smooth="yes"/>
      <point x="99" y="126"/>
      <point x="171" y="66"/>
      <point x="265" y="66" type="curve"/>
      <point x="359" y="66"/>
      <point x="431" y="126"/>
      <point x="431" y="205" type="curve" smooth="yes"/>
      <point x="431" y="253"/>
      <point x="415" y="281"/>
      <point x="350" y="346" type="curve" smooth="yes"/>
      <point x="161" y="522" type="line" smooth="yes"/>
      <point x="132" y="549"/>
      <point x="125" y="572"/>
      <point x="125" y="624" type="curve" smooth="yes"/>
      <point x="125" y="652" type="line"/>
      <point x="41" y="662" type="line"/>
      <point x="41" y="626" type="line" smooth="yes"/>
      <point x="42" y="548"/>
      <point x="56" y="512"/>
      <point x="105" y="466" type="curve" smooth="yes"/>
      <point x="290" y="293" type="line" smooth="yes"/>
      <point x="334" y="253"/>
      <point x="347" y="232"/>
      <point x="347" y="205" type="curve" smooth="yes"/>
      <point x="347" y="169"/>
      <point x="311" y="140"/>
      <point x="265" y="140" type="curve"/>
      <point x="219" y="140"/>
      <point x="183" y="169"/>
      <point x="183" y="205" type="curve" smooth="yes"/>
      <point x="183" y="232"/>
      <point x="196" y="253"/>
      <point x="240" y="293" type="curve" smooth="yes"/>
      <point x="425" y="466" type="line" smooth="yes"/>
      <point x="474" y="512"/>
      <point x="488" y="548"/>
      <point x="489" y="626" type="curve" smooth="yes"/>
      <point x="489" y="662" type="line"/>
    </contour>
  </outline>
</glyph>
<glyph name="fivedeva" format="1">
  <advance width="530"/>
  <unicode hex="096B"/>
  <outline>
    <contour>
      <point x="156" y="681" type="line"/>
      <point x="68" y="615"/>
      <point x="17" y="520"/>
      <point x="17" y="434" type="curve" smooth="yes"/>
      <point x="17" y="311"/>
      <point x="117" y="241"/>
      <point x="238" y="241" type="curve" smooth="yes"/>
      <point x="347" y="241"/>
      <point x="447" y="304"/>
      <point x="447" y="372" type="curve" smooth="yes"/>
      <point x="447" y="419"/>
      <point x="394" y="462"/>
      <point x="337" y="462" type="curve" smooth="yes"/>
      <point x="303" y="462"/>
      <point x="281" y="442"/>
      <point x="281" y="410" type="curve" smooth="yes"/>
      <point x="281" y="382"/>
      <point x="287" y="363"/>
      <point x="313" y="306" type="curve" smooth="yes"/>
      <point x="455" y="0" type="line"/>
      <point x="528" y="38" type="line"/>
      <point x="395" y="336" type="line"/>
      <point x="384" y="366" type="line"/>
      <point x="320" y="330"/>
      <point x="275" y="315"/>
      <point x="234" y="315" type="curve" smooth="yes"/>
      <point x="157" y="315"/>
      <point x="102" y="361"/>
      <point x="102" y="437" type="curve" smooth="yes"/>
      <point x="102" y="502"/>
      <point x="145" y="575"/>
      <point x="215" y="630" type="curve"/>
    </contour>
  </outline>
</glyph>
<glyph name="ninedeva" format="1">
  <advance width="530"/>
  <unicode hex="096F"/>
  <outline>
    <contour>
      <point x="431" y="-16" type="line"/>
      <point x="442" y="5"/>
      <point x="450" y="29"/>
      <point x="452" y="55" type="curve" smooth="yes"/>
      <point x="452" y="115"/>
      <point x="432" y="146"/>
      <point x="367" y="213" type="curve" smooth="yes"/>
      <point x="226" y="358" type="line" smooth="yes"/>
      <point x="171" y="415"/>
      <point x="147" y="458"/>
      <point x="147" y="501" type="curve" smooth="yes"/>
      <point x="147" y="554"/>
      <point x="187" y="589"/>
      <point x="239" y="589" type="curve" smooth="yes"/>
      <point x="299" y="589"/>
      <point x="337" y="557"/>
      <point x="337" y="497" type="curve" smooth="yes"/>
      <point x="337" y="431"/>
      <point x="289" y="390"/>
      <point x="199" y="381" type="curve"/>
      <point x="199" y="307" type="line"/>
      <point x="329" y="316"/>
      <point x="421" y="387"/>
      <point x="421" y="497" type="curve" smooth="yes"/>
      <point x="421" y="602"/>
      <point x="344" y="663"/>
      <point x="239" y="663" type="curve" smooth="yes"/>
      <point x="141" y="663"/>
      <point x="63" y="598"/>
      <point x="63" y="501" type="curve" smooth="yes"/>
      <point x="63" y="440"/>
      <point x="92" y="383"/>
      <point x="161" y="311" type="curve" smooth="yes"/>
      <point x="303" y="165" type="line" smooth="yes"/>
      <point x="348" y="119"/>
      <point x="368" y="92"/>
      <point x="368" y="60" type="curve" smooth="yes"/>
      <point x="368" y="43"/>
      <point x="361" y="27"/>
      <point x="354" y="12" type="curve"/>
    </contour>
  </outline>
</glyph>
<glyph name="abbreviationsigndeva" format="1">
  <advance width="479"/>
  <unicode hex="0970"/>
  <outline>
    <contour>
      <point x="130" y="488"/>
      <point x="52" y="411"/>
      <point x="52" y="301" type="curve" smooth="yes"/>
      <point x="52" y="191"/>
      <point x="130" y="113"/>
      <point x="240" y="113" type="curve" smooth="yes"/>
      <point x="350" y="113"/>
      <point x="427" y="191"/>
      <point x="427" y="301" type="curve" smooth="yes"/>
      <point x="427" y="411"/>
      <point x="350" y="488"/>
      <point x="240" y="488" type="curve" smooth="yes"/>
    </contour>
    <contour>
      <point x="307" y="416"/>
      <point x="355" y="368"/>
      <point x="355" y="301" type="curve" smooth="yes"/>
      <point x="355" y="233"/>
      <point x="307" y="185"/>
      <point x="240" y="185" type="curve" smooth="yes"/>
      <point x="172" y="185"/>
      <point x="124" y="233"/>
      <point x="124" y="301" type="curve" smooth="yes"/>
      <point x="124" y="368"/>
      <point x="172" y="416"/>
      <point x="240" y="416" type="curve" smooth="yes"/>
    </contour>
  </outline>
</glyph>
<glyph name="uni0972" format="1">
  <advance width="769"/>
  <unicode hex="0972"/>
  <outline>
    <component base="adeva"/>
    <component base="ecandravowelsigndeva" xOffset="405"/>
    <contour>
      <point x="617" y="859" type="move" name="top"/>
    </contour>
    <contour>
      <point x="617" y="0" type="move" name="bottom"/>
    </contour>
  </outline>
</glyph>
<glyph name="uni0974" format="1">
  <advance width="1074"/>
  <unicode hex="0974"/>
  <outline>
    <component base="adeva"/>
    <component base="uni093B" xOffset="769"/>
    <contour>
      <point x="921" y="799" type="move" name="top"/>
    </contour>
    <contour>
      <point x="921" y="0" type="move" name="bottom"/>
    </contour>
  </outline>
</glyph>
<glyph name="aw-deva" format="1">
  <advance width="1074"/>
  <unicode hex="0975"/>
  <outline>
    <component base="a-deva"/>
    <component base="awMatra-deva" xOffset="769"/>
    <contour>
      <point x="916" y="666" type="move" name="top"/>
    </contour>
    <contour>
      <point x="919" y="0" type="move" name="bottom"/>
    </contour>
  </outline>
</glyph>
<glyph name="uni0975" format="1">
  <advance width="1074"/>
  <unicode hex="0975"/>
  <outline>
    <component base="adeva"/>
    <component base="uni094F" xOffset="769"/>
    <contour>
      <point x="916" y="666" type="move" name="top"/>
    </contour>
    <contour>
      <point x="919" y="0" type="move" name="bottom"/>
    </contour>
  </outline>
</glyph>
<glyph name="uni0979" format="1">
  <advance width="771"/>
  <unicode hex="0979"/>
  <outline>
    <component base="jadeva"/>
    <component base="anusvaradeva" xOffset="225" yOffset="-897"/>
    <component base="anusvaradeva" xOffset="134" yOffset="-763"/>
    <component base="anusvaradeva" xOffset="314" yOffset="-763"/>
    <contour>
      <point x="619" y="657" type="move" name="top"/>
    </contour>
    <contour>
      <point x="618" y="0" type="move" name="bottom"/>
    </contour>
  </outline>
</glyph>
<glyph name="gga-deva" format="1">
  <advance width="591"/>
  <unicode hex="097B"/>
  <outline>
    <contour>
      <point x="72" y="-75" type="line"/>
      <point x="481" y="-75" type="line"/>
      <point x="481" y="0" type="line"/>
      <point x="72" y="0" type="line"/>
    </contour>
    <contour>
      <point x="396" y="606" type="line"/>
      <point x="396" y="0" type="line"/>
      <point x="481" y="0" type="line"/>
      <point x="481" y="606" type="line"/>
    </contour>
    <contour>
      <point x="268" y="658" type="line"/>
      <point x="268" y="583" type="line"/>
      <point x="610" y="583" type="line"/>
      <point x="610" y="658" type="line"/>
    </contour>
    <component base="g-deva"/>
    <contour>
      <point x="479" y="658" type="move" name="imatra"/>
    </contour>
    <contour>
      <point x="161" y="72" type="move" name="nukta"/>
    </contour>
    <contour>
      <point x="439" y="657" type="move" name="top"/>
    </contour>
    <contour>
      <point x="438" y="0" type="move" name="bottom"/>
    </contour>
  </outline>
</glyph>
<glyph name="uni097B" format="1">
  <advance width="591"/>
  <unicode hex="097B"/>
  <outline>
    <contour>
      <point x="72" y="-75" type="line"/>
      <point x="481" y="-75" type="line"/>
      <point x="481" y="0" type="line"/>
      <point x="72" y="0" type="line"/>
    </contour>
    <contour>
      <point x="199" y="325" type="line"/>
      <point x="199" y="609" type="line"/>
      <point x="114" y="609" type="line"/>
      <point x="114" y="355" type="line"/>
      <point x="74" y="355"/>
      <point x="54" y="350"/>
      <point x="54" y="310" type="curve" smooth="yes"/>
      <point x="54" y="268"/>
      <point x="108" y="169"/>
      <point x="166" y="169" type="curve" smooth="yes"/>
      <point x="196" y="169"/>
      <point x="199" y="204"/>
      <point x="199" y="234" type="curve" smooth="yes"/>
    </contour>
    <contour>
      <point x="-16" y="583" type="line"/>
      <point x="306" y="583" type="line"/>
      <point x="306" y="658" type="line"/>
      <point x="-16" y="658" type="line"/>
    </contour>
    <contour>
      <point x="396" y="606" type="line"/>
      <point x="396" y="0" type="line"/>
      <point x="481" y="0" type="line"/>
      <point x="481" y="606" type="line"/>
    </contour>
    <contour>
      <point x="268" y="658" type="line"/>
      <point x="268" y="583" type="line"/>
      <point x="610" y="583" type="line"/>
      <point x="610" y="658" type="line"/>
    </contour>
    <contour>
      <point x="479" y="658" type="move" name="imatra"/>
    </contour>
    <contour>
      <point x="161" y="72" type="move" name="nukta"/>
    </contour>
    <contour>
      <point x="439" y="657" type="move" name="top"/>
    </contour>
    <contour>
      <point x="438" y="0" type="move" name="bottom"/>
    </contour>
  </outline>
</glyph>
<glyph name="glottalstop-deva" format="1">
  <advance width="476"/>
  <unicode hex="097D"/>
  <outline>
    <contour>
      <point x="179" y="657"/>
      <point x="102" y="635"/>
      <point x="40" y="603" type="curve"/>
      <point x="73" y="539" type="line"/>
      <point x="127" y="566"/>
      <point x="187" y="583"/>
      <point x="233" y="583" type="curve" smooth="yes"/>
      <point x="306" y="583"/>
      <point x="347" y="545"/>
      <point x="347" y="478" type="curve" smooth="yes"/>
      <point x="347" y="406"/>
      <point x="276" y="348"/>
      <point x="147" y="315" type="curve"/>
      <point x="147" y="0" type="line"/>
      <point x="231" y="0" type="line"/>
      <point x="231" y="262" type="line"/>
      <point x="360" y="308"/>
      <point x="431" y="385"/>
      <point x="431" y="478" type="curve" smooth="yes"/>
      <point x="431" y="593"/>
      <point x="360" y="657"/>
      <point x="233" y="657" type="curve" smooth="yes"/>
    </contour>
  </outline>
</glyph>
<glyph name="uni200D" format="1">
  <advance width="0"/>
  <unicode hex="200D"/>
  <outline>
    <contour>
      <point x="0" y="756" type="line"/>
      <point x="0" y="-244" type="line"/>
      <point x="80" y="-244" type="line"/>
      <point x="80" y="682" type="line"/>
      <point x="253" y="682" type="line"/>
      <point x="253" y="756" type="line"/>
    </contour>
  </outline>
</glyph>
<glyph name="uni2105" format="1">
  <advance width="731"/>
  <unicode hex="2105"/>
  <outline>
    <contour>
      <point x="535" y="738" type="line"/>
      <point x="108" y="-1" type="line"/>
      <point x="175" y="-38" type="line"/>
      <point x="602" y="701" type="line"/>
    </contour>
    <contour>
      <point x="16" y="426"/>
      <point x="74" y="363"/>
      <point x="177" y="363" type="curve" smooth="yes"/>
      <point x="212" y="363"/>
      <point x="254" y="373"/>
      <point x="289" y="390" type="curve"/>
      <point x="271" y="446" type="line"/>
      <point x="240" y="432"/>
      <point x="207" y="423"/>
      <point x="184" y="423" type="curve" smooth="yes"/>
      <point x="123" y="423"/>
      <point x="90" y="464"/>
      <point x="90" y="538" type="curve" smooth="yes"/>
      <point x="90" y="611"/>
      <point x="122" y="653"/>
      <point x="180" y="653" type="curve" smooth="yes"/>
      <point x="205" y="653"/>
      <point x="230" y="645"/>
      <point x="261" y="627" type="curve"/>
      <point x="286" y="683" type="line"/>
      <point x="252" y="703"/>
      <point x="215" y="714"/>
      <point x="180" y="714" type="curve" smooth="yes"/>
      <point x="77" y="714"/>
      <point x="16" y="649"/>
      <point x="16" y="538" type="curve" smooth="yes"/>
    </contour>
    <contour>
      <point x="390" y="60"/>
      <point x="450" y="-5"/>
      <point x="553" y="-5" type="curve" smooth="yes"/>
      <point x="655" y="-5"/>
      <point x="715" y="60"/>
      <point x="715" y="172" type="curve" smooth="yes"/>
      <point x="715" y="283"/>
      <point x="656" y="348"/>
      <point x="553" y="348" type="curve" smooth="yes"/>
      <point x="450" y="348"/>
      <point x="390" y="283"/>
      <point x="390" y="172" type="curve" smooth="yes"/>
    </contour>
    <contour>
      <point x="642" y="97"/>
      <point x="610" y="56"/>
      <point x="553" y="56" type="curve" smooth="yes"/>
      <point x="496" y="56"/>
      <point x="464" y="97"/>
      <point x="464" y="172" type="curve" smooth="yes"/>
      <point x="464" y="247"/>
      <point x="495" y="287"/>
      <point x="553" y="287" type="curve" smooth="yes"/>
      <point x="611" y="287"/>
      <point x="642" y="247"/>
      <point x="642" y="172" type="curve" smooth="yes"/>
    </contour>
  </outline>
</glyph>
<glyph name="uni2153" format="1">
  <advance width="766"/>
  <unicode hex="2153"/>
  <outline>
    <contour>
      <point x="526" y="738" type="line"/>
      <point x="99" y="-1" type="line"/>
      <point x="166" y="-38" type="line"/>
      <point x="593" y="701" type="line"/>
    </contour>
    <contour>
      <point x="21" y="600" type="line"/>
      <point x="125" y="629" type="line"/>
      <point x="125" y="260" type="line"/>
      <point x="210" y="260" type="line"/>
      <point x="210" y="700" type="line"/>
      <point x="154" y="709" type="line"/>
      <point x="6" y="648" type="line"/>
    </contour>
    <contour>
      <point x="451" y="10" type="line"/>
      <point x="485" y="-1"/>
      <point x="526" y="-7"/>
      <point x="562" y="-7" type="curve" smooth="yes"/>
      <point x="675" y="-7"/>
      <point x="739" y="40"/>
      <point x="739" y="119" type="curve" smooth="yes"/>
      <point x="739" y="177"/>
      <point x="704" y="216"/>
      <point x="642" y="229" type="curve"/>
      <point x="699" y="241"/>
      <point x="730" y="275"/>
      <point x="730" y="328" type="curve" smooth="yes"/>
      <point x="730" y="402"/>
      <point x="666" y="444"/>
      <point x="576" y="444" type="curve" smooth="yes"/>
      <point x="532" y="444"/>
      <point x="488" y="435"/>
      <point x="448" y="419" type="curve"/>
      <point x="462" y="356" type="line"/>
      <point x="497" y="369"/>
      <point x="535" y="378"/>
      <point x="564" y="378" type="curve" smooth="yes"/>
      <point x="611" y="378"/>
      <point x="641" y="359"/>
      <point x="641" y="322" type="curve" smooth="yes"/>
      <point x="641" y="279"/>
      <point x="607" y="255"/>
      <point x="546" y="255" type="curve" smooth="yes"/>
      <point x="520" y="255" type="line"/>
      <point x="520" y="193" type="line"/>
      <point x="550" y="193" type="line" smooth="yes"/>
      <point x="617" y="193"/>
      <point x="651" y="170"/>
      <point x="651" y="123" type="curve" smooth="yes"/>
      <point x="651" y="82"/>
      <point x="617" y="59"/>
      <point x="556" y="59" type="curve" smooth="yes"/>
      <point x="529" y="59"/>
      <point x="492" y="64"/>
      <point x="462" y="73" type="curve"/>
    </contour>
  </outline>
</glyph>
<glyph name="twothirds" format="1">
  <advance width="841"/>
  <unicode hex="2154"/>
  <outline>
    <contour>
      <point x="601" y="738" type="line"/>
      <point x="174" y="-1" type="line"/>
      <point x="241" y="-38" type="line"/>
      <point x="668" y="701" type="line"/>
    </contour>
    <contour>
      <point x="102" y="707"/>
      <point x="59" y="698"/>
      <point x="18" y="682" type="curve"/>
      <point x="31" y="614" type="line"/>
      <point x="62" y="629"/>
      <point x="98" y="638"/>
      <point x="128" y="638" type="curve" smooth="yes"/>
      <point x="180" y="638"/>
      <point x="211" y="612"/>
      <point x="211" y="565" type="curve" smooth="yes"/>
      <point x="211" y="514"/>
      <point x="194" y="478"/>
      <point x="113" y="405" type="curve" smooth="yes"/>
      <point x="17" y="317" type="line"/>
      <point x="20" y="260" type="line"/>
      <point x="310" y="260" type="line"/>
      <point x="310" y="334" type="line"/>
      <point x="254" y="329"/>
      <point x="191" y="325"/>
      <point x="131" y="323" type="curve"/>
      <point x="189" y="378" type="line" smooth="yes"/>
      <point x="280" y="464"/>
      <point x="300" y="505"/>
      <point x="300" y="568" type="curve" smooth="yes"/>
      <point x="300" y="654"/>
      <point x="239" y="707"/>
      <point x="142" y="707" type="curve" smooth="yes"/>
    </contour>
    <contour>
      <point x="526" y="10" type="line"/>
      <point x="560" y="-1"/>
      <point x="601" y="-7"/>
      <point x="637" y="-7" type="curve" smooth="yes"/>
      <point x="750" y="-7"/>
      <point x="814" y="40"/>
      <point x="814" y="119" type="curve" smooth="yes"/>
      <point x="814" y="177"/>
      <point x="779" y="216"/>
      <point x="717" y="229" type="curve"/>
      <point x="774" y="241"/>
      <point x="805" y="275"/>
      <point x="805" y="328" type="curve" smooth="yes"/>
      <point x="805" y="402"/>
      <point x="741" y="444"/>
      <point x="651" y="444" type="curve" smooth="yes"/>
      <point x="607" y="444"/>
      <point x="563" y="435"/>
      <point x="523" y="419" type="curve"/>
      <point x="537" y="356" type="line"/>
      <point x="572" y="369"/>
      <point x="610" y="378"/>
      <point x="639" y="378" type="curve" smooth="yes"/>
      <point x="686" y="378"/>
      <point x="716" y="359"/>
      <point x="716" y="322" type="curve" smooth="yes"/>
      <point x="716" y="279"/>
      <point x="682" y="255"/>
      <point x="621" y="255" type="curve" smooth="yes"/>
      <point x="595" y="255" type="line"/>
      <point x="595" y="193" type="line"/>
      <point x="625" y="193" type="line" smooth="yes"/>
      <point x="692" y="193"/>
      <point x="726" y="170"/>
      <point x="726" y="123" type="curve" smooth="yes"/>
      <point x="726" y="82"/>
      <point x="692" y="59"/>
      <point x="631" y="59" type="curve" smooth="yes"/>
      <point x="604" y="59"/>
      <point x="567" y="64"/>
      <point x="537" y="73" type="curve"/>
    </contour>
  </outline>
</glyph>
<glyph name="oneeighth" format="1">
  <advance width="819"/>
  <unicode hex="215B"/>
  <outline>
    <contour>
      <point x="526" y="738" type="line"/>
      <point x="99" y="-1" type="line"/>
      <point x="166" y="-38" type="line"/>
      <point x="593" y="701" type="line"/>
    </contour>
    <contour>
      <point x="21" y="600" type="line"/>
      <point x="125" y="629" type="line"/>
      <point x="125" y="260" type="line"/>
      <point x="210" y="260" type="line"/>
      <point x="210" y="700" type="line"/>
      <point x="154" y="709" type="line"/>
      <point x="6" y="648" type="line"/>
    </contour>
    <contour>
      <point x="458" y="38"/>
      <point x="523" y="-10"/>
      <point x="628" y="-10" type="curve" smooth="yes"/>
      <point x="728" y="-10"/>
      <point x="795" y="41"/>
      <point x="795" y="118" type="curve" smooth="yes"/>
      <point x="795" y="181"/>
      <point x="753" y="210"/>
      <point x="704" y="231" type="curve"/>
      <point x="751" y="255"/>
      <point x="777" y="290"/>
      <point x="777" y="331" type="curve" smooth="yes"/>
      <point x="777" y="403"/>
      <point x="718" y="449"/>
      <point x="626" y="449" type="curve" smooth="yes"/>
      <point x="533" y="449"/>
      <point x="475" y="403"/>
      <point x="475" y="332" type="curve" smooth="yes"/>
      <point x="475" y="277"/>
      <point x="502" y="248"/>
      <point x="538" y="229" type="curve"/>
      <point x="486" y="203"/>
      <point x="458" y="165"/>
      <point x="458" y="117" type="curve" smooth="yes"/>
    </contour>
    <contour>
      <point x="698" y="297"/>
      <point x="680" y="271"/>
      <point x="648" y="251" type="curve"/>
      <point x="598" y="268"/>
      <point x="554" y="285"/>
      <point x="554" y="328" type="curve" smooth="yes"/>
      <point x="554" y="363"/>
      <point x="582" y="385"/>
      <point x="626" y="385" type="curve" smooth="yes"/>
      <point x="670" y="385"/>
      <point x="698" y="363"/>
      <point x="698" y="328" type="curve" smooth="yes"/>
    </contour>
    <contour>
      <point x="714" y="81"/>
      <point x="678" y="54"/>
      <point x="628" y="54" type="curve" smooth="yes"/>
      <point x="574" y="54"/>
      <point x="538" y="80"/>
      <point x="538" y="120" type="curve" smooth="yes"/>
      <point x="538" y="153"/>
      <point x="554" y="177"/>
      <point x="596" y="205" type="curve"/>
      <point x="655" y="186"/>
      <point x="714" y="173"/>
      <point x="714" y="121" type="curve" smooth="yes"/>
    </contour>
  </outline>
</glyph>
<glyph name="summation" format="1">
  <advance width="560"/>
  <unicode hex="2211"/>
  <outline>
    <contour>
      <point x="306" y="300" type="line"/>
      <point x="53" y="-48" type="line"/>
      <point x="53" y="-120" type="line"/>
      <point x="514" y="-120" type="line"/>
      <point x="514" y="-39" type="line"/>
      <point x="172" y="-39" type="line"/>
      <point x="422" y="305" type="line"/>
      <point x="175" y="627" type="line"/>
      <point x="514" y="627" type="line"/>
      <point x="514" y="708" type="line"/>
      <point x="53" y="708" type="line"/>
      <point x="53" y="636" type="line"/>
    </contour>
  </outline>
</glyph>
<glyph name="dottedCircle" format="1">
  <advance width="645"/>
  <unicode hex="25CC"/>
  <outline>
    <contour>
      <point x="426" y="115"/>
      <point x="409" y="98"/>
      <point x="409" y="76" type="curve" smooth="yes"/>
      <point x="409" y="66"/>
      <point x="413" y="56"/>
      <point x="421" y="49" type="curve"/>
      <point x="428" y="41"/>
      <point x="438" y="36"/>
      <point x="448" y="36" type="curve" smooth="yes"/>
      <point x="470" y="36"/>
      <point x="487" y="54"/>
      <point x="487" y="76" type="curve" smooth="yes"/>
      <point x="487" y="98"/>
      <point x="470" y="115"/>
      <point x="448" y="115" type="curve" smooth="yes"/>
    </contour>
    <contour>
      <point x="82" y="207"/>
      <point x="65" y="190"/>
      <point x="65" y="168" type="curve" smooth="yes"/>
      <point x="65" y="157"/>
      <point x="69" y="148"/>
      <point x="76" y="140" type="curve" smooth="yes"/>
      <point x="83" y="133"/>
      <point x="93" y="129"/>
      <point x="104" y="129" type="curve" smooth="yes"/>
      <point x="126" y="129"/>
      <point x="143" y="146"/>
      <point x="143" y="168" type="curve" smooth="yes"/>
      <point x="143" y="190"/>
      <point x="126" y="207"/>
      <point x="104" y="207" type="curve" smooth="yes"/>
    </contour>
    <contour>
      <point x="174" y="115"/>
      <point x="157" y="98"/>
      <point x="157" y="76" type="curve" smooth="yes"/>
      <point x="157" y="66"/>
      <point x="161" y="56"/>
      <point x="169" y="49" type="curve"/>
      <point x="176" y="41"/>
      <point x="186" y="36"/>
      <point x="196" y="36" type="curve" smooth="yes"/>
      <point x="218" y="36"/>
      <point x="235" y="54"/>
      <point x="235" y="76" type="curve" smooth="yes"/>
      <point x="235" y="98"/>
      <point x="218" y="115"/>
      <point x="196" y="115" type="curve" smooth="yes"/>
    </contour>
    <contour>
      <point x="300" y="80"/>
      <point x="283" y="63"/>
      <point x="283" y="41" type="curve" smooth="yes"/>
      <point x="283" y="31"/>
      <point x="287" y="21"/>
      <point x="294" y="14" type="curve" smooth="yes"/>
      <point x="301" y="6"/>
      <point x="311" y="2"/>
      <point x="322" y="2" type="curve" smooth="yes"/>
      <point x="344" y="2"/>
      <point x="361" y="19"/>
      <point x="361" y="41" type="curve" smooth="yes"/>
      <point x="361" y="63"/>
      <point x="344" y="80"/>
      <point x="322" y="80" type="curve" smooth="yes"/>
    </contour>
    <contour>
      <point x="48" y="333"/>
      <point x="31" y="316"/>
      <point x="31" y="294" type="curve" smooth="yes"/>
      <point x="31" y="284"/>
      <point x="35" y="274"/>
      <point x="42" y="267" type="curve" smooth="yes"/>
      <point x="49" y="259"/>
      <point x="59" y="255"/>
      <point x="70" y="255" type="curve" smooth="yes"/>
      <point x="92" y="255"/>
      <point x="109" y="272"/>
      <point x="109" y="294" type="curve" smooth="yes"/>
      <point x="109" y="316"/>
      <point x="92" y="333"/>
      <point x="70" y="333" type="curve" smooth="yes"/>
    </contour>
    <contour>
      <point x="82" y="460"/>
      <point x="65" y="443"/>
      <point x="65" y="421" type="curve" smooth="yes"/>
      <point x="65" y="410"/>
      <point x="69" y="400"/>
      <point x="76" y="393" type="curve" smooth="yes"/>
      <point x="83" y="386"/>
      <point x="93" y="382"/>
      <point x="104" y="382" type="curve" smooth="yes"/>
      <point x="126" y="382"/>
      <point x="143" y="399"/>
      <point x="143" y="421" type="curve" smooth="yes"/>
      <point x="143" y="443"/>
      <point x="126" y="460"/>
      <point x="104" y="460" type="curve" smooth="yes"/>
    </contour>
    <contour>
      <point x="174" y="552"/>
      <point x="157" y="535"/>
      <point x="157" y="513" type="curve" smooth="yes"/>
      <point x="157" y="502"/>
      <point x="161" y="493"/>
      <point x="169" y="485" type="curve" smooth="yes"/>
      <point x="176" y="478"/>
      <point x="186" y="474"/>
      <point x="196" y="474" type="curve" smooth="yes"/>
      <point x="218" y="474"/>
      <point x="235" y="491"/>
      <point x="235" y="513" type="curve" smooth="yes"/>
      <point x="235" y="535"/>
      <point x="218" y="552"/>
      <point x="196" y="552" type="curve" smooth="yes"/>
    </contour>
    <contour>
      <point x="520" y="207"/>
      <point x="502" y="190"/>
      <point x="502" y="168" type="curve" smooth="yes"/>
      <point x="502" y="157"/>
      <point x="507" y="148"/>
      <point x="514" y="140" type="curve" smooth="yes"/>
      <point x="521" y="133"/>
      <point x="531" y="129"/>
      <point x="541" y="129" type="curve" smooth="yes"/>
      <point x="563" y="129"/>
      <point x="580" y="146"/>
      <point x="580" y="168" type="curve" smooth="yes"/>
      <point x="580" y="190"/>
      <point x="563" y="207"/>
      <point x="541" y="207" type="curve" smooth="yes"/>
    </contour>
    <contour>
      <point x="300" y="585"/>
      <point x="283" y="568"/>
      <point x="283" y="546" type="curve" smooth="yes"/>
      <point x="283" y="526"/>
      <point x="300" y="508"/>
      <point x="322" y="508" type="curve" smooth="yes"/>
      <point x="344" y="508"/>
      <point x="361" y="526"/>
      <point x="361" y="546" type="curve" smooth="yes"/>
      <point x="361" y="568"/>
      <point x="344" y="585"/>
      <point x="322" y="585" type="curve" smooth="yes"/>
    </contour>
    <contour>
      <point x="553" y="333"/>
      <point x="536" y="316"/>
      <point x="536" y="294" type="curve" smooth="yes"/>
      <point x="536" y="284"/>
      <point x="540" y="274"/>
      <point x="547" y="267" type="curve" smooth="yes"/>
      <point x="554" y="259"/>
      <point x="564" y="255"/>
      <point x="575" y="255" type="curve" smooth="yes"/>
      <point x="597" y="255"/>
      <point x="614" y="272"/>
      <point x="614" y="294" type="curve" smooth="yes"/>
      <point x="614" y="316"/>
      <point x="597" y="333"/>
      <point x="575" y="333" type="curve" smooth="yes"/>
    </contour>
    <contour>
      <point x="426" y="552"/>
      <point x="409" y="535"/>
      <point x="409" y="513" type="curve" smooth="yes"/>
      <point x="409" y="502"/>
      <point x="413" y="493"/>
      <point x="421" y="485" type="curve" smooth="yes"/>
      <point x="428" y="478"/>
      <point x="438" y="474"/>
      <point x="448" y="474" type="curve" smooth="yes"/>
      <point x="470" y="474"/>
      <point x="487" y="491"/>
      <point x="487" y="513" type="curve" smooth="yes"/>
      <point x="487" y="535"/>
      <point x="470" y="552"/>
      <point x="448" y="552" type="curve" smooth="yes"/>
    </contour>
    <contour>
      <point x="520" y="460"/>
      <point x="502" y="443"/>
      <point x="502" y="421" type="curve" smooth="yes"/>
      <point x="502" y="410"/>
      <point x="507" y="400"/>
      <point x="514" y="393" type="curve" smooth="yes"/>
      <point x="521" y="386"/>
      <point x="531" y="382"/>
      <point x="541" y="382" type="curve" smooth="yes"/>
      <point x="563" y="382"/>
      <point x="580" y="399"/>
      <point x="580" y="421" type="curve" smooth="yes"/>
      <point x="580" y="443"/>
      <point x="563" y="460"/>
      <point x="541" y="460" type="curve" smooth="yes"/>
    </contour>
  </outline>
</glyph>
<glyph name="zero-deva.comb" format="1">
  <advance width="239"/>
  <unicode hex="A8E0"/>
  <outline>
    <contour>
      <point x="56" y="913"/>
      <point x="9" y="868"/>
      <point x="9" y="805" type="curve" smooth="yes"/>
      <point x="9" y="742"/>
      <point x="56" y="697"/>
      <point x="120" y="697" type="curve" smooth="yes"/>
      <point x="185" y="697"/>
      <point x="230" y="742"/>
      <point x="230" y="805" type="curve" smooth="yes"/>
      <point x="230" y="868"/>
      <point x="185" y="913"/>
      <point x="120" y="913" type="curve" smooth="yes"/>
    </contour>
    <contour>
      <point x="150" y="861"/>
      <point x="173" y="838"/>
      <point x="173" y="805" type="curve" smooth="yes"/>
      <point x="173" y="773"/>
      <point x="150" y="750"/>
      <point x="120" y="750" type="curve" smooth="yes"/>
      <point x="89" y="750"/>
      <point x="67" y="773"/>
      <point x="67" y="805" type="curve" smooth="yes"/>
      <point x="67" y="838"/>
      <point x="89" y="861"/>
      <point x="120" y="861" type="curve" smooth="yes"/>
    </contour>
    <contour>
      <point x="119" y="657" type="move" name="_top"/>
    </contour>
  </outline>
</glyph>
<glyph name="onecombiningdigitdeva" format="1">
  <advance width="192"/>
  <unicode hex="A8E1"/>
  <outline>
    <contour>
      <point x="84" y="855" type="line"/>
      <point x="72" y="862"/>
      <point x="67" y="874"/>
      <point x="67" y="885" type="curve" smooth="yes"/>
      <point x="67" y="903"/>
      <point x="77" y="913"/>
      <point x="94" y="913" type="curve" smooth="yes"/>
      <point x="110" y="913"/>
      <point x="122" y="903"/>
      <point x="122" y="884" type="curve" smooth="yes"/>
      <point x="122" y="866"/>
      <point x="112" y="843"/>
      <point x="90" y="822" type="curve" smooth="yes"/>
      <point x="34" y="768" type="line"/>
      <point x="104" y="719" type="line" smooth="yes"/>
      <point x="119" y="707"/>
      <point x="124" y="697"/>
      <point x="124" y="685" type="curve" smooth="yes"/>
      <point x="124" y="678"/>
      <point x="122" y="669"/>
      <point x="121" y="660" type="curve"/>
      <point x="177" y="647" type="line"/>
      <point x="180" y="662"/>
      <point x="183" y="675"/>
      <point x="183" y="687" type="curve" smooth="yes"/>
      <point x="183" y="707"/>
      <point x="177" y="728"/>
      <point x="158" y="741" type="curve" smooth="yes"/>
      <point x="113" y="775" type="line"/>
      <point x="153" y="809"/>
      <point x="180" y="851"/>
      <point x="180" y="887" type="curve" smooth="yes"/>
      <point x="180" y="927"/>
      <point x="148" y="960"/>
      <point x="95" y="960" type="curve" smooth="yes"/>
      <point x="44" y="960"/>
      <point x="9" y="931"/>
      <point x="9" y="887" type="curve" smooth="yes"/>
      <point x="9" y="857"/>
      <point x="28" y="832"/>
      <point x="54" y="818" type="curve"/>
    </contour>
    <contour>
      <point x="96" y="657" type="move" name="_top"/>
    </contour>
  </outline>
</glyph>
<glyph name="twocombiningdigitdeva" format="1">
  <advance width="222"/>
  <unicode hex="A8E2"/>
  <outline>
    <contour>
      <point x="72" y="961"/>
      <point x="39" y="954"/>
      <point x="9" y="940" type="curve"/>
      <point x="19" y="895" type="line"/>
      <point x="50" y="907"/>
      <point x="79" y="913"/>
      <point x="100" y="913" type="curve" smooth="yes"/>
      <point x="137" y="913"/>
      <point x="156" y="894"/>
      <point x="156" y="860" type="curve" smooth="yes"/>
      <point x="156" y="831"/>
      <point x="140" y="813"/>
      <point x="110" y="807" type="curve"/>
      <point x="95" y="831"/>
      <point x="83" y="838"/>
      <point x="64" y="838" type="curve" smooth="yes"/>
      <point x="39" y="838"/>
      <point x="21" y="824"/>
      <point x="21" y="800" type="curve" smooth="yes"/>
      <point x="21" y="773"/>
      <point x="42" y="758"/>
      <point x="83" y="755" type="curve"/>
      <point x="154" y="636" type="line"/>
      <point x="200" y="660" type="line"/>
      <point x="138" y="760" type="line"/>
      <point x="180" y="775"/>
      <point x="213" y="811"/>
      <point x="213" y="863" type="curve" smooth="yes"/>
      <point x="213" y="921"/>
      <point x="171" y="961"/>
      <point x="102" y="961" type="curve" smooth="yes"/>
    </contour>
    <contour>
      <point x="111" y="657" type="move" name="_top"/>
    </contour>
  </outline>
</glyph>
<glyph name="three-deva.comb" format="1">
  <advance width="218"/>
  <unicode hex="A8E3"/>
  <outline>
    <contour>
      <point x="197" y="935"/>
      <point x="160" y="961"/>
      <point x="103" y="961" type="curve" smooth="yes"/>
      <point x="74" y="961"/>
      <point x="44" y="955"/>
      <point x="18" y="942" type="curve"/>
      <point x="33" y="898" type="line"/>
      <point x="58" y="907"/>
      <point x="83" y="914"/>
      <point x="105" y="914" type="curve" smooth="yes"/>
      <point x="125" y="914"/>
      <point x="140" y="908"/>
      <point x="140" y="893" type="curve" smooth="yes"/>
      <point x="140" y="870"/>
      <point x="110" y="854"/>
      <point x="52" y="849" type="curve"/>
      <point x="64" y="803" type="line"/>
      <point x="89" y="804"/>
      <point x="112" y="807"/>
      <point x="131" y="813" type="curve"/>
      <point x="145" y="804"/>
      <point x="151" y="790"/>
      <point x="151" y="777" type="curve" smooth="yes"/>
      <point x="151" y="756"/>
      <point x="131" y="743"/>
      <point x="102" y="741" type="curve"/>
      <point x="81" y="768"/>
      <point x="68" y="776"/>
      <point x="49" y="776" type="curve" smooth="yes"/>
      <point x="24" y="776"/>
      <point x="9" y="762"/>
      <point x="9" y="739" type="curve" smooth="yes"/>
      <point x="9" y="710"/>
      <point x="33" y="696"/>
      <point x="75" y="694" type="curve"/>
      <point x="140" y="623" type="line"/>
      <point x="179" y="655" type="line"/>
      <point x="140" y="698" type="line"/>
      <point x="184" y="708"/>
      <point x="209" y="736"/>
      <point x="209" y="777" type="curve" smooth="yes"/>
      <point x="209" y="803"/>
      <point x="198" y="823"/>
      <point x="177" y="840" type="curve"/>
      <point x="191" y="854"/>
      <point x="197" y="871"/>
      <point x="197" y="891" type="curve" smooth="yes"/>
    </contour>
    <contour>
      <point x="109" y="657" type="move" name="_top"/>
    </contour>
  </outline>
</glyph>
<glyph name="fourcombiningdigitdeva" format="1">
  <advance width="235"/>
  <unicode hex="A8E4"/>
  <outline>
    <contour>
      <point x="168" y="948" type="line"/>
      <point x="168" y="935" type="line" smooth="yes"/>
      <point x="168" y="916"/>
      <point x="163" y="899"/>
      <point x="153" y="890" type="curve" smooth="yes"/>
      <point x="118" y="859" type="line"/>
      <point x="82" y="890" type="line" smooth="yes"/>
      <point x="72" y="899"/>
      <point x="67" y="916"/>
      <point x="67" y="935" type="curve" smooth="yes"/>
      <point x="67" y="948" type="line"/>
      <point x="9" y="952" type="line"/>
      <point x="9" y="936" type="line" smooth="yes"/>
      <point x="10" y="904"/>
      <point x="16" y="884"/>
      <point x="32" y="869" type="curve" smooth="yes"/>
      <point x="80" y="827" type="line"/>
      <point x="62" y="812" type="line"/>
      <point x="38" y="790"/>
      <point x="31" y="769"/>
      <point x="31" y="750" type="curve" smooth="yes"/>
      <point x="31" y="705"/>
      <point x="68" y="676"/>
      <point x="118" y="676" type="curve" smooth="yes"/>
      <point x="167" y="676"/>
      <point x="204" y="705"/>
      <point x="204" y="750" type="curve" smooth="yes"/>
      <point x="204" y="769"/>
      <point x="197" y="790"/>
      <point x="173" y="812" type="curve"/>
      <point x="156" y="827" type="line"/>
      <point x="203" y="869" type="line" smooth="yes"/>
      <point x="219" y="884"/>
      <point x="226" y="904"/>
      <point x="226" y="936" type="curve" smooth="yes"/>
      <point x="226" y="952" type="line"/>
    </contour>
    <contour>
      <point x="132" y="779" type="line" smooth="yes"/>
      <point x="144" y="768"/>
      <point x="147" y="759"/>
      <point x="147" y="752" type="curve" smooth="yes"/>
      <point x="147" y="735"/>
      <point x="135" y="723"/>
      <point x="118" y="723" type="curve" smooth="yes"/>
      <point x="101" y="723"/>
      <point x="88" y="735"/>
      <point x="88" y="752" type="curve" smooth="yes"/>
      <point x="88" y="759"/>
      <point x="91" y="768"/>
      <point x="103" y="779" type="curve" smooth="yes"/>
      <point x="118" y="793" type="line"/>
    </contour>
    <contour>
      <point x="117" y="657" type="move" name="_top"/>
    </contour>
  </outline>
</glyph>
<glyph name="six-deva.comb" format="1">
  <advance width="242"/>
  <unicode hex="A8E6"/>
  <outline>
    <contour>
      <point x="49" y="961"/>
      <point x="9" y="937"/>
      <point x="9" y="890" type="curve" smooth="yes"/>
      <point x="9" y="865"/>
      <point x="21" y="844"/>
      <point x="40" y="831" type="curve"/>
      <point x="23" y="816"/>
      <point x="14" y="796"/>
      <point x="14" y="771" type="curve" smooth="yes"/>
      <point x="14" y="716"/>
      <point x="59" y="687"/>
      <point x="121" y="687" type="curve" smooth="yes"/>
      <point x="125" y="687"/>
      <point x="129" y="687"/>
      <point x="133" y="687" type="curve"/>
      <point x="193" y="603" type="line"/>
      <point x="233" y="639" type="line"/>
      <point x="190" y="696" type="line"/>
      <point x="203" y="701"/>
      <point x="212" y="712"/>
      <point x="212" y="726" type="curve" smooth="yes"/>
      <point x="212" y="752"/>
      <point x="186" y="771"/>
      <point x="157" y="771" type="curve" smooth="yes"/>
      <point x="132" y="771"/>
      <point x="115" y="758"/>
      <point x="115" y="734" type="curve"/>
      <point x="85" y="735"/>
      <point x="71" y="748"/>
      <point x="71" y="771" type="curve" smooth="yes"/>
      <point x="71" y="788"/>
      <point x="79" y="802"/>
      <point x="97" y="811" type="curve"/>
      <point x="111" y="808"/>
      <point x="126" y="807"/>
      <point x="142" y="807" type="curve" smooth="yes"/>
      <point x="164" y="807" type="line"/>
      <point x="157" y="854" type="line"/>
      <point x="145" y="854" type="line" smooth="yes"/>
      <point x="83" y="854"/>
      <point x="67" y="867"/>
      <point x="67" y="888" type="curve" smooth="yes"/>
      <point x="67" y="904"/>
      <point x="77" y="914"/>
      <point x="103" y="914" type="curve" smooth="yes"/>
      <point x="116" y="914"/>
      <point x="134" y="911"/>
      <point x="155" y="904" type="curve"/>
      <point x="173" y="948" type="line"/>
      <point x="149" y="957"/>
      <point x="125" y="961"/>
      <point x="104" y="961" type="curve" smooth="yes"/>
    </contour>
    <contour>
      <point x="121" y="657" type="move" name="_top"/>
    </contour>
  </outline>
</glyph>
<glyph name="sevencombiningdigitdeva" format="1">
  <advance width="260"/>
  <unicode hex="A8E7"/>
  <outline>
    <contour>
      <point x="13" y="934"/>
      <point x="9" y="908"/>
      <point x="9" y="881" type="curve" smooth="yes"/>
      <point x="9" y="773"/>
      <point x="66" y="699"/>
      <point x="149" y="699" type="curve" smooth="yes"/>
      <point x="212" y="699"/>
      <point x="251" y="741"/>
      <point x="251" y="813" type="curve" smooth="yes"/>
      <point x="251" y="883"/>
      <point x="214" y="929"/>
      <point x="156" y="929" type="curve" smooth="yes"/>
      <point x="113" y="929"/>
      <point x="87" y="905"/>
      <point x="87" y="866" type="curve" smooth="yes"/>
      <point x="87" y="824"/>
      <point x="115" y="795"/>
      <point x="167" y="786" type="curve"/>
      <point x="175" y="832" type="line"/>
      <point x="157" y="836"/>
      <point x="144" y="849"/>
      <point x="144" y="863" type="curve" smooth="yes"/>
      <point x="144" y="875"/>
      <point x="150" y="882"/>
      <point x="161" y="882" type="curve" smooth="yes"/>
      <point x="181" y="882"/>
      <point x="194" y="854"/>
      <point x="194" y="815" type="curve" smooth="yes"/>
      <point x="194" y="770"/>
      <point x="176" y="746"/>
      <point x="145" y="746" type="curve" smooth="yes"/>
      <point x="99" y="746"/>
      <point x="67" y="801"/>
      <point x="67" y="880" type="curve" smooth="yes"/>
      <point x="67" y="903"/>
      <point x="69" y="927"/>
      <point x="74" y="943" type="curve"/>
      <point x="19" y="957" type="line"/>
    </contour>
    <contour>
      <point x="130" y="657" type="move" name="_top"/>
    </contour>
  </outline>
</glyph>
<glyph name="eightcombiningdigitdeva" format="1">
  <advance width="216"/>
  <unicode hex="A8E8"/>
  <outline>
    <contour>
      <point x="80" y="900" type="line" smooth="yes"/>
      <point x="32" y="859"/>
      <point x="9" y="825"/>
      <point x="9" y="789" type="curve" smooth="yes"/>
      <point x="9" y="735"/>
      <point x="54" y="699"/>
      <point x="117" y="699" type="curve" smooth="yes"/>
      <point x="145" y="699"/>
      <point x="176" y="705"/>
      <point x="207" y="718" type="curve"/>
      <point x="191" y="762" type="line"/>
      <point x="165" y="751"/>
      <point x="140" y="746"/>
      <point x="117" y="746" type="curve" smooth="yes"/>
      <point x="86" y="746"/>
      <point x="67" y="762"/>
      <point x="67" y="789" type="curve" smooth="yes"/>
      <point x="67" y="811"/>
      <point x="82" y="834"/>
      <point x="116" y="863" type="curve" smooth="yes"/>
      <point x="189" y="923" type="line"/>
      <point x="153" y="960" type="line"/>
    </contour>
    <contour>
      <point x="108" y="657" type="move" name="_top"/>
    </contour>
  </outline>
</glyph>
<glyph name="nine-deva.comb" format="1">
  <advance width="215"/>
  <unicode hex="A8E9"/>
  <outline>
    <contour>
      <point x="44" y="961"/>
      <point x="9" y="930"/>
      <point x="9" y="880" type="curve" smooth="yes"/>
      <point x="9" y="851"/>
      <point x="23" y="825"/>
      <point x="52" y="795" type="curve" smooth="yes"/>
      <point x="116" y="728" type="line" smooth="yes"/>
      <point x="139" y="705"/>
      <point x="146" y="694"/>
      <point x="146" y="681" type="curve" smooth="yes"/>
      <point x="146" y="675"/>
      <point x="144" y="669"/>
      <point x="140" y="660" type="curve"/>
      <point x="196" y="647" type="line"/>
      <point x="202" y="657"/>
      <point x="205" y="668"/>
      <point x="206" y="679" type="curve"/>
      <point x="206" y="705"/>
      <point x="198" y="718"/>
      <point x="167" y="750" type="curve" smooth="yes"/>
      <point x="124" y="795" type="line"/>
      <point x="162" y="808"/>
      <point x="186" y="839"/>
      <point x="186" y="878" type="curve" smooth="yes"/>
      <point x="186" y="929"/>
      <point x="152" y="961"/>
      <point x="97" y="961" type="curve" smooth="yes"/>
    </contour>
    <contour>
      <point x="117" y="913"/>
      <point x="129" y="900"/>
      <point x="129" y="878" type="curve" smooth="yes"/>
      <point x="129" y="853"/>
      <point x="115" y="840"/>
      <point x="86" y="836" type="curve"/>
      <point x="72" y="852"/>
      <point x="67" y="866"/>
      <point x="67" y="880" type="curve" smooth="yes"/>
      <point x="67" y="901"/>
      <point x="79" y="913"/>
      <point x="97" y="913" type="curve" smooth="yes"/>
    </contour>
    <contour>
      <point x="107" y="657" type="move" name="_top"/>
    </contour>
  </outline>
</glyph>
<glyph name="acombiningletterdeva" format="1">
  <advance width="392"/>
  <unicode hex="A8EA"/>
  <outline>
    <contour>
      <point x="212" y="961" type="line"/>
      <point x="212" y="913" type="line"/>
      <point x="268" y="913" type="line"/>
      <point x="268" y="833" type="line"/>
      <point x="255" y="830"/>
      <point x="239" y="827"/>
      <point x="221" y="827" type="curve" smooth="yes"/>
      <point x="204" y="827"/>
      <point x="188" y="829"/>
      <point x="175" y="832" type="curve"/>
      <point x="188" y="849"/>
      <point x="193" y="867"/>
      <point x="193" y="885" type="curve" smooth="yes"/>
      <point x="193" y="921"/>
      <point x="167" y="961"/>
      <point x="105" y="961" type="curve" smooth="yes"/>
      <point x="82" y="961"/>
      <point x="58" y="956"/>
      <point x="34" y="945" type="curve"/>
      <point x="50" y="901" type="line"/>
      <point x="69" y="908"/>
      <point x="82" y="913"/>
      <point x="99" y="913" type="curve" smooth="yes"/>
      <point x="124" y="913"/>
      <point x="135" y="902"/>
      <point x="135" y="885" type="curve" smooth="yes"/>
      <point x="135" y="859"/>
      <point x="118" y="847"/>
      <point x="65" y="835" type="curve"/>
      <point x="77" y="789" type="line"/>
      <point x="98" y="792"/>
      <point x="115" y="797"/>
      <point x="130" y="803" type="curve"/>
      <point x="149" y="792"/>
      <point x="162" y="775"/>
      <point x="162" y="754" type="curve" smooth="yes"/>
      <point x="162" y="731"/>
      <point x="145" y="716"/>
      <point x="121" y="716" type="curve" smooth="yes"/>
      <point x="94" y="716"/>
      <point x="68" y="731"/>
      <point x="50" y="757" type="curve"/>
      <point x="9" y="731" type="line"/>
      <point x="39" y="684"/>
      <point x="80" y="665"/>
      <point x="124" y="665" type="curve" smooth="yes"/>
      <point x="182" y="665"/>
      <point x="220" y="696"/>
      <point x="220" y="754" type="curve" smooth="yes"/>
      <point x="220" y="764"/>
      <point x="218" y="774"/>
      <point x="214" y="782" type="curve"/>
      <point x="219" y="782"/>
      <point x="223" y="782"/>
      <point x="228" y="782" type="curve" smooth="yes"/>
      <point x="243" y="782"/>
      <point x="256" y="785"/>
      <point x="268" y="787" type="curve"/>
      <point x="268" y="654" type="line"/>
      <point x="326" y="654" type="line"/>
      <point x="326" y="913" type="line"/>
      <point x="383" y="913" type="line"/>
      <point x="383" y="961" type="line"/>
    </contour>
    <contour>
      <point x="196" y="657" type="move" name="_top"/>
    </contour>
  </outline>
</glyph>
<glyph name="u-deva.comb" format="1">
  <advance width="276"/>
  <unicode hex="A8EB"/>
  <outline>
    <contour>
      <point x="9" y="961" type="line"/>
      <point x="9" y="913" type="line"/>
      <point x="139" y="913" type="line"/>
      <point x="146" y="905"/>
      <point x="152" y="894"/>
      <point x="152" y="884" type="curve" smooth="yes"/>
      <point x="152" y="859"/>
      <point x="134" y="846"/>
      <point x="82" y="835" type="curve"/>
      <point x="95" y="789" type="line"/>
      <point x="114" y="792"/>
      <point x="132" y="796"/>
      <point x="147" y="803" type="curve"/>
      <point x="166" y="792"/>
      <point x="179" y="775"/>
      <point x="179" y="754" type="curve" smooth="yes"/>
      <point x="179" y="731"/>
      <point x="162" y="716"/>
      <point x="138" y="716" type="curve" smooth="yes"/>
      <point x="110" y="716"/>
      <point x="86" y="731"/>
      <point x="67" y="757" type="curve"/>
      <point x="26" y="731" type="line"/>
      <point x="56" y="684"/>
      <point x="97" y="665"/>
      <point x="140" y="665" type="curve" smooth="yes"/>
      <point x="196" y="665"/>
      <point x="237" y="698"/>
      <point x="237" y="753" type="curve" smooth="yes"/>
      <point x="237" y="786"/>
      <point x="218" y="811"/>
      <point x="188" y="829" type="curve"/>
      <point x="203" y="845"/>
      <point x="210" y="865"/>
      <point x="210" y="885" type="curve" smooth="yes"/>
      <point x="210" y="895"/>
      <point x="207" y="905"/>
      <point x="203" y="913" type="curve"/>
      <point x="267" y="913" type="line"/>
      <point x="267" y="961" type="line"/>
    </contour>
    <contour>
      <point x="138" y="657" type="move" name="_top"/>
    </contour>
  </outline>
</glyph>
<glyph name="kacombiningletterdeva" format="1">
  <advance width="437"/>
  <unicode hex="A8EC"/>
  <outline>
    <contour>
      <point x="9" y="961" type="line"/>
      <point x="9" y="913" type="line"/>
      <point x="189" y="913" type="line"/>
      <point x="189" y="788" type="line"/>
      <point x="176" y="762"/>
      <point x="158" y="748"/>
      <point x="134" y="748" type="curve" smooth="yes"/>
      <point x="110" y="748"/>
      <point x="95" y="763"/>
      <point x="95" y="788" type="curve" smooth="yes"/>
      <point x="95" y="813"/>
      <point x="112" y="828"/>
      <point x="139" y="828" type="curve" smooth="yes"/>
      <point x="142" y="828"/>
      <point x="148" y="827"/>
      <point x="151" y="827" type="curve"/>
      <point x="146" y="875" type="line"/>
      <point x="142" y="875"/>
      <point x="139" y="875"/>
      <point x="135" y="875" type="curve" smooth="yes"/>
      <point x="75" y="875"/>
      <point x="38" y="842"/>
      <point x="38" y="788" type="curve" smooth="yes"/>
      <point x="38" y="733"/>
      <point x="72" y="701"/>
      <point x="130" y="701" type="curve" smooth="yes"/>
      <point x="153" y="701"/>
      <point x="173" y="707"/>
      <point x="189" y="722" type="curve"/>
      <point x="189" y="654" type="line"/>
      <point x="248" y="654" type="line"/>
      <point x="248" y="786" type="line"/>
      <point x="262" y="815"/>
      <point x="279" y="828"/>
      <point x="303" y="828" type="curve" smooth="yes"/>
      <point x="328" y="828"/>
      <point x="341" y="813"/>
      <point x="341" y="788" type="curve" smooth="yes"/>
      <point x="341" y="763"/>
      <point x="325" y="748"/>
      <point x="298" y="748" type="curve" smooth="yes"/>
      <point x="294" y="748"/>
      <point x="291" y="749"/>
      <point x="286" y="750" type="curve"/>
      <point x="291" y="701" type="line"/>
      <point x="293" y="701"/>
      <point x="296" y="701"/>
      <point x="302" y="701" type="curve" smooth="yes"/>
      <point x="363" y="701"/>
      <point x="399" y="733"/>
      <point x="399" y="788" type="curve" smooth="yes"/>
      <point x="399" y="842"/>
      <point x="365" y="875"/>
      <point x="308" y="875" type="curve" smooth="yes"/>
      <point x="284" y="875"/>
      <point x="264" y="868"/>
      <point x="248" y="853" type="curve"/>
      <point x="248" y="913" type="line"/>
      <point x="428" y="913" type="line"/>
      <point x="428" y="961" type="line"/>
    </contour>
    <contour>
      <point x="218" y="657" type="move" name="_top"/>
    </contour>
  </outline>
</glyph>
<glyph name="na-deva.comb" format="1">
  <advance width="326"/>
  <unicode hex="A8ED"/>
  <outline>
    <contour>
      <point x="9" y="961" type="line"/>
      <point x="9" y="913" type="line"/>
      <point x="203" y="913" type="line"/>
      <point x="203" y="822" type="line"/>
      <point x="70" y="822" type="line" smooth="yes"/>
      <point x="47" y="822"/>
      <point x="32" y="819"/>
      <point x="32" y="795" type="curve" smooth="yes"/>
      <point x="32" y="773"/>
      <point x="55" y="722"/>
      <point x="86" y="722" type="curve" smooth="yes"/>
      <point x="105" y="722"/>
      <point x="110" y="740"/>
      <point x="113" y="775" type="curve"/>
      <point x="203" y="775" type="line"/>
      <point x="203" y="654" type="line"/>
      <point x="260" y="654" type="line"/>
      <point x="260" y="913" type="line"/>
      <point x="317" y="913" type="line"/>
      <point x="317" y="961" type="line"/>
    </contour>
    <contour>
      <point x="163" y="657" type="move" name="_top"/>
    </contour>
  </outline>
</glyph>
<glyph name="pacombiningletterdeva" format="1">
  <advance width="312"/>
  <unicode hex="A8EE"/>
  <outline>
    <contour>
      <point x="9" y="961" type="line"/>
      <point x="9" y="913" type="line"/>
      <point x="41" y="913" type="line"/>
      <point x="41" y="827" type="line" smooth="yes"/>
      <point x="41" y="773"/>
      <point x="82" y="738"/>
      <point x="137" y="738" type="curve" smooth="yes"/>
      <point x="158" y="738"/>
      <point x="174" y="741"/>
      <point x="189" y="753" type="curve"/>
      <point x="189" y="654" type="line"/>
      <point x="247" y="654" type="line"/>
      <point x="247" y="913" type="line"/>
      <point x="303" y="913" type="line"/>
      <point x="303" y="961" type="line"/>
    </contour>
    <contour>
      <point x="189" y="809" type="line"/>
      <point x="174" y="791"/>
      <point x="159" y="785"/>
      <point x="141" y="785" type="curve" smooth="yes"/>
      <point x="114" y="785"/>
      <point x="99" y="803"/>
      <point x="99" y="827" type="curve" smooth="yes"/>
      <point x="99" y="913" type="line"/>
      <point x="189" y="913" type="line"/>
    </contour>
    <contour>
      <point x="156" y="657" type="move" name="_top"/>
    </contour>
  </outline>
</glyph>
<glyph name="racombiningletterdeva" format="1">
  <advance width="228"/>
  <unicode hex="A8EF"/>
  <outline>
    <contour>
      <point x="9" y="961" type="line"/>
      <point x="9" y="913" type="line"/>
      <point x="98" y="913" type="line"/>
      <point x="116" y="891"/>
      <point x="127" y="867"/>
      <point x="127" y="850" type="curve" smooth="yes"/>
      <point x="127" y="824"/>
      <point x="114" y="809"/>
      <point x="93" y="809" type="curve" smooth="yes"/>
      <point x="81" y="809"/>
      <point x="69" y="814"/>
      <point x="57" y="822" type="curve"/>
      <point x="29" y="787" type="line"/>
      <point x="138" y="640" type="line"/>
      <point x="184" y="672" type="line"/>
      <point x="117" y="765" type="line"/>
      <point x="159" y="772"/>
      <point x="185" y="802"/>
      <point x="185" y="849" type="curve" smooth="yes"/>
      <point x="185" y="868"/>
      <point x="177" y="890"/>
      <point x="162" y="913" type="curve"/>
      <point x="219" y="913" type="line"/>
      <point x="219" y="961" type="line"/>
    </contour>
    <contour>
      <point x="114" y="657" type="move" name="_top"/>
    </contour>
  </outline>
</glyph>
<glyph name="aiMatra_anusvara-deva" format="1">
  <advance width="436"/>
  <outline>
    <component base="aiMatra-deva"/>
    <component base="anusvara-deva" xOffset="388" yOffset="28"/>
    <contour>
      <point x="367" y="658" type="move" name="_top"/>
    </contour>
  </outline>
</glyph>
<glyph name="aiMatra_reph_anusvara-deva" format="1">
  <advance width="270"/>
  <note>
    dMatraAiRephAnusvara
  </note>
  <outline>
    <component base="anusvara-deva" xOffset="207" yOffset="86" xScale="0.888" yScale="0.888"/>
    <component base="aiMatra_reph-deva"/>
    <contour>
      <point x="145" y="658" type="move" name="_top"/>
    </contour>
  </outline>
</glyph>
<glyph name="anusvara-deva.alt" format="1">
  <advance width="142"/>
  <outline>
    <component base="anusvara-deva" yOffset="183"/>
    <contour>
      <point x="65" y="658" type="move" name="_top"/>
    </contour>
  </outline>
</glyph>
<glyph name="auMatra_reph-deva" format="1">
  <advance width="306"/>
  <outline>
    <component base="uni093E"/>
    <component base="aivowelsigndeva" xOffset="-226"/>
    <component base="uni0930094D.alt" xOffset="61"/>
    <contour>
      <point x="133" y="908" type="move" name="top"/>
    </contour>
  </outline>
</glyph>
<glyph name="b-deva" format="1">
  <advance width="271"/>
  <outline>
    <contour>
      <point x="306" y="183" type="line"/>
      <point x="346" y="222" type="line"/>
      <point x="175" y="407" type="line"/>
      <point x="133" y="368" type="line"/>
    </contour>
    <component base="v-deva"/>
    <contour>
      <point x="136" y="658" type="move" name="top"/>
    </contour>
    <contour>
      <point x="136" y="0" type="move" name="bottom"/>
    </contour>
  </outline>
</glyph>
<glyph name="b_la-deva" format="1">
  <advance width="1007"/>
  <outline>
    <contour>
      <point x="306" y="183" type="line"/>
      <point x="346" y="222" type="line"/>
      <point x="175" y="407" type="line"/>
      <point x="133" y="368" type="line"/>
    </contour>
    <contour>
      <point x="-30" y="658" type="line"/>
      <point x="-30" y="583" type="line"/>
      <point x="304" y="583" type="line"/>
      <point x="304" y="658" type="line"/>
    </contour>
    <contour>
      <point x="136" y="479"/>
      <point x="50" y="410"/>
      <point x="50" y="293" type="curve" smooth="yes"/>
      <point x="50" y="189"/>
      <point x="125" y="113"/>
      <point x="229" y="113" type="curve" smooth="yes"/>
      <point x="309" y="113"/>
      <point x="365" y="143"/>
      <point x="417" y="216" type="curve"/>
      <point x="383" y="291" type="line"/>
      <point x="340" y="216"/>
      <point x="301" y="188"/>
      <point x="239" y="188" type="curve" smooth="yes"/>
      <point x="176" y="188"/>
      <point x="134" y="230"/>
      <point x="134" y="293" type="curve" smooth="yes"/>
      <point x="134" y="369"/>
      <point x="186" y="404"/>
      <point x="262" y="404" type="curve" smooth="yes"/>
      <point x="287" y="404"/>
      <point x="311" y="399"/>
      <point x="328" y="391" type="curve"/>
      <point x="316" y="466" type="line"/>
      <point x="298" y="474"/>
      <point x="275" y="479"/>
      <point x="249" y="479" type="curve" smooth="yes"/>
    </contour>
    <contour>
      <point x="264" y="583" type="line"/>
      <point x="776" y="583" type="line"/>
      <point x="776" y="658" type="line"/>
      <point x="264" y="658" type="line"/>
    </contour>
    <contour>
      <point x="844" y="473" type="line"/>
      <point x="834" y="475"/>
      <point x="819" y="477"/>
      <point x="802" y="477" type="curve" smooth="yes"/>
      <point x="676" y="477"/>
      <point x="635" y="390"/>
      <point x="577" y="285" type="curve"/>
      <point x="642" y="249" type="line"/>
      <point x="704" y="361"/>
      <point x="733" y="403"/>
      <point x="802" y="403" type="curve" smooth="yes"/>
      <point x="823" y="403"/>
      <point x="840" y="401"/>
      <point x="855" y="396" type="curve"/>
    </contour>
    <contour>
      <point x="551" y="57" type="line"/>
      <point x="438" y="176"/>
      <point x="407" y="243"/>
      <point x="407" y="311" type="curve" smooth="yes"/>
      <point x="407" y="361"/>
      <point x="444" y="403"/>
      <point x="494" y="403" type="curve" smooth="yes"/>
      <point x="562" y="403"/>
      <point x="594" y="348"/>
      <point x="619" y="281" type="curve"/>
      <point x="668" y="344" type="line"/>
      <point x="626" y="438"/>
      <point x="569" y="477"/>
      <point x="491" y="477" type="curve" smooth="yes"/>
      <point x="395" y="477"/>
      <point x="323" y="413"/>
      <point x="323" y="319" type="curve" smooth="yes"/>
      <point x="323" y="229"/>
      <point x="348" y="157"/>
      <point x="492" y="8" type="curve"/>
    </contour>
    <contour>
      <point x="811" y="606" type="line"/>
      <point x="811" y="0" type="line"/>
      <point x="896" y="0" type="line"/>
      <point x="896" y="606" type="line"/>
    </contour>
    <contour>
      <point x="683" y="658" type="line"/>
      <point x="683" y="583" type="line"/>
      <point x="1025" y="583" type="line"/>
      <point x="1025" y="658" type="line"/>
    </contour>
    <contour>
      <point x="855" y="658" type="move" name="top"/>
    </contour>
    <contour>
      <point x="854" y="0" type="move" name="bottom"/>
    </contour>
    <contour>
      <point x="894" y="658" type="move" name="imatra"/>
    </contour>
  </outline>
</glyph>
<glyph name="b_ra-deva" format="1">
  <advance width="577"/>
  <outline>
    <contour>
      <point x="89" y="23" type="line"/>
      <point x="139" y="-35" type="line"/>
      <point x="420" y="184" type="line"/>
      <point x="420" y="276" type="line"/>
    </contour>
    <contour>
      <point x="306" y="183" type="line"/>
      <point x="346" y="222" type="line"/>
      <point x="175" y="407" type="line"/>
      <point x="133" y="368" type="line"/>
    </contour>
    <contour>
      <point x="-30" y="658" type="line"/>
      <point x="-30" y="583" type="line"/>
      <point x="304" y="583" type="line"/>
      <point x="304" y="658" type="line"/>
    </contour>
    <contour>
      <point x="136" y="479"/>
      <point x="50" y="410"/>
      <point x="50" y="293" type="curve" smooth="yes"/>
      <point x="50" y="189"/>
      <point x="125" y="113"/>
      <point x="229" y="113" type="curve" smooth="yes"/>
      <point x="309" y="113"/>
      <point x="365" y="143"/>
      <point x="417" y="216" type="curve"/>
      <point x="383" y="291" type="line"/>
      <point x="340" y="216"/>
      <point x="301" y="188"/>
      <point x="239" y="188" type="curve" smooth="yes"/>
      <point x="176" y="188"/>
      <point x="134" y="230"/>
      <point x="134" y="293" type="curve" smooth="yes"/>
      <point x="134" y="369"/>
      <point x="186" y="404"/>
      <point x="262" y="404" type="curve" smooth="yes"/>
      <point x="287" y="404"/>
      <point x="311" y="399"/>
      <point x="328" y="391" type="curve"/>
      <point x="316" y="466" type="line"/>
      <point x="298" y="474"/>
      <point x="275" y="479"/>
      <point x="249" y="479" type="curve" smooth="yes"/>
    </contour>
    <contour>
      <point x="381" y="606" type="line"/>
      <point x="381" y="0" type="line"/>
      <point x="466" y="0" type="line"/>
      <point x="466" y="606" type="line"/>
    </contour>
    <contour>
      <point x="253" y="658" type="line"/>
      <point x="253" y="583" type="line"/>
      <point x="595" y="583" type="line"/>
      <point x="595" y="658" type="line"/>
    </contour>
    <contour>
      <point x="424" y="658" type="move" name="top"/>
    </contour>
    <contour>
      <point x="424" y="0" type="move" name="bottom"/>
    </contour>
    <contour>
      <point x="464" y="658" type="move" name="imatra"/>
    </contour>
  </outline>
</glyph>
<glyph name="bh_ra-deva" format="1">
  <advance width="621"/>
  <outline>
    <contour>
      <point x="117" y="48" type="line"/>
      <point x="167" y="-10" type="line"/>
      <point x="448" y="209" type="line"/>
      <point x="448" y="301" type="line"/>
    </contour>
    <contour>
      <point x="-20" y="658" type="line"/>
      <point x="-20" y="583" type="line"/>
      <point x="50" y="583" type="line"/>
      <point x="90" y="583"/>
      <point x="110" y="563"/>
      <point x="110" y="523" type="curve"/>
      <point x="110" y="357" type="line"/>
      <point x="195" y="357" type="line"/>
      <point x="195" y="543" type="line"/>
      <point x="195" y="613"/>
      <point x="150" y="658"/>
      <point x="80" y="658" type="curve"/>
    </contour>
    <contour>
      <point x="70" y="362"/>
      <point x="46" y="352"/>
      <point x="46" y="312" type="curve" smooth="yes"/>
      <point x="46" y="270"/>
      <point x="98" y="201"/>
      <point x="156" y="201" type="curve"/>
      <point x="191" y="201"/>
      <point x="196" y="219"/>
      <point x="201" y="308" type="curve"/>
      <point x="114" y="308" type="line"/>
      <point x="131" y="261" type="line"/>
      <point x="190" y="283" type="line"/>
      <point x="445" y="283" type="line"/>
      <point x="435" y="357" type="line"/>
      <point x="129" y="357" type="line"/>
      <point x="110" y="362" type="line"/>
    </contour>
    <contour>
      <point x="425" y="606" type="line"/>
      <point x="425" y="0" type="line"/>
      <point x="510" y="0" type="line"/>
      <point x="510" y="606" type="line"/>
    </contour>
    <contour>
      <point x="297" y="658" type="line"/>
      <point x="297" y="583" type="line"/>
      <point x="639" y="583" type="line"/>
      <point x="639" y="658" type="line"/>
    </contour>
    <contour>
      <point x="469" y="658" type="move" name="top"/>
    </contour>
    <contour>
      <point x="469" y="0" type="move" name="bottom"/>
    </contour>
    <contour>
      <point x="508" y="658" type="move" name="imatra"/>
    </contour>
  </outline>
</glyph>
<glyph name="c_compo" format="1">
  <advance width="520"/>
  <outline>
    <contour>
      <point x="179" y="529"/>
      <point x="99" y="475"/>
      <point x="99" y="386" type="curve" smooth="yes"/>
      <point x="99" y="297"/>
      <point x="176" y="249"/>
      <point x="278" y="249" type="curve" smooth="yes"/>
      <point x="371" y="249"/>
      <point x="439" y="288"/>
      <point x="496" y="344" type="curve"/>
      <point x="476" y="432" type="line"/>
      <point x="421" y="361"/>
      <point x="350" y="322"/>
      <point x="286" y="322" type="curve" smooth="yes"/>
      <point x="216" y="322"/>
      <point x="183" y="345"/>
      <point x="183" y="386" type="curve" smooth="yes"/>
      <point x="183" y="436"/>
      <point x="237" y="455"/>
      <point x="297" y="455" type="curve"/>
      <point x="297" y="529" type="line"/>
    </contour>
    <contour>
      <point x="16" y="529" type="line"/>
      <point x="16" y="455" type="line"/>
      <point x="335" y="455" type="line"/>
      <point x="325" y="529" type="line"/>
    </contour>
  </outline>
</glyph>
<glyph name="c_ra-deva" format="1">
  <advance width="663"/>
  <outline>
    <contour>
      <point x="145" y="23" type="line"/>
      <point x="195" y="-35" type="line"/>
      <point x="476" y="184" type="line"/>
      <point x="476" y="276" type="line"/>
    </contour>
    <contour>
      <point x="467" y="606" type="line"/>
      <point x="467" y="0" type="line"/>
      <point x="552" y="0" type="line"/>
      <point x="552" y="606" type="line"/>
    </contour>
    <contour>
      <point x="339" y="658" type="line"/>
      <point x="339" y="583" type="line"/>
      <point x="681" y="583" type="line"/>
      <point x="681" y="658" type="line"/>
    </contour>
    <contour>
      <point x="199" y="478"/>
      <point x="119" y="401"/>
      <point x="119" y="293" type="curve" smooth="yes"/>
      <point x="119" y="185"/>
      <point x="198" y="113"/>
      <point x="298" y="113" type="curve" smooth="yes"/>
      <point x="382" y="113"/>
      <point x="440" y="142"/>
      <point x="497" y="211" type="curve"/>
      <point x="477" y="309" type="line"/>
      <point x="422" y="223"/>
      <point x="372" y="187"/>
      <point x="308" y="187" type="curve" smooth="yes"/>
      <point x="244" y="187"/>
      <point x="203" y="229"/>
      <point x="203" y="293" type="curve" smooth="yes"/>
      <point x="203" y="358"/>
      <point x="249" y="404"/>
      <point x="317" y="404" type="curve"/>
      <point x="317" y="478" type="line"/>
    </contour>
    <contour>
      <point x="36" y="478" type="line"/>
      <point x="36" y="404" type="line"/>
      <point x="355" y="404" type="line"/>
      <point x="345" y="478" type="line"/>
    </contour>
    <contour>
      <point x="-21" y="658" type="line"/>
      <point x="-21" y="583" type="line"/>
      <point x="368" y="583" type="line"/>
      <point x="368" y="658" type="line"/>
    </contour>
    <contour>
      <point x="510" y="658" type="move" name="top"/>
    </contour>
    <contour>
      <point x="510" y="0" type="move" name="bottom"/>
    </contour>
    <contour>
      <point x="550" y="658" type="move" name="imatra"/>
    </contour>
  </outline>
</glyph>
<glyph name="ch_va-deva" format="1">
  <advance width="680"/>
  <outline>
    <contour>
      <point x="403" y="548"/>
      <point x="349" y="500"/>
      <point x="349" y="427" type="curve" smooth="yes"/>
      <point x="349" y="383"/>
      <point x="374" y="332"/>
      <point x="420" y="303" type="curve"/>
      <point x="471" y="346" type="line"/>
      <point x="446" y="366"/>
      <point x="433" y="392"/>
      <point x="433" y="416" type="curve" smooth="yes"/>
      <point x="433" y="444"/>
      <point x="451" y="468"/>
      <point x="485" y="468" type="curve" smooth="yes"/>
      <point x="525" y="468"/>
      <point x="555" y="447"/>
      <point x="555" y="389" type="curve" smooth="yes"/>
      <point x="555" y="274"/>
      <point x="443" y="230"/>
      <point x="306" y="230" type="curve" smooth="yes"/>
      <point x="180" y="230"/>
      <point x="140" y="267"/>
      <point x="140" y="320" type="curve" smooth="yes"/>
      <point x="140" y="367"/>
      <point x="188" y="389"/>
      <point x="242" y="389" type="curve" smooth="yes"/>
      <point x="260" y="389"/>
      <point x="268" y="388"/>
      <point x="281" y="387" type="curve"/>
      <point x="271" y="458" type="line"/>
      <point x="259" y="459"/>
      <point x="242" y="459"/>
      <point x="236" y="459" type="curve" smooth="yes"/>
      <point x="132" y="459"/>
      <point x="56" y="406"/>
      <point x="56" y="325" type="curve" smooth="yes"/>
      <point x="56" y="216"/>
      <point x="155" y="156"/>
      <point x="316" y="156" type="curve" smooth="yes"/>
      <point x="498" y="156"/>
      <point x="639" y="240"/>
      <point x="639" y="389" type="curve" smooth="yes"/>
      <point x="639" y="490"/>
      <point x="572" y="548"/>
      <point x="485" y="548" type="curve" smooth="yes"/>
    </contour>
    <contour>
      <point x="201" y="103"/>
      <point x="133" y="58"/>
      <point x="133" y="-34" type="curve" smooth="yes"/>
      <point x="133" y="-115"/>
      <point x="195" y="-171"/>
      <point x="283" y="-171" type="curve" smooth="yes"/>
      <point x="358" y="-171"/>
      <point x="410" y="-134"/>
      <point x="454" y="-76" type="curve"/>
      <point x="408" y="-15" type="line"/>
      <point x="390" y="-53"/>
      <point x="337" y="-101"/>
      <point x="284" y="-101" type="curve" smooth="yes"/>
      <point x="243" y="-101"/>
      <point x="213" y="-75"/>
      <point x="213" y="-34" type="curve" smooth="yes"/>
      <point x="213" y="7"/>
      <point x="248" y="33"/>
      <point x="289" y="33" type="curve" smooth="yes"/>
      <point x="305" y="33"/>
      <point x="315" y="32"/>
      <point x="325" y="31" type="curve"/>
      <point x="315" y="102" type="line"/>
      <point x="304" y="103"/>
      <point x="298" y="103"/>
      <point x="293" y="103" type="curve" smooth="yes"/>
    </contour>
    <contour>
      <point x="403" y="220" type="line"/>
      <point x="403" y="-212" type="line"/>
      <point x="477" y="-212" type="line"/>
      <point x="477" y="220" type="line"/>
    </contour>
    <contour>
      <point x="80" y="603"/>
      <point x="60" y="566"/>
      <point x="60" y="516" type="curve" smooth="yes"/>
      <point x="60" y="458"/>
      <point x="100" y="410"/>
      <point x="154" y="390" type="curve"/>
      <point x="211" y="439" type="line"/>
      <point x="175" y="451"/>
      <point x="140" y="475"/>
      <point x="140" y="516" type="curve" smooth="yes"/>
      <point x="140" y="557"/>
      <point x="175" y="583"/>
      <point x="216" y="583" type="curve"/>
      <point x="114" y="626" type="line"/>
    </contour>
    <contour>
      <point x="-30" y="658" type="line"/>
      <point x="-30" y="583" type="line"/>
      <point x="710" y="583" type="line"/>
      <point x="710" y="658" type="line"/>
    </contour>
    <contour>
      <point x="335" y="658" type="move" name="top"/>
    </contour>
    <contour>
      <point x="439" y="-212" type="move" name="bottom"/>
    </contour>
  </outline>
</glyph>
<glyph name="d_ba-deva" format="1">
  <advance width="576"/>
  <outline>
    <contour>
      <point x="293" y="18" type="line"/>
      <point x="333" y="57" type="line"/>
      <point x="202" y="200" type="line"/>
      <point x="160" y="161" type="line"/>
    </contour>
    <component base="d_va-deva" xOffset="-7"/>
    <contour>
      <point x="389" y="658" type="move" name="top"/>
    </contour>
    <contour>
      <point x="488" y="48" type="move" name="bottom"/>
    </contour>
  </outline>
</glyph>
<glyph name="d_ba_uMatra-deva" format="1">
  <advance width="631"/>
  <outline>
    <contour>
      <point x="128" y="244"/>
      <point x="62" y="199"/>
      <point x="62" y="107" type="curve" smooth="yes"/>
      <point x="62" y="17"/>
      <point x="143" y="-33"/>
      <point x="233" y="-33" type="curve" smooth="yes"/>
      <point x="343" y="-33"/>
      <point x="413" y="34"/>
      <point x="456" y="92" type="curve"/>
      <point x="393" y="148" type="line"/>
      <point x="369" y="97"/>
      <point x="319" y="37"/>
      <point x="229" y="37" type="curve" smooth="yes"/>
      <point x="184" y="37"/>
      <point x="146" y="62"/>
      <point x="146" y="107" type="curve" smooth="yes"/>
      <point x="146" y="155"/>
      <point x="184" y="176"/>
      <point x="225" y="176" type="curve"/>
      <point x="220" y="244" type="line"/>
    </contour>
    <contour>
      <point x="491" y="27"/>
      <point x="452" y="13"/>
      <point x="421" y="-4" type="curve"/>
      <point x="457" y="-64" type="line"/>
      <point x="477" y="-54"/>
      <point x="492" y="-47"/>
      <point x="513" y="-47" type="curve" smooth="yes"/>
      <point x="546" y="-47"/>
      <point x="580" y="-63"/>
      <point x="580" y="-96" type="curve" smooth="yes"/>
      <point x="580" y="-145"/>
      <point x="532" y="-161"/>
      <point x="483" y="-161" type="curve" smooth="yes"/>
      <point x="414" y="-161"/>
      <point x="358" y="-132"/>
      <point x="308" y="-70" type="curve"/>
      <point x="250" y="-115" type="line"/>
      <point x="316" y="-199"/>
      <point x="398" y="-235"/>
      <point x="483" y="-235" type="curve" smooth="yes"/>
      <point x="582" y="-235"/>
      <point x="664" y="-188"/>
      <point x="664" y="-89" type="curve" smooth="yes"/>
      <point x="664" y="-14"/>
      <point x="595" y="27"/>
      <point x="520" y="27" type="curve" smooth="yes"/>
    </contour>
    <contour>
      <point x="146" y="191" type="line"/>
      <point x="319" y="6" type="line"/>
      <point x="359" y="45" type="line"/>
      <point x="188" y="230" type="line"/>
    </contour>
    <contour>
      <point x="383" y="177" type="line"/>
      <point x="410" y="86"/>
      <point x="461" y="20"/>
      <point x="535" y="-42" type="curve"/>
      <point x="591" y="13" type="line"/>
      <point x="516" y="77"/>
      <point x="480" y="117"/>
      <point x="452" y="216" type="curve"/>
    </contour>
    <contour>
      <point x="-20" y="658" type="line"/>
      <point x="-20" y="583" type="line"/>
      <point x="651" y="583" type="line"/>
      <point x="651" y="658" type="line"/>
    </contour>
    <contour>
      <point x="386" y="522" type="line"/>
      <point x="299" y="522" type="line" smooth="yes"/>
      <point x="179" y="522"/>
      <point x="102" y="479"/>
      <point x="102" y="366" type="curve" smooth="yes"/>
      <point x="102" y="238"/>
      <point x="208" y="159"/>
      <point x="336" y="159" type="curve" smooth="yes"/>
      <point x="427" y="159"/>
      <point x="519" y="183"/>
      <point x="519" y="240" type="curve" smooth="yes"/>
      <point x="519" y="284"/>
      <point x="469" y="330"/>
      <point x="409" y="330" type="curve" smooth="yes"/>
      <point x="368" y="330"/>
      <point x="353" y="303"/>
      <point x="353" y="278" type="curve" smooth="yes"/>
      <point x="353" y="253"/>
      <point x="359" y="225"/>
      <point x="367" y="208" type="curve"/>
      <point x="456" y="262" type="line"/>
      <point x="418" y="241"/>
      <point x="392" y="233"/>
      <point x="336" y="233" type="curve" smooth="yes"/>
      <point x="254" y="233"/>
      <point x="185" y="283"/>
      <point x="185" y="365" type="curve" smooth="yes"/>
      <point x="185" y="424"/>
      <point x="223" y="448"/>
      <point x="288" y="448" type="curve" smooth="yes"/>
      <point x="470" y="448" type="line"/>
      <point x="470" y="633" type="line"/>
      <point x="386" y="633" type="line"/>
    </contour>
    <contour>
      <point x="434" y="658" type="move" name="top"/>
    </contour>
    <contour>
      <point x="338" y="78" type="move" name="bottom"/>
    </contour>
  </outline>
</glyph>
<glyph name="d_bh_ya-deva" format="1">
  <advance width="1148"/>
  <outline>
    <contour>
      <point x="247" y="7" type="line"/>
      <point x="232" y="-4" type="line"/>
      <point x="219" y="-21"/>
      <point x="212" y="-36"/>
      <point x="212" y="-50" type="curve" smooth="yes"/>
      <point x="212" y="-85"/>
      <point x="253" y="-103"/>
      <point x="296" y="-103" type="curve" smooth="yes"/>
      <point x="346" y="-103"/>
      <point x="398" y="-75"/>
      <point x="398" y="-42" type="curve" smooth="yes"/>
      <point x="398" y="-25"/>
      <point x="378" y="-6"/>
      <point x="330" y="35" type="curve"/>
      <point x="343" y="11" type="line"/>
      <point x="497" y="215" type="line"/>
      <point x="432" y="252" type="line"/>
    </contour>
    <contour>
      <point x="106" y="144"/>
      <point x="74" y="127"/>
      <point x="49" y="94" type="curve"/>
      <point x="8" y="39" type="line"/>
      <point x="68" y="-7" type="line"/>
      <point x="91" y="25" type="line"/>
      <point x="105" y="43"/>
      <point x="120" y="52"/>
      <point x="137" y="52" type="curve" smooth="yes"/>
      <point x="149" y="52"/>
      <point x="162" y="47"/>
      <point x="176" y="37" type="curve"/>
      <point x="253" y="-20" type="line"/>
      <point x="304" y="47" type="line"/>
      <point x="210" y="117" type="line"/>
      <point x="187" y="135"/>
      <point x="162" y="144"/>
      <point x="139" y="144" type="curve" smooth="yes"/>
    </contour>
    <contour>
      <point x="-20" y="658" type="line"/>
      <point x="-20" y="583" type="line"/>
      <point x="671" y="583" type="line"/>
      <point x="671" y="658" type="line"/>
    </contour>
    <contour>
      <point x="538" y="11" type="line"/>
      <point x="606" y="58" type="line"/>
      <point x="473" y="240" type="line"/>
      <point x="405" y="208" type="line"/>
    </contour>
    <contour>
      <point x="424" y="522" type="line"/>
      <point x="337" y="522" type="line" smooth="yes"/>
      <point x="217" y="522"/>
      <point x="140" y="479"/>
      <point x="140" y="366" type="curve" smooth="yes"/>
      <point x="140" y="238"/>
      <point x="246" y="159"/>
      <point x="374" y="159" type="curve" smooth="yes"/>
      <point x="465" y="159"/>
      <point x="557" y="183"/>
      <point x="557" y="240" type="curve" smooth="yes"/>
      <point x="557" y="284"/>
      <point x="507" y="330"/>
      <point x="447" y="330" type="curve" smooth="yes"/>
      <point x="406" y="330"/>
      <point x="391" y="303"/>
      <point x="391" y="278" type="curve" smooth="yes"/>
      <point x="391" y="253"/>
      <point x="397" y="225"/>
      <point x="405" y="208" type="curve"/>
      <point x="494" y="262" type="line"/>
      <point x="456" y="241"/>
      <point x="430" y="233"/>
      <point x="374" y="233" type="curve" smooth="yes"/>
      <point x="292" y="233"/>
      <point x="223" y="283"/>
      <point x="223" y="365" type="curve" smooth="yes"/>
      <point x="223" y="424"/>
      <point x="261" y="448"/>
      <point x="326" y="448" type="curve" smooth="yes"/>
      <point x="508" y="448" type="line"/>
      <point x="508" y="633" type="line"/>
      <point x="424" y="633" type="line"/>
    </contour>
    <contour>
      <point x="504" y="583" type="line"/>
      <point x="940" y="583" type="line"/>
      <point x="940" y="183" type="line"/>
      <point x="910" y="165"/>
      <point x="877" y="156"/>
      <point x="843" y="156" type="curve" smooth="yes"/>
      <point x="770" y="156"/>
      <point x="723" y="193"/>
      <point x="708" y="261" type="curve"/>
      <point x="786" y="298"/>
      <point x="828" y="355"/>
      <point x="828" y="423" type="curve" smooth="yes"/>
      <point x="828" y="483"/>
      <point x="788" y="522"/>
      <point x="728" y="522" type="curve" smooth="yes"/>
      <point x="504" y="522" type="line"/>
      <point x="504" y="448" type="line"/>
      <point x="712" y="448" type="line" smooth="yes"/>
      <point x="734" y="448"/>
      <point x="745" y="436"/>
      <point x="745" y="414" type="curve" smooth="yes"/>
      <point x="745" y="366"/>
      <point x="705" y="332"/>
      <point x="614" y="303" type="curve"/>
      <point x="631" y="157"/>
      <point x="708" y="82"/>
      <point x="843" y="82" type="curve" smooth="yes"/>
      <point x="876" y="82"/>
      <point x="908" y="88"/>
      <point x="940" y="99" type="curve"/>
      <point x="940" y="0" type="line"/>
      <point x="1025" y="0" type="line"/>
      <point x="1025" y="583" type="line"/>
      <point x="1166" y="583" type="line"/>
      <point x="1166" y="658" type="line"/>
      <point x="504" y="658" type="line"/>
    </contour>
    <contour>
      <point x="996" y="658" type="move" name="top"/>
    </contour>
    <contour>
      <point x="995" y="0" type="move" name="bottom"/>
    </contour>
  </outline>
</glyph>
<glyph name="d_ddh_r_ya-deva" format="1">
  <advance width="1141"/>
  <outline>
    <contour>
      <point x="428" y="115"/>
      <point x="388" y="35"/>
      <point x="313" y="35" type="curve" smooth="yes"/>
      <point x="279" y="35"/>
      <point x="262" y="57"/>
      <point x="262" y="80" type="curve" smooth="yes"/>
      <point x="262" y="96"/>
      <point x="271" y="113"/>
      <point x="288" y="125" type="curve"/>
      <point x="240" y="180" type="line"/>
      <point x="196" y="151"/>
      <point x="176" y="109"/>
      <point x="176" y="72" type="curve" smooth="yes"/>
      <point x="176" y="3"/>
      <point x="246" y="-35"/>
      <point x="316" y="-35" type="curve" smooth="yes"/>
      <point x="409" y="-35"/>
      <point x="466" y="32"/>
      <point x="510" y="130" type="curve"/>
      <point x="447" y="186" type="line"/>
    </contour>
    <contour>
      <point x="72" y="252"/>
      <point x="52" y="210"/>
      <point x="52" y="173" type="curve" smooth="yes"/>
      <point x="52" y="104"/>
      <point x="122" y="66"/>
      <point x="192" y="66" type="curve" smooth="yes"/>
      <point x="212" y="66"/>
      <point x="229" y="69"/>
      <point x="246" y="75" type="curve"/>
      <point x="231" y="145" type="line"/>
      <point x="218" y="139"/>
      <point x="204" y="136"/>
      <point x="189" y="136" type="curve" smooth="yes"/>
      <point x="155" y="136"/>
      <point x="138" y="158"/>
      <point x="138" y="181" type="curve" smooth="yes"/>
      <point x="138" y="197"/>
      <point x="147" y="214"/>
      <point x="164" y="226" type="curve"/>
      <point x="116" y="281" type="line"/>
    </contour>
    <contour>
      <point x="-30" y="658" type="line"/>
      <point x="-30" y="583" type="line"/>
      <point x="164" y="583" type="line"/>
      <point x="164" y="658" type="line"/>
    </contour>
    <contour>
      <point x="70" y="658" type="line"/>
      <point x="70" y="583" type="line"/>
      <point x="724" y="583" type="line"/>
      <point x="724" y="658" type="line"/>
    </contour>
    <contour>
      <point x="560" y="11" type="line"/>
      <point x="628" y="58" type="line"/>
      <point x="495" y="240" type="line"/>
      <point x="427" y="208" type="line"/>
    </contour>
    <contour>
      <point x="446" y="522" type="line"/>
      <point x="359" y="522" type="line" smooth="yes"/>
      <point x="239" y="522"/>
      <point x="162" y="479"/>
      <point x="162" y="366" type="curve" smooth="yes"/>
      <point x="162" y="238"/>
      <point x="268" y="159"/>
      <point x="396" y="159" type="curve" smooth="yes"/>
      <point x="487" y="159"/>
      <point x="579" y="183"/>
      <point x="579" y="240" type="curve" smooth="yes"/>
      <point x="579" y="284"/>
      <point x="529" y="330"/>
      <point x="469" y="330" type="curve" smooth="yes"/>
      <point x="428" y="330"/>
      <point x="413" y="303"/>
      <point x="413" y="278" type="curve" smooth="yes"/>
      <point x="413" y="253"/>
      <point x="419" y="225"/>
      <point x="427" y="208" type="curve"/>
      <point x="516" y="262" type="line"/>
      <point x="478" y="241"/>
      <point x="452" y="233"/>
      <point x="396" y="233" type="curve" smooth="yes"/>
      <point x="314" y="233"/>
      <point x="245" y="283"/>
      <point x="245" y="365" type="curve" smooth="yes"/>
      <point x="245" y="424"/>
      <point x="283" y="448"/>
      <point x="348" y="448" type="curve" smooth="yes"/>
      <point x="530" y="448" type="line"/>
      <point x="530" y="633" type="line"/>
      <point x="446" y="633" type="line"/>
    </contour>
    <contour>
      <point x="497" y="583" type="line"/>
      <point x="933" y="583" type="line"/>
      <point x="933" y="183" type="line"/>
      <point x="903" y="165"/>
      <point x="870" y="156"/>
      <point x="836" y="156" type="curve" smooth="yes"/>
      <point x="763" y="156"/>
      <point x="716" y="193"/>
      <point x="701" y="261" type="curve"/>
      <point x="779" y="298"/>
      <point x="821" y="355"/>
      <point x="821" y="423" type="curve" smooth="yes"/>
      <point x="821" y="483"/>
      <point x="781" y="522"/>
      <point x="721" y="522" type="curve" smooth="yes"/>
      <point x="497" y="522" type="line"/>
      <point x="497" y="448" type="line"/>
      <point x="705" y="448" type="line" smooth="yes"/>
      <point x="727" y="448"/>
      <point x="738" y="436"/>
      <point x="738" y="414" type="curve" smooth="yes"/>
      <point x="738" y="366"/>
      <point x="698" y="332"/>
      <point x="607" y="303" type="curve"/>
      <point x="624" y="157"/>
      <point x="701" y="82"/>
      <point x="836" y="82" type="curve" smooth="yes"/>
      <point x="869" y="82"/>
      <point x="901" y="88"/>
      <point x="933" y="99" type="curve"/>
      <point x="933" y="0" type="line"/>
      <point x="1018" y="0" type="line"/>
      <point x="1018" y="583" type="line"/>
      <point x="1159" y="583" type="line"/>
      <point x="1159" y="658" type="line"/>
      <point x="497" y="658" type="line"/>
    </contour>
    <contour>
      <point x="989" y="658" type="move" name="top"/>
    </contour>
    <contour>
      <point x="988" y="0" type="move" name="bottom"/>
    </contour>
  </outline>
</glyph>
<glyph name="d_dh_ya-deva" format="1">
  <advance width="1163"/>
  <outline>
    <component base="d_dha-deva" xOffset="10"/>
    <component base="ya.connect" xOffset="620"/>
    <contour>
      <point x="1011" y="658" type="move" name="top"/>
    </contour>
    <contour>
      <point x="1010" y="0" type="move" name="bottom"/>
    </contour>
  </outline>
</glyph>
<glyph name="d_dha-deva" format="1">
  <advance width="672"/>
  <outline>
    <contour>
      <point x="428" y="115"/>
      <point x="388" y="35"/>
      <point x="313" y="35" type="curve" smooth="yes"/>
      <point x="279" y="35"/>
      <point x="262" y="57"/>
      <point x="262" y="80" type="curve" smooth="yes"/>
      <point x="262" y="96"/>
      <point x="271" y="113"/>
      <point x="288" y="125" type="curve"/>
      <point x="240" y="180" type="line"/>
      <point x="196" y="151"/>
      <point x="176" y="109"/>
      <point x="176" y="72" type="curve" smooth="yes"/>
      <point x="176" y="3"/>
      <point x="246" y="-35"/>
      <point x="316" y="-35" type="curve" smooth="yes"/>
      <point x="409" y="-35"/>
      <point x="466" y="32"/>
      <point x="510" y="130" type="curve"/>
      <point x="447" y="186" type="line"/>
    </contour>
    <contour>
      <point x="72" y="252"/>
      <point x="52" y="210"/>
      <point x="52" y="173" type="curve" smooth="yes"/>
      <point x="52" y="104"/>
      <point x="122" y="66"/>
      <point x="192" y="66" type="curve" smooth="yes"/>
      <point x="212" y="66"/>
      <point x="229" y="69"/>
      <point x="246" y="75" type="curve"/>
      <point x="231" y="145" type="line"/>
      <point x="218" y="139"/>
      <point x="204" y="136"/>
      <point x="189" y="136" type="curve" smooth="yes"/>
      <point x="155" y="136"/>
      <point x="138" y="158"/>
      <point x="138" y="181" type="curve" smooth="yes"/>
      <point x="138" y="197"/>
      <point x="147" y="214"/>
      <point x="164" y="226" type="curve"/>
      <point x="116" y="281" type="line"/>
    </contour>
    <contour>
      <point x="-30" y="658" type="line"/>
      <point x="-30" y="583" type="line"/>
      <point x="164" y="583" type="line"/>
      <point x="164" y="658" type="line"/>
    </contour>
    <contour>
      <point x="70" y="658" type="line"/>
      <point x="70" y="583" type="line"/>
      <point x="724" y="583" type="line"/>
      <point x="724" y="658" type="line"/>
    </contour>
    <component base="da_small" xOffset="100"/>
    <contour>
      <point x="518" y="658" type="move" name="top"/>
    </contour>
    <contour>
      <point x="588" y="48" type="move" name="bottom"/>
    </contour>
  </outline>
</glyph>
<glyph name="d_dha_uMatra-deva" format="1">
  <advance width="672"/>
  <outline>
    <component base="d_dha-deva"/>
    <component base="uMatra-deva" xOffset="380" yOffset="48"/>
    <contour>
      <point x="496" y="658" type="move" name="top"/>
    </contour>
  </outline>
</glyph>
<glyph name="d_g_ra-deva" format="1">
  <advance width="570"/>
  <outline>
    <contour>
      <point x="284" y="-22" type="line"/>
      <point x="347" y="-65" type="line"/>
      <point x="438" y="70" type="line"/>
      <point x="393" y="133" type="line"/>
    </contour>
    <component base="d_ga-deva"/>
    <contour>
      <point x="392" y="658" type="move" name="top"/>
    </contour>
    <contour>
      <point x="483" y="46" type="move" name="bottom"/>
    </contour>
  </outline>
</glyph>
<glyph name="d_ga-deva" format="1">
  <advance width="570"/>
  <outline>
    <contour>
      <point x="-5" y="583" type="line"/>
      <point x="575" y="583" type="line"/>
      <point x="575" y="658" type="line"/>
      <point x="-5" y="658" type="line"/>
    </contour>
    <contour>
      <point x="358" y="119"/>
      <point x="412" y="53"/>
      <point x="488" y="-5" type="curve"/>
      <point x="543" y="52" type="line"/>
      <point x="465" y="113"/>
      <point x="426" y="152"/>
      <point x="395" y="250" type="curve"/>
      <point x="327" y="208" type="line"/>
    </contour>
    <contour>
      <point x="346" y="522" type="line"/>
      <point x="259" y="522" type="line" smooth="yes"/>
      <point x="139" y="522"/>
      <point x="62" y="479"/>
      <point x="62" y="366" type="curve" smooth="yes"/>
      <point x="62" y="238"/>
      <point x="168" y="159"/>
      <point x="296" y="159" type="curve" smooth="yes"/>
      <point x="387" y="159"/>
      <point x="479" y="183"/>
      <point x="479" y="240" type="curve" smooth="yes"/>
      <point x="479" y="284"/>
      <point x="429" y="330"/>
      <point x="369" y="330" type="curve" smooth="yes"/>
      <point x="328" y="330"/>
      <point x="313" y="303"/>
      <point x="313" y="278" type="curve" smooth="yes"/>
      <point x="313" y="253"/>
      <point x="319" y="225"/>
      <point x="327" y="208" type="curve"/>
      <point x="416" y="262" type="line"/>
      <point x="378" y="241"/>
      <point x="352" y="233"/>
      <point x="296" y="233" type="curve" smooth="yes"/>
      <point x="214" y="233"/>
      <point x="145" y="283"/>
      <point x="145" y="365" type="curve" smooth="yes"/>
      <point x="145" y="424"/>
      <point x="183" y="448"/>
      <point x="248" y="448" type="curve" smooth="yes"/>
      <point x="430" y="448" type="line"/>
      <point x="430" y="633" type="line"/>
      <point x="346" y="633" type="line"/>
    </contour>
    <contour>
      <point x="163" y="129" type="line"/>
      <point x="123" y="129"/>
      <point x="102" y="124"/>
      <point x="102" y="84" type="curve" smooth="yes"/>
      <point x="102" y="42"/>
      <point x="151" y="-37"/>
      <point x="209" y="-37" type="curve" smooth="yes"/>
      <point x="239" y="-37"/>
      <point x="242" y="-2"/>
      <point x="242" y="28" type="curve" smooth="yes"/>
      <point x="242" y="236" type="line"/>
      <point x="163" y="263" type="line"/>
    </contour>
    <contour>
      <point x="391" y="658" type="move" name="top"/>
    </contour>
    <contour>
      <point x="333" y="0" type="move" name="bottom"/>
    </contour>
  </outline>
</glyph>
<glyph name="d_ga_uMatra-deva" format="1">
  <advance width="570"/>
  <outline>
    <contour>
      <point x="163" y="99" type="line"/>
      <point x="123" y="99"/>
      <point x="102" y="94"/>
      <point x="102" y="54" type="curve" smooth="yes"/>
      <point x="102" y="12"/>
      <point x="151" y="-67"/>
      <point x="209" y="-67" type="curve" smooth="yes"/>
      <point x="239" y="-67"/>
      <point x="242" y="-32"/>
      <point x="242" y="-2" type="curve" smooth="yes"/>
      <point x="242" y="236" type="line"/>
      <point x="163" y="263" type="line"/>
    </contour>
    <contour>
      <point x="-20" y="658" type="line"/>
      <point x="-20" y="583" type="line"/>
      <point x="563" y="583" type="line"/>
      <point x="563" y="658" type="line"/>
    </contour>
    <contour>
      <point x="460" y="11" type="line"/>
      <point x="528" y="58" type="line"/>
      <point x="395" y="240" type="line"/>
      <point x="327" y="208" type="line"/>
    </contour>
    <contour>
      <point x="346" y="522" type="line"/>
      <point x="259" y="522" type="line" smooth="yes"/>
      <point x="139" y="522"/>
      <point x="62" y="479"/>
      <point x="62" y="366" type="curve" smooth="yes"/>
      <point x="62" y="238"/>
      <point x="168" y="159"/>
      <point x="296" y="159" type="curve" smooth="yes"/>
      <point x="387" y="159"/>
      <point x="479" y="183"/>
      <point x="479" y="240" type="curve" smooth="yes"/>
      <point x="479" y="284"/>
      <point x="429" y="330"/>
      <point x="369" y="330" type="curve" smooth="yes"/>
      <point x="328" y="330"/>
      <point x="313" y="303"/>
      <point x="313" y="278" type="curve" smooth="yes"/>
      <point x="313" y="253"/>
      <point x="319" y="225"/>
      <point x="327" y="208" type="curve"/>
      <point x="416" y="262" type="line"/>
      <point x="378" y="241"/>
      <point x="352" y="233"/>
      <point x="296" y="233" type="curve" smooth="yes"/>
      <point x="214" y="233"/>
      <point x="145" y="283"/>
      <point x="145" y="365" type="curve" smooth="yes"/>
      <point x="145" y="424"/>
      <point x="183" y="448"/>
      <point x="248" y="448" type="curve" smooth="yes"/>
      <point x="430" y="448" type="line"/>
      <point x="430" y="633" type="line"/>
      <point x="346" y="633" type="line"/>
    </contour>
    <contour>
      <point x="446" y="73"/>
      <point x="406" y="61"/>
      <point x="381" y="42" type="curve"/>
      <point x="433" y="-18" type="line"/>
      <point x="450" y="-4"/>
      <point x="472" y="4"/>
      <point x="493" y="4" type="curve" smooth="yes"/>
      <point x="522" y="4"/>
      <point x="534" y="-8"/>
      <point x="534" y="-32" type="curve" smooth="yes"/>
      <point x="534" y="-65"/>
      <point x="502" y="-93"/>
      <point x="457" y="-92" type="curve" smooth="yes"/>
      <point x="410" y="-93"/>
      <point x="371" y="-75"/>
      <point x="344" y="-42" type="curve"/>
      <point x="297" y="-85" type="line"/>
      <point x="343" y="-137"/>
      <point x="394" y="-160"/>
      <point x="466" y="-160" type="curve" smooth="yes"/>
      <point x="557" y="-161"/>
      <point x="611" y="-113"/>
      <point x="611" y="-38" type="curve" smooth="yes"/>
      <point x="611" y="26"/>
      <point x="558" y="73"/>
      <point x="485" y="73" type="curve" smooth="yes"/>
    </contour>
    <contour>
      <point x="384" y="658" type="move" name="top"/>
    </contour>
    <contour>
      <point x="328" y="-93" type="move" name="bottom"/>
    </contour>
  </outline>
</glyph>
<glyph name="d_gha-deva" format="1">
  <advance width="645"/>
  <outline>
    <contour>
      <point x="157" y="152"/>
      <point x="137" y="115"/>
      <point x="137" y="79" type="curve" smooth="yes"/>
      <point x="137" y="14"/>
      <point x="198" y="-45"/>
      <point x="277" y="-45" type="curve" smooth="yes"/>
      <point x="380" y="-45"/>
      <point x="443" y="26"/>
      <point x="491" y="130" type="curve"/>
      <point x="428" y="186" type="line"/>
      <point x="407" y="110"/>
      <point x="361" y="25"/>
      <point x="274" y="25" type="curve" smooth="yes"/>
      <point x="239" y="25"/>
      <point x="222" y="46"/>
      <point x="222" y="71" type="curve" smooth="yes"/>
      <point x="222" y="94"/>
      <point x="236" y="120"/>
      <point x="261" y="139" type="curve"/>
      <point x="197" y="182" type="line"/>
    </contour>
    <contour>
      <point x="88" y="321"/>
      <point x="31" y="272"/>
      <point x="31" y="200" type="curve" smooth="yes"/>
      <point x="31" y="132"/>
      <point x="87" y="75"/>
      <point x="177" y="69" type="curve"/>
      <point x="189" y="132" type="line"/>
      <point x="142" y="139"/>
      <point x="116" y="172"/>
      <point x="116" y="202" type="curve" smooth="yes"/>
      <point x="116" y="230"/>
      <point x="139" y="259"/>
      <point x="190" y="271" type="curve"/>
      <point x="169" y="342" type="line"/>
    </contour>
    <contour>
      <point x="-30" y="658" type="line"/>
      <point x="-30" y="583" type="line"/>
      <point x="675" y="583" type="line"/>
      <point x="675" y="658" type="line"/>
    </contour>
    <component base="da_small" xOffset="86"/>
    <contour>
      <point x="487" y="658" type="move" name="top"/>
    </contour>
    <contour>
      <point x="584" y="52" type="move" name="bottom"/>
    </contour>
  </outline>
</glyph>
<glyph name="d_gha_uMatra-deva" format="1">
  <advance width="663"/>
  <outline>
    <contour>
      <point x="107" y="324"/>
      <point x="44" y="276"/>
      <point x="44" y="205" type="curve" smooth="yes"/>
      <point x="44" y="133"/>
      <point x="111" y="95"/>
      <point x="184" y="90" type="curve"/>
      <point x="196" y="153" type="line"/>
      <point x="161" y="158"/>
      <point x="128" y="174"/>
      <point x="128" y="211" type="curve" smooth="yes"/>
      <point x="128" y="240"/>
      <point x="162" y="262"/>
      <point x="192" y="271" type="curve"/>
      <point x="171" y="342" type="line"/>
    </contour>
    <contour>
      <point x="-25" y="658" type="line"/>
      <point x="-25" y="583" type="line"/>
      <point x="137" y="583" type="line"/>
      <point x="137" y="658" type="line"/>
    </contour>
    <contour>
      <point x="52" y="658" type="line"/>
      <point x="52" y="583" type="line"/>
      <point x="683" y="583" type="line"/>
      <point x="683" y="658" type="line"/>
    </contour>
    <contour>
      <point x="411" y="115"/>
      <point x="371" y="35"/>
      <point x="296" y="35" type="curve" smooth="yes"/>
      <point x="260" y="35"/>
      <point x="244" y="59"/>
      <point x="244" y="85" type="curve" smooth="yes"/>
      <point x="244" y="127"/>
      <point x="278" y="159"/>
      <point x="335" y="180" type="curve"/>
      <point x="285" y="235" type="line"/>
      <point x="221" y="203"/>
      <point x="161" y="153"/>
      <point x="161" y="82" type="curve" smooth="yes"/>
      <point x="161" y="11"/>
      <point x="223" y="-35"/>
      <point x="299" y="-35" type="curve" smooth="yes"/>
      <point x="392" y="-35"/>
      <point x="449" y="32"/>
      <point x="493" y="130" type="curve"/>
      <point x="430" y="186" type="line"/>
    </contour>
    <contour>
      <point x="549" y="11" type="line"/>
      <point x="617" y="58" type="line"/>
      <point x="484" y="240" type="line"/>
      <point x="416" y="208" type="line"/>
    </contour>
    <contour>
      <point x="435" y="522" type="line"/>
      <point x="348" y="522" type="line" smooth="yes"/>
      <point x="228" y="522"/>
      <point x="151" y="479"/>
      <point x="151" y="366" type="curve" smooth="yes"/>
      <point x="151" y="238"/>
      <point x="257" y="159"/>
      <point x="385" y="159" type="curve" smooth="yes"/>
      <point x="476" y="159"/>
      <point x="568" y="183"/>
      <point x="568" y="240" type="curve" smooth="yes"/>
      <point x="568" y="284"/>
      <point x="518" y="330"/>
      <point x="458" y="330" type="curve" smooth="yes"/>
      <point x="417" y="330"/>
      <point x="402" y="303"/>
      <point x="402" y="278" type="curve" smooth="yes"/>
      <point x="402" y="253"/>
      <point x="408" y="225"/>
      <point x="416" y="208" type="curve"/>
      <point x="505" y="262" type="line"/>
      <point x="467" y="241"/>
      <point x="441" y="233"/>
      <point x="385" y="233" type="curve" smooth="yes"/>
      <point x="303" y="233"/>
      <point x="234" y="283"/>
      <point x="234" y="365" type="curve" smooth="yes"/>
      <point x="234" y="424"/>
      <point x="272" y="448"/>
      <point x="337" y="448" type="curve" smooth="yes"/>
      <point x="519" y="448" type="line"/>
      <point x="519" y="633" type="line"/>
      <point x="435" y="633" type="line"/>
    </contour>
    <contour>
      <point x="547" y="73"/>
      <point x="507" y="61"/>
      <point x="482" y="42" type="curve"/>
      <point x="534" y="-18" type="line"/>
      <point x="551" y="-4"/>
      <point x="573" y="4"/>
      <point x="594" y="4" type="curve" smooth="yes"/>
      <point x="623" y="4"/>
      <point x="635" y="-8"/>
      <point x="635" y="-32" type="curve" smooth="yes"/>
      <point x="635" y="-65"/>
      <point x="603" y="-93"/>
      <point x="558" y="-92" type="curve" smooth="yes"/>
      <point x="511" y="-93"/>
      <point x="472" y="-75"/>
      <point x="445" y="-42" type="curve"/>
      <point x="398" y="-85" type="line"/>
      <point x="444" y="-137"/>
      <point x="495" y="-160"/>
      <point x="567" y="-160" type="curve" smooth="yes"/>
      <point x="658" y="-161"/>
      <point x="712" y="-113"/>
      <point x="712" y="-38" type="curve" smooth="yes"/>
      <point x="712" y="26"/>
      <point x="659" y="73"/>
      <point x="586" y="73" type="curve" smooth="yes"/>
    </contour>
    <contour>
      <point x="484" y="658" type="move" name="top"/>
    </contour>
    <contour>
      <point x="586" y="52" type="move" name="bottom"/>
    </contour>
  </outline>
</glyph>
<glyph name="d_na_uMatra-deva" format="1">
  <advance width="547"/>
  <outline>
    <contour>
      <point x="282" y="209" type="line"/>
      <point x="121" y="72" type="line" smooth="yes"/>
      <point x="98" y="53"/>
      <point x="88" y="41"/>
      <point x="88" y="25" type="curve" smooth="yes"/>
      <point x="88" y="-6"/>
      <point x="139" y="-42"/>
      <point x="210" y="-42" type="curve" smooth="yes"/>
      <point x="262" y="-42"/>
      <point x="280" y="-27"/>
      <point x="280" y="-14" type="curve" smooth="yes"/>
      <point x="280" y="6"/>
      <point x="261" y="37"/>
      <point x="205" y="78" type="curve"/>
      <point x="149" y="30" type="line"/>
      <point x="201" y="-32" type="line"/>
      <point x="222" y="60" type="line"/>
      <point x="377" y="192" type="line"/>
    </contour>
    <contour>
      <point x="-5" y="658" type="line"/>
      <point x="-5" y="583" type="line"/>
      <point x="565" y="583" type="line"/>
      <point x="565" y="658" type="line"/>
    </contour>
    <contour>
      <point x="454" y="11" type="line"/>
      <point x="522" y="58" type="line"/>
      <point x="389" y="240" type="line"/>
      <point x="321" y="208" type="line"/>
    </contour>
    <contour>
      <point x="340" y="522" type="line"/>
      <point x="253" y="522" type="line" smooth="yes"/>
      <point x="133" y="522"/>
      <point x="56" y="479"/>
      <point x="56" y="366" type="curve" smooth="yes"/>
      <point x="56" y="238"/>
      <point x="162" y="159"/>
      <point x="290" y="159" type="curve" smooth="yes"/>
      <point x="381" y="159"/>
      <point x="473" y="183"/>
      <point x="473" y="240" type="curve" smooth="yes"/>
      <point x="473" y="284"/>
      <point x="423" y="330"/>
      <point x="363" y="330" type="curve" smooth="yes"/>
      <point x="322" y="330"/>
      <point x="307" y="303"/>
      <point x="307" y="278" type="curve" smooth="yes"/>
      <point x="307" y="253"/>
      <point x="313" y="225"/>
      <point x="321" y="208" type="curve"/>
      <point x="410" y="262" type="line"/>
      <point x="372" y="241"/>
      <point x="346" y="233"/>
      <point x="290" y="233" type="curve" smooth="yes"/>
      <point x="208" y="233"/>
      <point x="139" y="283"/>
      <point x="139" y="365" type="curve" smooth="yes"/>
      <point x="139" y="424"/>
      <point x="177" y="448"/>
      <point x="242" y="448" type="curve" smooth="yes"/>
      <point x="424" y="448" type="line"/>
      <point x="424" y="633" type="line"/>
      <point x="340" y="633" type="line"/>
    </contour>
    <contour>
      <point x="440" y="68"/>
      <point x="400" y="56"/>
      <point x="375" y="37" type="curve"/>
      <point x="427" y="-23" type="line"/>
      <point x="444" y="-9"/>
      <point x="466" y="-1"/>
      <point x="487" y="-1" type="curve" smooth="yes"/>
      <point x="516" y="-1"/>
      <point x="528" y="-13"/>
      <point x="528" y="-37" type="curve" smooth="yes"/>
      <point x="528" y="-70"/>
      <point x="496" y="-98"/>
      <point x="451" y="-97" type="curve" smooth="yes"/>
      <point x="404" y="-98"/>
      <point x="365" y="-80"/>
      <point x="338" y="-47" type="curve"/>
      <point x="291" y="-90" type="line"/>
      <point x="337" y="-142"/>
      <point x="388" y="-165"/>
      <point x="460" y="-165" type="curve" smooth="yes"/>
      <point x="551" y="-166"/>
      <point x="605" y="-118"/>
      <point x="605" y="-43" type="curve" smooth="yes"/>
      <point x="605" y="21"/>
      <point x="552" y="68"/>
      <point x="479" y="68" type="curve" smooth="yes"/>
    </contour>
    <contour>
      <point x="389" y="658" type="move" name="top"/>
    </contour>
    <contour>
      <point x="294" y="78" type="move" name="bottom"/>
    </contour>
  </outline>
</glyph>
